<svg width="60" height="60" viewBox="0 0 60 60" fill="none" xmlns="http://www.w3.org/2000/svg">
<rect width="60" height="60" rx="10" fill="#FA6900" fill-opacity="0.2"/>
<path fill-rule="evenodd" clip-rule="evenodd" d="M38.5957 35.9873L41.6965 41.358L36.9364 40.3972L35.3884 45L32.0414 39.2029C34.5518 38.7943 36.8137 37.6456 38.5957 35.9873ZM30 15C23.5125 15 18.2534 20.2591 18.2534 26.7466C18.2534 33.234 23.5125 38.4931 30 38.4931C36.4874 38.4931 41.7465 33.234 41.7465 26.7466C41.7465 20.2591 36.4874 15 30 15ZM30 21.5454L31.4684 25.2744L35.4687 25.5188L32.376 28.0677L33.3798 31.9477L30 29.7939L26.6201 31.9476L27.6239 28.0676L24.5312 25.5188L28.5315 25.2744L30 21.5454ZM30 17.6962C34.9982 17.6962 39.0504 21.7483 39.0504 26.7466C39.0504 31.7448 34.9982 35.7969 30 35.7969C25.0017 35.7969 20.9496 31.7449 20.9496 26.7466C20.9496 21.7483 25.0017 17.6962 30 17.6962ZM30 18.5712C34.5152 18.5712 38.1753 22.2314 38.1753 26.7466C38.1753 31.2617 34.5152 34.9219 30 34.9219C25.4848 34.9219 21.8247 31.2617 21.8247 26.7466C21.8247 22.2314 25.4848 18.5712 30 18.5712ZM21.4043 35.9873C23.1862 37.6456 25.4481 38.7943 27.9585 39.2029L24.7405 44.7767L23.1925 40.1739L18.4324 41.1347L21.4043 35.9873Z" fill="#FA6900"/>
</svg>
