<svg width="70" height="70" viewBox="0 0 70 70" fill="none" xmlns="http://www.w3.org/2000/svg">
<circle cx="35" cy="35" r="35" fill="#F9C74F"/>
<path d="M41 37.0575C41.9025 36.7143 42.7239 36.1877 43.4125 35.5108C44.101 34.8339 44.6415 34.0215 45 33.125C44.337 33.125 43.7011 32.8616 43.2322 32.3928C42.7634 31.9239 42.5 31.288 42.5 30.625V23.75C42.5 21.7609 41.7098 19.8532 40.3033 18.4467C38.8968 17.0402 36.9891 16.25 35 16.25C33.0109 16.25 31.1032 17.0402 29.6967 18.4467C28.2902 19.8532 27.5 21.7609 27.5 23.75V30.625C27.5 31.288 27.2366 31.9239 26.7678 32.3928C26.2989 32.8616 25.663 33.125 25 33.125C25.3585 34.0215 25.899 34.8339 26.5875 35.5108C27.2761 36.1877 28.0975 36.7143 29 37.0575H41Z" fill="#383838"/>
<path d="M30.25 37.0575H41C41.9025 36.7143 42.7239 36.1877 43.4125 35.5108C44.101 34.8339 44.6415 34.0215 45 33.125C44.337 33.125 43.7011 32.8616 43.2322 32.3928C42.7634 31.9239 42.5 31.288 42.5 30.625V23.75C42.4987 21.87 41.7914 20.059 40.5181 18.6757C39.2448 17.2925 37.4985 16.4379 35.625 16.2812C33.7515 16.4379 32.0052 17.2925 30.7319 18.6757C29.4586 20.059 28.7513 21.87 28.75 23.75V30.625C28.75 31.288 28.4866 31.9239 28.0178 32.3928C27.5489 32.8616 26.913 33.125 26.25 33.125C26.6085 34.0215 27.1491 34.8338 27.8376 35.5107C28.5261 36.1876 29.3476 36.7143 30.25 37.0575Z" fill="#4C4C4C"/>
<path d="M26.875 54.375V52.0925L25 52.0106C24.1592 51.975 23.3646 51.6159 22.7823 51.0083C22.1999 50.4007 21.8749 49.5916 21.875 48.75V43.26C21.8748 41.9589 22.3176 40.6965 23.1306 39.6806C23.9369 38.6726 25.0602 37.9665 26.3181 37.6769L32.5 36.25H37.5L41.7612 37.2331C42.9318 37.5034 44.0086 38.0823 44.8796 38.9096C45.7507 39.7369 46.3842 40.7824 46.7144 41.9375C46.8218 42.3116 46.8965 42.6942 46.9375 43.0813L48.125 54.375H26.875Z" fill="#4C4C4C"/>
<path d="M46.7144 41.9375C46.3844 40.7823 45.7509 39.7366 44.8798 38.9091C44.0087 38.0817 42.9319 37.5028 41.7612 37.2325L37.5 36.25H33.75L27.5663 37.6769C26.3038 37.9683 25.1773 38.679 24.3707 39.6929C23.5641 40.7069 23.125 41.9643 23.125 43.26V48.75C23.1249 49.5916 23.4499 50.4007 24.0323 51.0083C24.6146 51.6159 25.4092 51.975 26.25 52.0106L28.125 52.0925V54.375H48.125L46.9375 43.0813C46.8965 42.6942 46.8218 42.3116 46.7144 41.9375Z" fill="#595959"/>
<path d="M28.2419 40.6644L34.4256 47.0975L37.1 47.69L41.25 43.125L40 41.25L41.875 40.625L40.4931 36.9406L37.5 36.25H32.5L29.5069 36.9406L28.125 40.625L28.2419 40.6644Z" fill="#212121"/>
<path d="M31.7481 39.1608L31.25 37.4995L32.5 36.2495V34.3789H37.5V36.2495L38.75 37.4995L37.3444 42.1845L31.7481 39.1608Z" fill="#D08D78"/>
<path d="M37.5006 36.25V35C36.8335 35.3559 36.098 35.5651 35.3435 35.6135C34.5889 35.6619 33.8327 35.5484 33.1256 35.2806V36.25L32.6006 36.775C32.3814 36.9941 32.2256 37.2685 32.1498 37.569C32.074 37.8695 32.081 38.185 32.17 38.4819C32.3012 38.9178 32.5999 39.284 33.0006 39.5L37.435 41.8956L38.7506 37.5L37.5006 36.25Z" fill="#F2B9A1"/>
<path d="M29.4794 26.25H28.75C28.2527 26.25 27.7758 26.4475 27.4242 26.7992C27.0725 27.1508 26.875 27.6277 26.875 28.125C26.875 28.6223 27.0725 29.0992 27.4242 29.4508C27.7758 29.8025 28.2527 30 28.75 30H29.7919" fill="#D08D78"/>
<path d="M40.5215 26.25H41.2509C41.7481 26.25 42.2251 26.4475 42.5767 26.7992C42.9283 27.1508 43.1259 27.6277 43.1259 28.125C43.1259 28.6223 42.9283 29.0992 42.5767 29.4508C42.2251 29.8025 41.7481 30 41.2509 30H40.209" fill="#D08D78"/>
<path d="M40.625 25L40.1769 30.3806C40.121 31.0501 39.9292 31.7011 39.6133 32.2939C39.2973 32.8868 38.8639 33.409 38.3394 33.8287C37.3915 34.5869 36.2138 34.9999 35 35C33.7862 34.9999 32.6085 34.5869 31.6606 33.8287C31.1361 33.409 30.7027 32.8868 30.3867 32.2939C30.0708 31.7011 29.879 31.0501 29.8231 30.3806L29.375 25H31.875L33.125 21.875L34.375 25H36.875L37.5 23.75L38.75 25H40.625Z" fill="#D08D78"/>
<path d="M32.9106 33.8287C33.6919 34.452 34.6323 34.8435 35.625 34.9587C36.6177 34.8435 37.5581 34.452 38.3394 33.8287C38.8638 33.409 39.2972 32.8867 39.6132 32.2939C39.9291 31.701 40.1209 31.0501 40.1769 30.3806L40.625 25H38.75L37.5 23.75L36.875 25H34.375L33.125 21.875L31.875 25H30.625L31.0731 30.3806C31.1291 31.0501 31.3209 31.701 31.6368 32.2939C31.9528 32.8867 32.3862 33.409 32.9106 33.8287Z" fill="#F2B9A1"/>
<path d="M34.375 52.4424H35.625V54.3749H34.375V52.4424Z" fill="#383838"/>
<path d="M42.5 45.625H43.75V54.375H42.5V45.625Z" fill="#383838"/>
<path d="M30.2406 50L26.875 41.25L35.625 37.5L39.5406 48.1275L39.375 50" fill="#C1CFE8"/>
<path d="M35.8814 38.1934L33.7802 39.094C32.5772 39.6095 31.589 40.5245 30.9827 41.6843C30.3763 42.8441 30.1888 44.1778 30.452 45.4598C30.7152 46.7419 31.4129 47.8938 32.4272 48.7209C33.4414 49.5481 34.7102 49.9997 36.0189 49.9996H39.3758L39.5414 48.1246L35.8814 38.1934Z" fill="#D7E0EF"/>
<path d="M26.25 48.125H36.25V52.5L26.875 52.0925" fill="#595959"/>
<path d="M36.25 48.75H36.8012C37.2608 48.75 37.714 48.643 38.125 48.4375C38.536 48.232 38.9892 48.125 39.4488 48.125C39.9265 48.125 40.3846 48.3148 40.7224 48.6526C41.0602 48.9904 41.25 49.4485 41.25 49.9262V50.6988C41.25 51.1765 41.0602 51.6346 40.7224 51.9724C40.3846 52.3102 39.9265 52.5 39.4488 52.5C38.9892 52.5 38.536 52.393 38.125 52.1875C37.714 51.982 37.2608 51.875 36.8012 51.875H36.25" fill="#F2B9A1"/>
<path d="M26.9019 51.4681L26.875 52.0931V52.7181L36.2231 53.125H36.25C36.4158 53.125 36.5747 53.0592 36.6919 52.9419C36.8092 52.8247 36.875 52.6658 36.875 52.5V48.125C36.875 47.9592 36.8092 47.8003 36.6919 47.6831C36.5747 47.5658 36.4158 47.5 36.25 47.5H26.25V48.75H35.625V51.8475L26.9019 51.4681Z" fill="#383838"/>
</svg>
