<svg width="60" height="60" viewBox="0 0 60 60" fill="none" xmlns="http://www.w3.org/2000/svg">
<rect width="60" height="60" rx="10" fill="#F9C74F" fill-opacity="0.3"/>
<path d="M29.8118 27.1758C27.9295 27.1758 26.2354 28.3052 25.4824 29.9993H34.1412C33.3883 28.3052 31.7883 27.1758 29.8118 27.1758Z" fill="#FFB400"/>
<path d="M29.8116 25.294C30.8511 25.294 31.6939 24.4512 31.6939 23.4116C31.6939 22.3721 30.8511 21.5293 29.8116 21.5293C28.772 21.5293 27.9292 22.3721 27.9292 23.4116C27.9292 24.4512 28.772 25.294 29.8116 25.294Z" fill="#FFB400"/>
<path d="M38.6588 14.9414H21.3411C19.3646 14.9414 17.7646 16.5414 17.7646 18.5179V41.4826C17.7646 43.4591 19.3646 45.0591 21.3411 45.0591H38.6588C40.6352 45.0591 42.2352 43.4591 42.2352 41.4826V18.5179C42.2352 16.5414 40.6352 14.9414 38.6588 14.9414ZM27.0823 25.9532C26.5176 25.2943 26.1411 24.4473 26.1411 23.412C26.1411 21.3414 27.8352 19.6473 29.9058 19.6473C31.9764 19.6473 33.6705 21.3414 33.6705 23.412C33.6705 24.3532 33.2941 25.2002 32.7294 25.9532C34.6117 26.8943 36.0235 28.6826 36.3999 30.8473C36.3999 31.1296 36.3999 31.412 36.2117 31.6002C35.9294 31.7885 35.647 31.8826 35.3646 31.8826H24.2588C23.9764 31.8826 23.6941 31.7885 23.5058 31.5061C23.3176 31.3179 23.2235 31.0355 23.3176 30.7532C23.6941 28.5885 25.1058 26.8002 27.0823 25.9532ZM37.5294 40.3532H22.4705C21.9058 40.3532 21.5294 39.9767 21.5294 39.412C21.5294 38.8473 21.9058 38.4708 22.4705 38.4708H37.5294C38.0941 38.4708 38.4705 38.8473 38.4705 39.412C38.4705 39.9767 38.0941 40.3532 37.5294 40.3532ZM37.5294 36.5885H22.4705C21.9058 36.5885 21.5294 36.212 21.5294 35.6473C21.5294 35.0826 21.9058 34.7061 22.4705 34.7061H37.5294C38.0941 34.7061 38.4705 35.0826 38.4705 35.6473C38.4705 36.212 38.0941 36.5885 37.5294 36.5885Z" fill="#FFB400"/>
</svg>
