<svg width="100" height="100" viewBox="0 0 100 100" fill="none" xmlns="http://www.w3.org/2000/svg">
<circle cx="50" cy="50" r="50" fill="#277DA1"/>
<g clip-path="url(#clip0_194_247)">
<path fill-rule="evenodd" clip-rule="evenodd" d="M75.0002 26.0976L74.5692 31.6511C74.5351 32.1188 74.2312 32.5237 73.7916 32.6871C73.352 32.8505 72.8575 32.7425 72.5261 32.4106L71.2761 31.1597L62.964 39.483C61.616 40.828 59.4336 40.828 58.0856 39.483L54.2382 35.6338C53.9015 35.2973 53.3558 35.2973 53.0192 35.6338L40.3718 48.2864C39.725 48.9339 38.8473 49.2977 37.9321 49.2977C37.0169 49.2977 36.1393 48.9339 35.4925 48.2864L33.3692 46.1623C33.0327 45.8263 32.4876 45.8263 32.1511 46.1623L27.9416 50.3649C27.267 51.0282 26.1852 51.0282 25.5106 50.3649C25.1843 50.0444 25.0005 49.6063 25.0005 49.1489C25.0005 48.6916 25.1843 48.2534 25.5106 47.933L30.3209 43.1123C30.9677 42.465 31.8452 42.1014 32.7602 42.1014C33.6751 42.1014 34.5526 42.465 35.1994 43.1123L37.9313 45.8459L51.1899 32.5864C51.8366 31.9392 52.7141 31.5755 53.6291 31.5755C54.5441 31.5755 55.4216 31.9392 56.0683 32.5864L59.914 36.4312C60.0757 36.5931 60.2951 36.6841 60.5239 36.6841C60.7528 36.6841 60.9722 36.5931 61.1339 36.4312L68.8425 28.7192L67.5925 27.4692C67.2619 27.1387 67.1545 26.6457 67.3178 26.2077C67.481 25.7697 67.8849 25.4673 68.3511 25.4338L73.9114 25.0002C74.2072 24.981 74.4968 25.0907 74.7056 25.3011C74.9144 25.5115 75.0218 25.802 75.0002 26.0976Z" fill="#4FBA6F"/>
<path d="M37.9313 71.5527H27.5864C26.6342 71.5527 25.8623 72.3247 25.8623 73.2769C25.8623 74.2291 26.6342 75.001 27.5864 75.001H37.9313C38.8835 75.001 39.6554 74.2291 39.6554 73.2769C39.6554 72.3247 38.8835 71.5527 37.9313 71.5527Z" fill="#F0C419"/>
<path d="M55.1725 71.5527H44.8277C43.8754 71.5527 43.1035 72.3247 43.1035 73.2769C43.1035 74.2291 43.8754 75.001 44.8277 75.001H55.1725C56.1247 75.001 56.8966 74.2291 56.8966 73.2769C56.8966 72.3247 56.1247 71.5527 55.1725 71.5527Z" fill="#F0C419"/>
<path d="M55.1725 68.1035H44.8277C43.8754 68.1035 43.1035 68.8754 43.1035 69.8277C43.1035 70.7799 43.8754 71.5518 44.8277 71.5518H55.1725C56.1247 71.5518 56.8966 70.7799 56.8966 69.8277C56.8966 68.8754 56.1247 68.1035 55.1725 68.1035Z" fill="#F3D55B"/>
<path d="M55.1725 64.6562H44.8277C43.8754 64.6562 43.1035 65.4282 43.1035 66.3804C43.1035 67.3326 43.8754 68.1045 44.8277 68.1045H55.1725C56.1247 68.1045 56.8966 67.3326 56.8966 66.3804C56.8966 65.4282 56.1247 64.6562 55.1725 64.6562Z" fill="#F0C419"/>
<path d="M72.4137 71.5527H62.0689C61.1166 71.5527 60.3447 72.3247 60.3447 73.2769C60.3447 74.2291 61.1166 75.001 62.0689 75.001H72.4137C73.3659 75.001 74.1378 74.2291 74.1378 73.2769C74.1378 72.3247 73.3659 71.5527 72.4137 71.5527Z" fill="#F0C419"/>
<path d="M49.9998 64.6559C54.2848 64.6559 57.7585 61.1823 57.7585 56.8973C57.7585 52.6123 54.2848 49.1387 49.9998 49.1387C45.7149 49.1387 42.2412 52.6123 42.2412 56.8973C42.2412 61.1823 45.7149 64.6559 49.9998 64.6559Z" fill="#F3D55B"/>
<path d="M72.4137 68.1035H62.0689C61.1166 68.1035 60.3447 68.8754 60.3447 69.8277C60.3447 70.7799 61.1166 71.5518 62.0689 71.5518H72.4137C73.3659 71.5518 74.1378 70.7799 74.1378 69.8277C74.1378 68.8754 73.3659 68.1035 72.4137 68.1035Z" fill="#F3D55B"/>
<path d="M72.4137 64.6562H62.0689C61.1166 64.6562 60.3447 65.4282 60.3447 66.3804C60.3447 67.3326 61.1166 68.1045 62.0689 68.1045H72.4137C73.3659 68.1045 74.1378 67.3326 74.1378 66.3804C74.1378 65.4282 73.3659 64.6562 72.4137 64.6562Z" fill="#F0C419"/>
<path d="M72.4137 61.207H62.0689C61.1166 61.207 60.3447 61.979 60.3447 62.9312C60.3447 63.8834 61.1166 64.6553 62.0689 64.6553H72.4137C73.3659 64.6553 74.1378 63.8834 74.1378 62.9312C74.1378 61.979 73.3659 61.207 72.4137 61.207Z" fill="#F3D55B"/>
<path d="M72.4137 57.7598H62.0689C61.1166 57.7598 60.3447 58.5317 60.3447 59.4839C60.3447 60.4361 61.1166 61.208 62.0689 61.208H72.4137C73.3659 61.208 74.1378 60.4361 74.1378 59.4839C74.1378 58.5317 73.3659 57.7598 72.4137 57.7598Z" fill="#F0C419"/>
<path d="M67.2415 57.7594C71.5265 57.7594 75.0002 54.2858 75.0002 50.0008C75.0002 45.7158 71.5265 42.2422 67.2415 42.2422C62.9566 42.2422 59.4829 45.7158 59.4829 50.0008C59.4829 54.2858 62.9566 57.7594 67.2415 57.7594Z" fill="#F3D55B"/>
<path d="M32.7586 71.5524C37.0436 71.5524 40.5172 68.0787 40.5172 63.7938C40.5172 59.5088 37.0436 56.0352 32.7586 56.0352C28.4737 56.0352 25 59.5088 25 63.7938C25 68.0787 28.4737 71.5524 32.7586 71.5524Z" fill="#F3D55B"/>
<path fill-rule="evenodd" clip-rule="evenodd" d="M49.9999 56.035C49.5816 56.0345 49.224 55.734 49.1516 55.322C49.0793 54.9101 49.313 54.5056 49.7061 54.3627C50.0992 54.2198 50.5381 54.3796 50.7473 54.7419C50.8962 55.0185 51.1838 55.1923 51.498 55.1954C51.8121 55.1984 52.1031 55.0303 52.2574 54.7566C52.4117 54.4829 52.4048 54.147 52.2395 53.8798C51.927 53.3553 51.439 52.9583 50.8619 52.7591V52.5867C50.8619 52.1106 50.476 51.7246 49.9999 51.7246C49.5237 51.7246 49.1378 52.1106 49.1378 52.5867V52.7453C47.9511 53.1633 47.2389 54.3762 47.4521 55.6161C47.6653 56.8561 48.7417 57.7615 49.9999 57.7591C50.4181 57.7595 50.7757 58.0601 50.8481 58.472C50.9204 58.884 50.6867 59.2884 50.2936 59.4313C49.9005 59.5743 49.4616 59.4144 49.2524 59.0522C49.0073 58.6559 48.4916 58.5262 48.0881 58.7593C47.6846 58.9924 47.5394 59.5039 47.7602 59.9143C48.0732 60.439 48.5618 60.8361 49.1395 61.035V61.2074C49.1395 61.6835 49.5255 62.0694 50.0016 62.0694C50.4777 62.0694 50.8636 61.6835 50.8636 61.2074V61.0487C52.0506 60.6307 52.7629 59.4172 52.5492 58.1771C52.3355 56.9369 51.2583 56.0317 49.9999 56.035Z" fill="#B19046"/>
<path fill-rule="evenodd" clip-rule="evenodd" d="M69.8278 51.7247C69.8278 50.2964 68.6699 49.1385 67.2416 49.1385C66.8233 49.1381 66.4657 48.8375 66.3933 48.4255C66.321 48.0136 66.5547 47.6091 66.9478 47.4662C67.3409 47.3233 67.7798 47.4832 67.989 47.8454C68.2341 48.2416 68.7498 48.3714 69.1533 48.1383C69.5568 47.9052 69.702 47.3936 69.4812 46.9833C69.1691 46.4585 68.681 46.0614 68.1036 45.8626V45.6902C68.1036 45.2141 67.7177 44.8281 67.2416 44.8281C66.7654 44.8281 66.3795 45.2141 66.3795 45.6902V45.8488C65.1928 46.2668 64.4806 47.4797 64.6938 48.7197C64.907 49.9596 65.9834 50.865 67.2416 50.8626C67.6598 50.863 68.0174 51.1636 68.0898 51.5755C68.1621 51.9875 67.9284 52.3919 67.5353 52.5349C67.1422 52.6778 66.7033 52.5179 66.4941 52.1557C66.249 51.7594 65.7333 51.6297 65.3298 51.8628C64.9263 52.0959 64.7811 52.6074 65.0019 53.0178C65.3145 53.5429 65.8032 53.94 66.3812 54.1385V54.3109C66.3812 54.787 66.7672 55.173 67.2433 55.173C67.7194 55.173 68.1053 54.787 68.1053 54.3109V54.1523C69.1343 53.7877 69.8235 52.8163 69.8278 51.7247Z" fill="#B19046"/>
<path fill-rule="evenodd" clip-rule="evenodd" d="M32.7586 62.9314C32.3404 62.931 31.9828 62.6305 31.9104 62.2185C31.8381 61.8066 32.0718 61.4021 32.4649 61.2592C32.858 61.1163 33.2969 61.2761 33.5061 61.6383C33.6549 61.915 33.9426 62.0888 34.2567 62.0918C34.5709 62.0949 34.8619 61.9268 35.0162 61.6531C35.1704 61.3794 35.1636 61.0435 34.9983 60.7763C34.6858 60.2518 34.1978 59.8548 33.6207 59.6556V59.4832C33.6207 59.0071 33.2348 58.6211 32.7586 58.6211C32.2825 58.6211 31.8966 59.0071 31.8966 59.4832V59.6418C30.7099 60.0598 29.9977 61.2727 30.2109 62.5126C30.4241 63.7526 31.5005 64.658 32.7586 64.6556C33.1769 64.656 33.5345 64.9566 33.6069 65.3685C33.6792 65.7804 33.4455 66.1849 33.0524 66.3278C32.6593 66.4707 32.2204 66.3109 32.0112 65.9487C31.8623 65.672 31.5747 65.4982 31.2605 65.4952C30.9464 65.4921 30.6554 65.6602 30.5011 65.9339C30.3468 66.2076 30.3537 66.5436 30.519 66.8107C30.8319 67.3355 31.3206 67.7325 31.8983 67.9314V68.1039C31.8983 68.58 32.2843 68.9659 32.7604 68.9659C33.2365 68.9659 33.6224 68.58 33.6224 68.1039V67.9452C34.8094 67.5272 35.5216 66.3137 35.308 65.0735C35.0943 63.8333 34.0171 62.9282 32.7586 62.9314Z" fill="#B19046"/>
</g>
<defs>
<clipPath id="clip0_194_247">
<rect width="50" height="50" fill="white" transform="translate(25 25)"/>
</clipPath>
</defs>
</svg>
