<svg width="60" height="60" viewBox="0 0 60 60" fill="none" xmlns="http://www.w3.org/2000/svg">
<rect width="60" height="60" rx="10" fill="#F94144" fill-opacity="0.2"/>
<path d="M41.1732 20.5333C39.9932 19.3513 38.4462 18.6057 36.7864 18.4191C35.1267 18.2325 33.4528 18.6161 32.0398 19.5067L34.9998 22.52C35.1181 22.6508 35.2092 22.8039 35.2679 22.9702C35.3266 23.1365 35.3517 23.3128 35.3418 23.4889C35.3319 23.665 35.2871 23.8374 35.2101 23.9961C35.1331 24.1547 35.0254 24.2966 34.8932 24.4133C34.6466 24.6307 34.3285 24.7495 33.9998 24.7467C33.8115 24.7481 33.625 24.7096 33.4527 24.6338C33.2803 24.5579 33.126 24.4464 32.9998 24.3066L29.2398 20.5333C28.7006 19.9946 28.0796 19.5446 27.3998 19.2C26.0128 18.4894 24.4366 18.2358 22.8968 18.4752C21.3569 18.7147 19.9322 19.4351 18.8265 20.5333C17.4429 22.1438 16.6821 24.1968 16.6821 26.32C16.6821 28.4432 17.4429 30.4961 18.8265 32.1066C21.3065 34.7733 27.3332 40.9466 30.0398 40.9466C32.1465 40.9466 36.2798 37.2 39.1465 34.28C39.8665 33.56 40.4798 32.9466 41.0132 32.3466L41.2132 32.1333C42.5983 30.5162 43.3563 28.4552 43.349 26.3259C43.3417 24.1966 42.5695 22.1409 41.1732 20.5333ZM32.6665 32H31.3332V33.3333C31.3332 33.6869 31.1927 34.0261 30.9426 34.2761C30.6926 34.5262 30.3534 34.6666 29.9998 34.6666C29.6462 34.6666 29.3071 34.5262 29.057 34.2761C28.807 34.0261 28.6665 33.6869 28.6665 33.3333V32H27.3332C26.9795 32 26.6404 31.8595 26.3903 31.6095C26.1403 31.3594 25.9998 31.0203 25.9998 30.6666C25.9998 30.313 26.1403 29.9739 26.3903 29.7238C26.6404 29.4738 26.9795 29.3333 27.3332 29.3333H28.6665V28C28.6665 27.6464 28.807 27.3072 29.057 27.0572C29.3071 26.8071 29.6462 26.6666 29.9998 26.6666C30.3534 26.6666 30.6926 26.8071 30.9426 27.0572C31.1927 27.3072 31.3332 27.6464 31.3332 28V29.3333H32.6665C33.0201 29.3333 33.3592 29.4738 33.6093 29.7238C33.8593 29.9739 33.9998 30.313 33.9998 30.6666C33.9998 31.0203 33.8593 31.3594 33.6093 31.6095C33.3592 31.8595 33.0201 32 32.6665 32Z" fill="#F94144"/>
</svg>
