<svg width="100" height="100" viewBox="0 0 100 100" fill="none" xmlns="http://www.w3.org/2000/svg">
<circle cx="50" cy="50" r="50" fill="#F94144"/>
<path d="M67.8572 48.0164C69.6105 48.0164 71.0318 46.7728 71.0318 45.2387C71.0318 43.7046 69.6105 42.4609 67.8572 42.4609C66.1039 42.4609 64.6826 43.7046 64.6826 45.2387C64.6826 46.7728 66.1039 48.0164 67.8572 48.0164Z" fill="#785550"/>
<path d="M67.0636 45.2387C67.0636 44.0735 67.8853 43.0793 69.0477 42.6669C68.6795 42.5362 68.2789 42.4609 67.8572 42.4609C66.1039 42.4609 64.6826 43.7046 64.6826 45.2387C64.6826 46.7728 66.1039 48.0164 67.8572 48.0164C68.2789 48.0164 68.6796 47.9411 69.0477 47.8104C67.8853 47.398 67.0636 46.4038 67.0636 45.2387Z" fill="#694B4B"/>
<path d="M73.6839 61.0381L71.1155 59.754C70.5777 59.4852 70.238 58.9355 70.2381 58.3341L70.2382 55.9531H65.4763V58.3342C65.4763 58.9354 65.1366 59.485 64.5988 59.7539L62.0305 61.0381C61.2238 61.4414 60.7144 62.2658 60.7144 63.1677V67.8579C60.7144 68.2962 61.0696 68.6516 61.508 68.6516H74.2064C74.6448 68.6516 75.0001 68.2962 75.0001 67.8579V63.1677C75.0001 62.2658 74.4905 61.4414 73.6839 61.0381Z" fill="#E6AF78"/>
<path d="M67.857 59.1276C68.7116 59.1276 69.5301 58.9515 70.2805 58.6379C70.2607 58.5379 70.2378 58.4384 70.2378 58.3341L70.2379 55.9531H65.476V58.3342C65.476 58.439 65.453 58.539 65.4331 58.6395C66.1841 58.9514 67.0022 59.1276 67.857 59.1276Z" fill="#D29B6E"/>
<path d="M73.6839 61.038L71.8542 60.1231C71.0058 61.4333 69.5343 62.3021 67.8572 62.3021C66.1802 62.3021 64.7086 61.4332 63.8602 60.123L62.0305 61.038C61.2238 61.4413 60.7144 62.2657 60.7144 63.1676V67.8577C60.7144 68.296 61.0697 68.6514 61.508 68.6514H74.2064C74.6447 68.6514 75.0001 68.296 75.0001 67.8577V63.1676C75.0001 62.2657 74.4905 61.4413 73.6839 61.038Z" fill="#D5DCED"/>
<path d="M67.8573 55.9529C70.9256 55.9529 73.4129 53.4656 73.4129 50.3974C73.4129 47.3291 70.9256 44.8418 67.8573 44.8418C64.7891 44.8418 62.3018 47.3291 62.3018 50.3974C62.3018 53.4656 64.7891 55.9529 67.8573 55.9529Z" fill="#5A4146"/>
<path d="M73.3605 49.6272C73.0553 47.3632 71.3207 45.4705 69.0899 44.9779C68.683 44.888 68.2824 44.8443 67.8917 44.8419C65.2301 44.8253 64.3413 48.5003 66.7341 49.6662C66.8627 49.7289 66.9443 49.757 66.9443 49.757L69.709 54.7624C69.709 54.7624 70.4457 54.8127 71.1887 54.8356C72.7245 53.6808 73.6474 51.7545 73.3605 49.6272Z" fill="#694B4B"/>
<path d="M67.8573 57.5387C65.4362 57.5387 63.4372 55.732 63.135 53.3932C63.0912 53.0543 63.254 52.7221 63.5591 52.5682C63.9245 52.3838 64.4555 52.0731 64.9639 51.6195C65.53 51.1143 65.8621 50.5816 66.0497 50.1906C66.2112 49.8537 66.5826 49.6633 66.9445 49.7557C69.739 50.4684 71.6414 51.9223 72.3315 52.5157C72.5169 52.6751 72.6236 52.9101 72.6046 53.1538C72.4124 55.6074 70.3604 57.5387 67.8573 57.5387Z" fill="#F0C087"/>
<path d="M72.3315 52.5157C71.6414 51.9221 69.7389 50.4683 66.9445 49.7556C66.5826 49.6634 66.2112 49.8538 66.0497 50.1905C65.9076 50.4867 65.6729 50.864 65.3244 51.2492C65.3243 51.2501 65.3241 51.251 65.324 51.2518C65.2159 51.3744 65.1008 51.4972 64.9639 51.6194C64.4555 52.0731 63.9245 52.3838 63.5591 52.5681C63.254 52.7221 63.0912 53.0544 63.135 53.3931C63.4064 55.4935 65.0501 57.1529 67.1353 57.4717C66.1852 56.8252 65.4764 55.9489 65.4764 54.364V53.2325C65.6566 53.0994 65.8382 52.9667 66.0206 52.8039C66.4617 52.4102 66.8468 51.955 67.1557 51.4648C69.2934 52.1319 70.7427 53.2429 71.2921 53.7154C71.4425 53.8473 71.8157 54.1914 72.2524 54.6011C72.4403 54.1489 72.5645 53.6638 72.6045 53.1539C72.6236 52.9101 72.5169 52.6751 72.3315 52.5157Z" fill="#E6AF78"/>
<path d="M74.516 61.7363C74.8218 62.142 74.9998 62.6398 74.9998 63.167V67.8571C74.9998 68.2954 74.6444 68.6508 74.2062 68.6508H71.8252V64.6518C71.8252 64.1695 72.0444 63.7135 72.4209 63.4123L74.516 61.7363Z" fill="#C7CFE2"/>
<path d="M27.3809 48.0157V48.5727C27.3809 49.2551 27.4909 49.933 27.7066 50.5805L28.9682 54.3649H31.3491V45.6348H29.7618C28.4469 45.6348 27.3809 46.7007 27.3809 48.0157Z" fill="#5A4146"/>
<path d="M38.2478 49.665L36.9048 54.3655L30.5556 48.8101C29.6789 48.8101 28.9683 48.0994 28.9683 47.2228C28.9683 45.9078 30.0343 44.8418 31.3492 44.8418H36.9048C37.7814 44.8418 38.4921 45.5524 38.4921 46.4291V47.9208C38.4921 48.5107 38.4099 49.0978 38.2478 49.665Z" fill="#694B4B"/>
<path d="M35.3176 56.7461H30.5557V60.2587H35.3176V56.7461Z" fill="#E6AF78"/>
<path d="M30.5557 58.204C31.2918 58.5031 32.0944 58.6715 32.9366 58.6715C33.7788 58.6715 34.5814 58.5031 35.3176 58.204V56.7461H30.5557V58.204Z" fill="#D29B6E"/>
<path d="M39.1461 59.7658L35.3172 58.672L32.9365 60.2519L30.5556 58.6719L26.7269 59.7658C25.7047 60.0578 25 60.9921 25 62.0552V67.8577C25 68.296 25.3554 68.6514 25.7937 68.6514H40.0794C40.5177 68.6514 40.873 68.296 40.873 67.8577V62.0552C40.873 60.9921 40.1683 60.0578 39.1461 59.7658Z" fill="#D5DCED"/>
<path d="M33.7304 68.6499H32.1431L32.5398 60.2578H33.3335L33.7304 68.6499Z" fill="#AFB9D2"/>
<path d="M32.9367 57.5387C30.3067 57.5387 28.1748 55.4068 28.1748 52.7768V51.847C28.1748 51.426 28.342 51.0223 28.6397 50.7247L30.0789 49.2855C30.3837 48.9807 30.8004 48.8055 31.2312 48.8191C33.7682 48.8991 36.0138 49.4426 37.2413 50.6416C37.5418 50.935 37.6986 51.3456 37.6986 51.7656V52.7768C37.6986 55.4068 35.5666 57.5387 32.9367 57.5387Z" fill="#F0C087"/>
<path d="M30.5558 52.044C30.5558 51.1285 31.3246 50.4007 32.2383 50.459C33.8405 50.5613 36.2179 50.8291 37.6766 51.5306C37.6289 51.1958 37.4851 50.8797 37.2413 50.6416C36.0138 49.4426 33.7682 48.8992 31.2312 48.8191C30.8005 48.8055 30.3836 48.9808 30.0789 49.2855L28.6397 50.7248C28.342 51.0224 28.1748 51.4262 28.1748 51.8472V52.777C28.1748 54.9487 29.6299 56.7771 31.6173 57.3497C30.9558 56.5335 30.5558 55.4975 30.5558 54.3643V52.044Z" fill="#E6AF78"/>
<path d="M28.1746 64.4199C28.1746 63.7885 27.9237 63.1828 27.4772 62.7363L25.4343 60.6934C25.1612 61.0836 25 61.5535 25 62.0551V67.8576C25 68.2959 25.3554 68.6513 25.7937 68.6513H28.1746V64.4199Z" fill="#C7CFE2"/>
<path d="M33.3335 61.8451H32.5398C32.3207 61.8451 32.1431 61.6675 32.1431 61.4482V60.2578H33.7304V61.4482C33.7304 61.6674 33.5527 61.8451 33.3335 61.8451Z" fill="#959CB5"/>
<path d="M32.9364 60.2512L31.5912 61.2788C31.3595 61.4558 31.0245 61.3848 30.8845 61.1291L29.6777 58.9254L30.1635 58.1844C30.2712 58.0201 30.5008 57.9922 30.6448 58.1258L32.9364 60.2512Z" fill="#C7CFE2"/>
<path d="M32.9365 60.2512L34.2817 61.2788C34.5135 61.4558 34.8484 61.3848 34.9885 61.1291L36.1952 58.9254L35.7095 58.1844C35.6018 58.0201 35.3722 57.9922 35.2281 58.1258L32.9365 60.2512Z" fill="#C7CFE2"/>
<path d="M50.3967 59.1274C55.5891 59.1274 60.2507 57.0043 61.7769 56.2306C62.0882 56.0729 62.2602 55.7355 62.2025 55.3914C61.9562 53.9197 61.2933 49.5117 60.7141 41.6671C60.243 35.2858 56.0948 31.3496 50.3966 31.3496C44.6983 31.3496 40.5502 35.2858 40.0791 41.6671C39.5 49.5118 38.837 53.9197 38.5906 55.3914C38.533 55.7355 38.705 56.0728 39.0162 56.2306C40.5427 57.0043 45.2043 59.1274 50.3967 59.1274Z" fill="#5A4146"/>
<path d="M61.7769 56.2306C62.0882 56.0728 62.2601 55.7355 62.2025 55.3914C61.9562 53.9197 61.2933 49.5117 60.7141 41.6671C60.243 35.2858 56.0947 31.3496 50.3966 31.3496C49.9973 31.3496 49.6056 31.3689 49.2223 31.4071C44.7865 31.8489 44.1205 38.1128 48.3839 39.4144C48.4518 39.4351 48.4893 39.4448 48.4893 39.4448L50.076 59.1194C50.0781 59.1215 50.0795 59.1228 50.0817 59.1248C55.3996 59.2136 60.2198 57.0198 61.7769 56.2306Z" fill="#694B4B"/>
<path d="M36.9048 67.8567V63.5759C36.9048 62.3187 37.6468 61.1799 38.7968 60.6719L45.4825 57.7189C46.0575 57.4649 46.4285 56.8956 46.4285 56.267V52.7773H54.365V56.267C54.365 56.8956 54.736 57.465 55.311 57.7189L61.9968 60.6719C63.1469 61.1798 63.8888 62.3187 63.8888 63.5759V67.8567C63.8888 68.295 63.5334 68.6504 63.0951 68.6504H37.6984C37.2601 68.6504 36.9048 68.2951 36.9048 67.8567Z" fill="#E6AF78"/>
<path d="M61.997 60.6722L57.0656 58.4941C56.0401 61.1821 53.4451 63.0951 50.3969 63.0951C47.3486 63.0951 44.7536 61.1822 43.7281 58.4941L38.7968 60.6722C37.6468 61.1801 36.9048 62.3189 36.9048 63.5762V67.857C36.9048 68.2953 37.2601 68.6507 37.6984 68.6507H63.0952C63.5336 68.6507 63.8889 68.2953 63.8889 67.857V63.5762C63.889 62.3189 63.1471 61.1802 61.997 60.6722Z" fill="#00C3FF"/>
<path d="M46.4287 55.0777C47.638 55.6335 48.9789 55.952 50.397 55.952C51.815 55.952 53.156 55.6335 54.3652 55.0777V52.7773H46.4287V55.0777Z" fill="#D29B6E"/>
<path d="M57.5332 43.2543C56.2588 42.146 53.3977 40.1861 48.4897 39.4442C47.8105 39.3414 47.1256 39.6757 46.8234 40.2927C46.3199 41.3207 45.249 42.9668 43.1226 44.4174C42.7005 44.7053 42.4604 45.1951 42.4604 45.706V46.1565C42.4604 50.3836 45.6503 54.0745 49.8687 54.3477C54.491 54.647 58.3335 50.9863 58.3335 46.4283V45.036C58.3335 44.3538 58.0479 43.7019 57.5332 43.2543Z" fill="#F0C087"/>
<path d="M57.9773 43.8017C57.8554 43.601 57.714 43.4118 57.5327 43.2543C56.2583 42.1459 53.3971 40.1861 48.4893 39.4442C47.8101 39.3414 47.1252 39.6757 46.8229 40.2926C46.7016 40.5404 46.5392 40.8292 46.3443 41.1377C45.7351 42.1055 44.7415 43.3098 43.1348 44.4085C42.7089 44.6997 42.46 45.19 42.46 45.7059V46.1564C42.46 50.236 45.4344 53.8067 49.4337 54.2971C48.0666 52.8713 47.2219 50.9405 47.2219 48.8093V43.8196C47.2219 43.003 47.8351 42.3212 48.6475 42.2392C50.5556 42.0466 54.1459 42.0301 57.9773 43.8017Z" fill="#E6AF78"/>
<path d="M38.0918 61.1074C37.3548 61.701 36.9048 62.6009 36.9048 63.5761V67.8569C36.9048 68.2952 37.2602 68.6506 37.6984 68.6506H42.4604V66.4622C42.4604 65.8308 42.2095 65.2251 41.763 64.7786L38.0918 61.1074Z" fill="#00AAF0"/>
<path d="M62.702 61.1074C63.4391 61.701 63.8891 62.6009 63.8891 63.5761V67.8569C63.8891 68.2952 63.5337 68.6506 63.0954 68.6506H58.3335V66.4622C58.3335 65.8308 58.5844 65.2251 59.0309 64.7786L62.702 61.1074Z" fill="#00AAF0"/>
</svg>
