<svg width="70" height="70" viewBox="0 0 70 70" fill="none" xmlns="http://www.w3.org/2000/svg">
<circle cx="35" cy="35" r="35" fill="#F94144"/>
<path d="M42.8439 52.1677H27.1542C26.4874 52.1677 25.9473 51.6276 25.9473 50.9608C25.9473 50.294 26.4874 49.7539 27.1542 49.7539H42.8438C43.5106 49.7539 44.0507 50.294 44.0507 50.9608C44.0507 51.6276 43.5106 52.1677 42.8439 52.1677Z" fill="#E7ECED"/>
<path d="M38.0185 44.9266V43.7197H31.984V44.9266C31.984 47.5951 31.0318 49.7542 28.3633 49.7542H41.6391C38.9707 49.7542 38.0185 47.5951 38.0185 44.9266Z" fill="#AFB6BB"/>
<path d="M50.689 44.9261H19.311C18.311 44.9261 17.5 44.1151 17.5 43.1152V39.4951H52.5V43.1152C52.5 44.1151 51.689 44.9261 50.689 44.9261Z" fill="#E7ECED"/>
<path d="M36.8101 43.1161H33.1894C32.8563 43.1161 32.5859 42.8458 32.5859 42.5127C32.5859 42.1795 32.8563 41.9092 33.1894 41.9092H36.8101C37.1433 41.9092 37.4136 42.1795 37.4136 42.5127C37.4136 42.8458 37.1433 43.1161 36.8101 43.1161Z" fill="#AFB6BB"/>
<path d="M47.6724 18.3751H22.3276H19.311C18.311 18.3751 17.5 19.1861 17.5 20.186V40.0992H22.3276H31.3793H38.6207H47.6725H52.5V20.186C52.5 19.1861 51.689 18.375 50.689 18.375H47.6724V18.3751Z" fill="#495D72"/>
<path d="M50.0861 20.7891H33.793V40.0994H50.0861V20.7891Z" fill="#28384C"/>
<path d="M35.0003 20.7891H19.9141V40.0994H35.0003V20.7891Z" fill="#F5BC00"/>
<path d="M26.5506 38.2884C26.4601 38.2884 26.3678 38.2679 26.2809 38.2251C25.9828 38.076 25.8621 37.7133 26.0111 37.4152L27.8215 33.7945C27.9705 33.4964 28.3338 33.3758 28.6313 33.5248C28.9295 33.6738 29.0501 34.0365 28.9011 34.3347L27.0907 37.9553C26.9851 38.1665 26.7721 38.2884 26.5506 38.2884Z" fill="white"/>
<path d="M22.3282 36.4773C22.1737 36.4773 22.0192 36.4182 21.9016 36.3006C21.6656 36.0646 21.6656 35.6832 21.9016 35.4473L23.712 33.6369C23.9473 33.401 24.3299 33.401 24.5652 33.6369C24.8012 33.8729 24.8012 34.2543 24.5652 34.4902L22.7549 36.3006C22.6371 36.4182 22.4827 36.4773 22.3282 36.4773Z" fill="white"/>
<path d="M24.1385 38.2889C23.984 38.2889 23.8295 38.2297 23.7119 38.1121L21.9016 36.3017C21.6656 36.0658 21.6656 35.6844 21.9016 35.4485C22.137 35.2125 22.5195 35.2125 22.7549 35.4485L24.5652 37.2588C24.8012 37.4948 24.8012 37.8762 24.5652 38.1121C24.4475 38.2297 24.293 38.2889 24.1385 38.2889Z" fill="white"/>
<path d="M32.5858 36.4773C32.4314 36.4773 32.2769 36.4182 32.1592 36.3006L30.3489 34.4902C30.1129 34.2542 30.1129 33.8729 30.3489 33.6369C30.5842 33.401 30.9668 33.401 31.2021 33.6369L33.0125 35.4473C33.2485 35.6833 33.2485 36.0647 33.0125 36.3006C32.8948 36.4182 32.7403 36.4773 32.5858 36.4773Z" fill="white"/>
<path d="M30.7755 38.2889C30.621 38.2889 30.4665 38.2297 30.3489 38.1121C30.1129 37.8761 30.1129 37.4947 30.3489 37.2588L32.1592 35.4485C32.3946 35.2125 32.7771 35.2125 33.0125 35.4485C33.2485 35.6844 33.2485 36.0658 33.0125 36.3017L31.2021 38.1121C31.0845 38.2297 30.93 38.2889 30.7755 38.2889Z" fill="white"/>
<path d="M27.7578 28.0297C27.4247 28.0297 27.1543 27.7594 27.1543 27.4262V23.2021C27.1543 22.869 27.4247 22.5986 27.7578 22.5986C28.0909 22.5986 28.3613 22.869 28.3613 23.2021V27.4262C28.3613 27.7594 28.0909 28.0297 27.7578 28.0297Z" fill="white"/>
<path d="M27.7578 31.6502C27.4247 31.6502 27.1543 31.3798 27.1543 31.0467V29.8398C27.1543 29.5067 27.4247 29.2363 27.7578 29.2363C28.0909 29.2363 28.3613 29.5067 28.3613 29.8398V31.0467C28.3613 31.3799 28.0909 31.6502 27.7578 31.6502Z" fill="white"/>
<path d="M43.4485 23.8056H37.414C37.0809 23.8056 36.8105 23.5352 36.8105 23.2021C36.8105 22.869 37.0809 22.5986 37.414 22.5986H43.4485C43.7816 22.5986 44.052 22.869 44.052 23.2021C44.052 23.5352 43.7816 23.8056 43.4485 23.8056Z" fill="#DD352E"/>
<path d="M47.6717 23.8056H45.8613C45.5282 23.8056 45.2578 23.5352 45.2578 23.2021C45.2578 22.869 45.5282 22.5986 45.8613 22.5986H47.6717C48.0048 22.5986 48.2751 22.869 48.2751 23.2021C48.2751 23.5352 48.0048 23.8056 47.6717 23.8056Z" fill="#366DB6"/>
<path d="M47.6731 26.2196H41.6386C41.3055 26.2196 41.0352 25.9493 41.0352 25.6162C41.0352 25.2831 41.3055 25.0127 41.6386 25.0127H47.6731C48.0062 25.0127 48.2766 25.2831 48.2766 25.6162C48.2766 25.9493 48.0062 26.2196 47.6731 26.2196Z" fill="#75348B"/>
<path d="M39.2244 26.2196H37.414C37.0809 26.2196 36.8105 25.9493 36.8105 25.6162C36.8105 25.2831 37.0809 25.0127 37.414 25.0127H39.2244C39.5575 25.0127 39.8279 25.2831 39.8279 25.6162C39.8279 25.9493 39.5575 26.2196 39.2244 26.2196Z" fill="#57ABC1"/>
<path d="M43.4485 28.6337H37.414C37.0809 28.6337 36.8105 28.3633 36.8105 28.0302C36.8105 27.6971 37.0809 27.4268 37.414 27.4268H43.4485C43.7816 27.4268 44.052 27.6971 44.052 28.0302C44.052 28.3633 43.7816 28.6337 43.4485 28.6337Z" fill="#25AE88"/>
<path d="M47.6717 28.6337H45.8613C45.5282 28.6337 45.2578 28.3633 45.2578 28.0302C45.2578 27.6971 45.5282 27.4268 45.8613 27.4268H47.6717C48.0048 27.4268 48.2751 27.6971 48.2751 28.0302C48.2751 28.3633 48.0048 28.6337 47.6717 28.6337Z" fill="#F76363"/>
<path d="M47.6731 31.0468H41.6386C41.3055 31.0468 41.0352 30.7764 41.0352 30.4433C41.0352 30.1102 41.3055 29.8398 41.6386 29.8398H47.6731C48.0062 29.8398 48.2766 30.1102 48.2766 30.4433C48.2766 30.7764 48.0062 31.0468 47.6731 31.0468Z" fill="#BF5A45"/>
<path d="M39.2244 31.0468H37.414C37.0809 31.0468 36.8105 30.7764 36.8105 30.4433C36.8105 30.1102 37.0809 29.8398 37.414 29.8398H39.2244C39.5575 29.8398 39.8279 30.1102 39.8279 30.4433C39.8279 30.7764 39.5575 31.0468 39.2244 31.0468Z" fill="#F2ECBF"/>
<path d="M47.6731 38.289H41.6386C41.3055 38.289 41.0352 38.0186 41.0352 37.6855C41.0352 37.3524 41.3055 37.082 41.6386 37.082H47.6731C48.0062 37.082 48.2766 37.3524 48.2766 37.6855C48.2766 38.0186 48.0062 38.289 47.6731 38.289Z" fill="#25AE88"/>
<path d="M39.2244 38.289H37.414C37.0809 38.289 36.8105 38.0186 36.8105 37.6855C36.8105 37.3524 37.0809 37.082 37.414 37.082H39.2244C39.5575 37.082 39.8279 37.3524 39.8279 37.6855C39.8279 38.0186 39.5575 38.289 39.2244 38.289Z" fill="#DD352E"/>
<path d="M43.4485 33.4609H37.414C37.0809 33.4609 36.8105 33.1905 36.8105 32.8574C36.8105 32.5243 37.0809 32.2539 37.414 32.2539H43.4485C43.7816 32.2539 44.052 32.5243 44.052 32.8574C44.052 33.1905 43.7816 33.4609 43.4485 33.4609Z" fill="#75348B"/>
<path d="M47.6717 33.4609H45.8613C45.5282 33.4609 45.2578 33.1905 45.2578 32.8574C45.2578 32.5243 45.5282 32.2539 45.8613 32.2539H47.6717C48.0048 32.2539 48.2751 32.5243 48.2751 32.8574C48.2751 33.1905 48.0048 33.4609 47.6717 33.4609Z" fill="#EBBA16"/>
<path d="M47.6731 35.8749H41.6386C41.3055 35.8749 41.0352 35.6046 41.0352 35.2714C41.0352 34.9383 41.3055 34.668 41.6386 34.668H47.6731C48.0062 34.668 48.2766 34.9383 48.2766 35.2714C48.2766 35.6046 48.0062 35.8749 47.6731 35.8749Z" fill="#ED8A19"/>
<path d="M39.2244 35.8749H37.414C37.0809 35.8749 36.8105 35.6046 36.8105 35.2714C36.8105 34.9383 37.0809 34.668 37.414 34.668H39.2244C39.5575 34.668 39.8279 34.9383 39.8279 35.2714C39.8279 35.6046 39.5575 35.8749 39.2244 35.8749Z" fill="#C5411E"/>
</svg>
