<svg width="100" height="100" viewBox="0 0 100 100" fill="none" xmlns="http://www.w3.org/2000/svg">
<circle cx="50" cy="50" r="50" fill="#FF9C55"/>
<g clip-path="url(#clip0_194_246)">
<path d="M44.7726 30.6735L50.116 37.4423H36.4856C34.0518 37.4423 32.0816 39.4125 32.0816 41.8463V70.8914H29.404C26.9702 70.8914 25 68.9212 25 66.4868V33.4665C25 31.0327 26.9702 29.0625 29.404 29.0625H41.3654C42.6752 29.0625 43.9267 29.6533 44.7726 30.6735Z" fill="#00EFD1"/>
<path d="M75 41.6266V66.4991C75 68.9329 73.0298 70.9031 70.596 70.9031H30.9229V41.6266C30.9229 39.1929 32.8931 37.2227 35.3268 37.2227H70.596C73.0298 37.2227 75 39.1929 75 41.6266Z" fill="#00ACEA"/>
<path d="M48.1921 57.6553L44.0194 54.0969L48.1921 50.5386C48.6788 50.1217 48.7368 49.3911 48.3193 48.9044C47.9025 48.4176 47.1719 48.3596 46.6854 48.7768L41.4813 53.2162C41.2264 53.4362 41.0757 53.7606 41.0757 54.0969C41.0757 54.4329 41.2264 54.7576 41.4813 54.9777L46.6854 59.4168C46.9058 59.6023 47.1719 59.6951 47.4386 59.6951C47.7633 59.6951 48.088 59.5556 48.3193 59.2895C48.7368 58.8027 48.6788 58.0722 48.1921 57.6553Z" fill="#083863"/>
<path d="M63.6879 53.2162L58.484 48.7768C57.9973 48.3596 57.267 48.4176 56.8498 48.9044C56.4329 49.3911 56.4909 50.1217 56.9777 50.5386L61.1497 54.0969L56.9777 57.6553C56.4909 58.0722 56.4329 58.8027 56.8498 59.2895C57.0817 59.5556 57.4064 59.6951 57.7305 59.6951C57.9973 59.6951 58.264 59.6023 58.484 59.4168L63.6879 54.9777C63.9433 54.7576 64.0937 54.4329 64.0937 54.0969C64.0937 53.7606 63.9433 53.4362 63.6879 53.2162Z" fill="#083863"/>
<path d="M54.2192 45.311C53.5936 45.1837 52.9793 45.5777 52.8514 46.2033L49.6065 61.6183C49.4789 62.2439 49.8729 62.8586 50.4991 62.9861C50.58 62.9974 50.6612 63.0093 50.7423 63.0093C51.2755 63.0093 51.7619 62.6382 51.8779 62.0935L55.1231 46.6788C55.2507 46.0644 54.8451 45.4498 54.2192 45.311Z" fill="#083863"/>
</g>
<defs>
<clipPath id="clip0_194_246">
<rect width="50" height="50" fill="white" transform="translate(25 25)"/>
</clipPath>
</defs>
</svg>
