<svg width="60" height="60" viewBox="0 0 60 60" fill="none" xmlns="http://www.w3.org/2000/svg">
<rect width="60" height="60" rx="10" fill="#F94144" fill-opacity="0.2"/>
<g clip-path="url(#clip0_670_816)">
<path d="M21.6821 38.4551H15.2285C14.7108 38.4551 14.291 38.8748 14.291 39.3926V45.0626C14.291 45.5803 14.7108 46.0001 15.2285 46.0001H22.6197V39.3926C22.6196 38.8748 22.2 38.4551 21.6821 38.4551Z" fill="#F94144"/>
<path d="M30.9478 33.2051H25.4316C24.9139 33.2051 24.4941 33.6248 24.4941 34.1426V46.0001H31.8853V34.1426C31.8853 33.6248 31.4656 33.2051 30.9478 33.2051Z" fill="#F94144"/>
<path d="M43.8616 19.0631L45.751 17.0125C46.0035 16.7387 46.0697 16.3419 45.9203 16.0013C45.771 15.66 45.4341 15.44 45.0616 15.44H39.0179V14.9375C39.0179 14.42 38.5985 14 38.0804 14C37.5629 14 37.1429 14.42 37.1429 14.9375V25.875H34.6973C34.1795 25.875 33.7598 26.2948 33.7598 26.8125V46H41.3103C41.8285 46 42.2478 45.58 42.2478 45.0625V26.8125C42.2478 26.295 41.8285 25.875 41.3103 25.875H39.0179V22.5206H45.0616C45.441 22.5206 45.7828 22.2919 45.9278 21.9412C46.0728 21.5906 45.9922 21.1869 45.7235 20.9194L43.8616 19.0631Z" fill="#F94144"/>
<path d="M29.9096 22.0492C30.1397 22.5131 30.702 22.7026 31.166 22.4726C31.6299 22.2425 31.8194 21.68 31.5894 21.2162C29.8897 17.7888 30.0617 18.1343 30.037 18.0878C29.8608 17.7549 29.4983 17.5539 29.1122 17.5939C29.1096 17.5942 29.1069 17.5947 29.1042 17.595C29.0275 17.6037 29.2324 17.5635 25.6815 18.3107C25.1748 18.4173 24.8505 18.9145 24.9571 19.4212C25.05 19.8628 25.4396 20.1658 25.8735 20.1658C26.004 20.1658 25.92 20.1767 27.5688 19.8297C26.3394 22.2428 24.7394 24.4419 22.7963 26.3851C20.4149 28.7666 17.648 30.6337 14.5725 31.9344C14.0957 32.1362 13.8726 32.6862 14.0743 33.163C14.2761 33.6403 14.8264 33.8628 15.3029 33.6613C18.6019 32.266 21.569 30.264 24.122 27.7109C26.2029 25.6301 27.9174 23.2748 29.2354 20.6898L29.9096 22.0492Z" fill="#F94144"/>
</g>
<defs>
<clipPath id="clip0_670_816">
<rect width="32" height="32" fill="white" transform="translate(14 14)"/>
</clipPath>
</defs>
</svg>
