<svg width="60" height="60" viewBox="0 0 60 60" fill="none" xmlns="http://www.w3.org/2000/svg">
<rect width="60" height="60" rx="10" fill="#277DA1" fill-opacity="0.2"/>
<g clip-path="url(#clip0_206_244)">
<path d="M22.5 28.125C17.8476 28.125 14.0625 31.9101 14.0625 36.5625C14.0625 41.2149 17.8476 45 22.5 45C27.1524 45 30.9375 41.2149 30.9375 36.5625C30.9375 31.9101 27.1524 28.125 22.5 28.125ZM26.2254 35.5379L21.8504 39.9129C21.6674 40.0959 21.4274 40.1875 21.1875 40.1875C20.9476 40.1875 20.7076 40.0959 20.5246 39.9129L18.6496 38.0379C18.2835 37.6718 18.2835 37.0782 18.6496 36.7121C19.0157 36.346 19.6093 36.346 19.9754 36.7121L21.1875 37.9242L24.8996 34.2121C25.2657 33.846 25.8593 33.846 26.2254 34.2121C26.5915 34.5782 26.5915 35.1718 26.2254 35.5379Z" fill="#277DA1"/>
<path d="M38.75 21.125C38.2323 21.125 37.8125 20.7052 37.8125 20.1875V13H24.375C22.8242 13 21.5625 14.2617 21.5625 15.8125V26.2931C21.8714 26.2651 22.1839 26.25 22.5 26.25C25.6955 26.25 28.5561 27.711 30.4491 30H40.625C41.1427 30 41.5625 30.4198 41.5625 30.9375C41.5625 31.4552 41.1427 31.875 40.625 31.875H31.6842C32.2703 33.0185 32.6481 34.2853 32.7694 35.625H40.625C41.1427 35.625 41.5625 36.0448 41.5625 36.5625C41.5625 37.0802 41.1427 37.5 40.625 37.5H32.7694C32.4891 40.5962 30.8348 43.3016 28.4224 45H43.125C44.6758 45 45.9375 43.7383 45.9375 42.1875V21.125H38.75ZM40.625 26.25H26.875C26.3573 26.25 25.9375 25.8302 25.9375 25.3125C25.9375 24.7948 26.3573 24.375 26.875 24.375H40.625C41.1427 24.375 41.5625 24.7948 41.5625 25.3125C41.5625 25.8302 41.1427 26.25 40.625 26.25Z" fill="#277DA1"/>
<path d="M39.6875 13.5488V19.2499H45.3882L39.6875 13.5488Z" fill="#277DA1"/>
</g>
<defs>
<clipPath id="clip0_206_244">
<rect width="32" height="32" fill="white" transform="translate(14 13)"/>
</clipPath>
</defs>
</svg>
