<svg width="50" height="50" viewBox="0 0 50 50" fill="none" xmlns="http://www.w3.org/2000/svg">
<circle cx="25" cy="25" r="25" fill="#FA6900"/>
<g clip-path="url(#clip0_88_447)">
<path d="M24.9998 13.0957C20.3927 13.0957 16.6665 16.8219 16.6665 21.429C16.6665 27.679 24.9998 36.9052 24.9998 36.9052C24.9998 36.9052 33.3332 27.679 33.3332 21.429C33.3332 16.8219 29.607 13.0957 24.9998 13.0957ZM24.9998 24.4052C23.357 24.4052 22.0236 23.0719 22.0236 21.429C22.0236 19.7862 23.357 18.4528 24.9998 18.4528C26.6427 18.4528 27.976 19.7862 27.976 21.429C27.976 23.0719 26.6427 24.4052 24.9998 24.4052Z" fill="white"/>
</g>
<defs>
<clipPath id="clip0_88_447">
<rect width="28.5714" height="28.5714" fill="white" transform="translate(10.7144 10.7148)"/>
</clipPath>
</defs>
</svg>
