<svg width="100" height="100" viewBox="0 0 100 100" fill="none" xmlns="http://www.w3.org/2000/svg">
<circle cx="50" cy="50" r="50" fill="#85016B"/>
<g clip-path="url(#clip0_194_250)">
<path fill-rule="evenodd" clip-rule="evenodd" d="M62.8605 33.3512C64.1947 33.6535 65.439 34.1768 66.561 34.886L68.6366 32.8104C70.0931 33.8191 71.3605 35.0866 72.3691 36.543L70.2936 38.6186C71.0028 39.7406 71.5261 40.9849 71.8284 42.3162H74.7645C74.9186 43.1737 74.9999 44.0575 74.9999 44.9587C74.9999 45.8599 74.9186 46.7406 74.7645 47.5982H71.8284C71.5261 48.9296 71.0028 50.1768 70.2936 51.2959L72.3691 53.3715C71.3605 54.8308 70.093 56.0953 68.6366 57.1069L66.561 55.0313C65.439 55.7377 64.1947 56.2639 62.8605 56.5662V59.4993C62.0058 59.6562 61.1221 59.7348 60.2209 59.7348C59.3197 59.7348 58.439 59.6562 57.5813 59.4993V56.5663C56.2499 56.264 55.0028 55.7378 53.8808 55.0314L51.8081 57.107C50.3488 56.0954 49.0843 54.8309 48.0727 53.3716L50.1482 51.2989C49.4419 50.1769 48.9157 48.9298 48.6134 47.5983H45.6803C45.5233 46.7408 45.4448 45.86 45.4448 44.9588C45.4448 44.0576 45.5233 43.1739 45.6803 42.3163H48.6134C48.9157 40.985 49.4419 39.7407 50.1482 38.6187L48.0727 36.5431C49.0843 35.0867 50.3488 33.8192 51.8081 32.8105L53.8808 34.8861C55.0028 34.1769 56.2499 33.6536 57.5813 33.3513V30.4151C58.4389 30.261 59.3197 30.1797 60.2209 30.1797C61.1221 30.1797 62.0058 30.261 62.8605 30.4151V33.3512ZM60.2209 37.9384C64.0988 37.9384 67.2412 41.0809 67.2412 44.9587C67.2412 48.8337 64.0987 51.9762 60.2209 51.9762C56.3459 51.9762 53.2034 48.8337 53.2034 44.9587C53.2035 41.0809 56.3459 37.9384 60.2209 37.9384Z" fill="#A0B7D2"/>
<path fill-rule="evenodd" clip-rule="evenodd" d="M31.5464 42.1758H47.2033V57.8356H31.5464V42.1758Z" fill="#FFC06C"/>
<path fill-rule="evenodd" clip-rule="evenodd" d="M41.7005 48.8793V42.1758H37.0464V48.8793L39.3749 47.1031L41.7005 48.8793Z" fill="#FF5050"/>
<path fill-rule="evenodd" clip-rule="evenodd" d="M41.7006 48.8793V42.1758H39.375V47.1031L41.7006 48.8793Z" fill="#D63A3A"/>
<path fill-rule="evenodd" clip-rule="evenodd" d="M47.2036 42.1758H62.8605V57.8356H47.2036V42.1758Z" fill="#FFC06C"/>
<path fill-rule="evenodd" clip-rule="evenodd" d="M57.3606 48.8793V42.1758H52.7065V48.8793L55.0321 47.1031L57.3606 48.8793Z" fill="#FF5050"/>
<path fill-rule="evenodd" clip-rule="evenodd" d="M45.3081 42.1758H47.2034V57.8356H45.3081V42.1758Z" fill="#EDA558"/>
<path fill-rule="evenodd" clip-rule="evenodd" d="M57.3603 48.8793V42.1758H55.0317V47.1031L57.3603 48.8793Z" fill="#D63A3A"/>
<path fill-rule="evenodd" clip-rule="evenodd" d="M60.9683 42.1758H62.8607V57.8356H60.9683V42.1758Z" fill="#EDA558"/>
<path fill-rule="evenodd" clip-rule="evenodd" d="M30.9941 57.8359H63.4127C66.7092 57.8359 69.4068 60.5307 69.4068 63.8272C69.4068 67.1237 66.7092 69.8214 63.4127 69.8214H30.9941C27.6977 69.8214 25 67.1237 25 63.8272C25 60.5308 27.6977 57.8359 30.9941 57.8359Z" fill="#4A5470"/>
<path fill-rule="evenodd" clip-rule="evenodd" d="M30.186 59.1819H58.4477H62.6046C62.9883 59.1819 63.3633 59.2168 63.7296 59.2866C66.4941 59.8157 68.5987 62.2604 68.5987 65.1732C68.5987 66.0134 68.4243 66.8157 68.1074 67.5424C68.9214 66.5191 69.4068 65.2284 69.4068 63.8272C69.4068 60.6383 66.8807 58.0075 63.7295 57.8418C63.6248 57.8359 63.5202 57.8359 63.4126 57.8359H62.8603H60.9678H58.4475H47.2033H45.308H31.5465H30.9941C28.5378 57.8359 26.4128 59.333 25.4912 61.4609C26.5901 60.0744 28.2878 59.1819 30.186 59.1819Z" fill="#3E4864"/>
<path fill-rule="evenodd" clip-rule="evenodd" d="M41.0672 61.1191C42.5643 61.1191 43.7794 62.3313 43.7794 63.8284C43.7794 65.3255 42.5643 66.5406 41.0672 66.5406C39.5701 66.5406 38.3579 65.3255 38.3579 63.8284C38.3579 62.3313 39.57 61.1191 41.0672 61.1191Z" fill="#6E6E6E"/>
<path fill-rule="evenodd" clip-rule="evenodd" d="M51.91 61.1191C53.407 61.1191 54.6222 62.3313 54.6222 63.8284C54.6222 65.3255 53.407 66.5406 51.91 66.5406C50.4129 66.5406 49.2007 65.3255 49.2007 63.8284C49.2007 62.3313 50.4129 61.1191 51.91 61.1191Z" fill="#6E6E6E"/>
<path fill-rule="evenodd" clip-rule="evenodd" d="M30.6688 66.5406C32.1629 66.5406 33.381 65.3226 33.381 63.8284C33.381 62.3343 32.1629 61.1191 30.6688 61.1191C29.1746 61.1191 27.9565 62.3343 27.9565 63.8284C27.9565 65.3226 29.1745 66.5406 30.6688 66.5406Z" fill="#6E6E6E"/>
<path fill-rule="evenodd" clip-rule="evenodd" d="M62.2005 66.5406C63.6918 66.5406 64.9098 65.3226 64.9098 63.8284C64.9098 62.3343 63.6917 61.1191 62.2005 61.1191C60.7063 61.1191 59.4883 62.3343 59.4883 63.8284C59.4883 65.3226 60.7062 66.5406 62.2005 66.5406Z" fill="#6E6E6E"/>
<path fill-rule="evenodd" clip-rule="evenodd" d="M41.8372 61.1191C43.3343 61.1191 44.5465 62.3313 44.5465 63.8284C44.5465 65.3255 43.3343 66.5406 41.8372 66.5406C40.3401 66.5406 39.125 65.3255 39.125 63.8284C39.125 62.3313 40.3401 61.1191 41.8372 61.1191Z" fill="#F0F0FC"/>
<path fill-rule="evenodd" clip-rule="evenodd" d="M52.6805 61.1191C54.1775 61.1191 55.3927 62.3313 55.3927 63.8284C55.3927 65.3255 54.1775 66.5406 52.6805 66.5406C51.1834 66.5406 49.9683 65.3255 49.9683 63.8284C49.9683 62.3313 51.1833 61.1191 52.6805 61.1191Z" fill="#F0F0FC"/>
<path fill-rule="evenodd" clip-rule="evenodd" d="M31.4388 66.5406C32.9301 66.5406 34.148 65.3226 34.148 63.8284C34.148 62.3343 32.93 61.1191 31.4388 61.1191C29.9446 61.1191 28.7266 62.3343 28.7266 63.8284C28.7266 65.3226 29.9445 66.5406 31.4388 66.5406Z" fill="#F0F0FC"/>
<path fill-rule="evenodd" clip-rule="evenodd" d="M62.9681 66.5406C64.4622 66.5406 65.6803 65.3226 65.6803 63.8284C65.6803 62.3343 64.4622 61.1191 62.9681 61.1191C61.4768 61.1191 60.2588 62.3343 60.2588 63.8284C60.2588 65.3226 61.4768 66.5406 62.9681 66.5406Z" fill="#F0F0FC"/>
<path fill-rule="evenodd" clip-rule="evenodd" d="M31.4389 61.1191C32.9359 61.1191 34.1481 62.3313 34.1481 63.8284C34.1481 65.3255 32.9359 66.5406 31.4389 66.5406C31.308 66.5406 31.1802 66.5319 31.0522 66.5115C32.3691 66.3255 33.3808 65.1946 33.3808 63.8284C33.3808 62.4622 32.3691 61.3313 31.0522 61.1453C31.1802 61.1278 31.308 61.1191 31.4389 61.1191Z" fill="#D7D7E3"/>
<path fill-rule="evenodd" clip-rule="evenodd" d="M62.9682 61.1191C64.4652 61.1191 65.6804 62.3313 65.6804 63.8284C65.6804 65.3255 64.4652 66.5406 62.9682 66.5406C62.8373 66.5406 62.7095 66.5319 62.5845 66.5115C63.8984 66.3255 64.9101 65.1946 64.9101 63.8284C64.9101 62.4622 63.9014 61.3313 62.5845 61.1453C62.7094 61.1278 62.8373 61.1191 62.9682 61.1191Z" fill="#D7D7E3"/>
<path fill-rule="evenodd" clip-rule="evenodd" d="M41.8373 61.1191C43.3344 61.1191 44.5466 62.3313 44.5466 63.8284C44.5466 65.3255 43.3344 66.5406 41.8373 66.5406C41.7064 66.5406 41.5786 66.5319 41.4536 66.5115C42.7676 66.3255 43.7792 65.1946 43.7792 63.8284C43.7792 62.4622 42.7676 61.3313 41.4536 61.1453C41.5786 61.1278 41.7064 61.1191 41.8373 61.1191Z" fill="#D7D7E3"/>
<path fill-rule="evenodd" clip-rule="evenodd" d="M52.6801 61.1191C54.1772 61.1191 55.3923 62.3313 55.3923 63.8284C55.3923 65.3255 54.1772 66.5406 52.6801 66.5406C52.5492 66.5406 52.4214 66.5319 52.2964 66.5115C53.6104 66.3255 54.622 65.1946 54.622 63.8284C54.622 62.4622 53.6104 61.3313 52.2964 61.1453C52.4213 61.1278 52.5492 61.1191 52.6801 61.1191Z" fill="#D7D7E3"/>
<path fill-rule="evenodd" clip-rule="evenodd" d="M71.8283 47.5987H70.5027C70.2004 48.9301 69.6742 50.1772 68.9679 51.2964L71.0435 53.372C70.2121 54.5696 69.2092 55.6395 68.0696 56.5406L68.6365 57.1075C70.093 56.0959 71.3604 54.8313 72.369 53.3721L70.2935 51.2965C71.0027 50.1772 71.526 48.9302 71.8283 47.5987ZM61.5347 33.3517C62.866 33.654 64.1132 34.1772 65.2353 34.8865L65.7178 34.4011C64.8253 33.9359 63.8689 33.5784 62.8603 33.3517V30.4156C62.4271 30.3371 61.9823 30.279 61.5347 30.2383V33.3517ZM71.0435 36.5436L68.9679 38.6191C69.6742 39.7412 70.2004 40.9854 70.5027 42.3168H71.8283C71.526 40.9854 71.0027 39.7412 70.2935 38.6191L72.369 36.5436C71.3604 35.0872 70.0929 33.8197 68.6365 32.811L68.0696 33.375C69.2091 34.279 70.212 35.3458 71.0435 36.5436ZM74.7644 42.3168H73.4358C73.5928 43.1743 73.6713 44.0581 73.6713 44.9593C73.6713 45.8605 73.5928 46.7412 73.4358 47.5988H74.7644C74.9185 46.7413 74.9998 45.8605 74.9998 44.9593C74.9998 44.0581 74.9185 43.1743 74.7644 42.3168Z" fill="#587AA1"/>
</g>
<defs>
<clipPath id="clip0_194_250">
<rect width="50" height="50" fill="white" transform="translate(25 25)"/>
</clipPath>
</defs>
</svg>
