<svg width="70" height="70" viewBox="0 0 70 70" fill="none" xmlns="http://www.w3.org/2000/svg">
<circle cx="35" cy="35" r="35" fill="#85016B"/>
<g clip-path="url(#clip0_522_11300)">
<path d="M35.0046 50.4211L35.5867 49.1328C35.7425 48.7878 35.7316 48.3892 35.5518 48.056C34.913 46.8722 34.5482 45.5187 34.543 44.0803C34.5263 39.4234 38.3286 35.6031 42.9855 35.5986C47.6591 35.5942 51.4487 39.3838 51.4444 44.0574C51.4401 48.7143 47.6198 52.5166 42.9628 52.4999C41.5244 52.4948 40.1709 52.13 38.9871 51.4911C38.654 51.3113 38.2552 51.3004 37.9103 51.4562L36.622 52.0383C36.1586 52.2477 35.6139 52.1483 35.2543 51.7887C34.8946 51.4292 34.7952 50.8846 35.0046 50.4211Z" fill="#FFEE6E"/>
<path d="M40.881 44.0574C40.8777 40.5075 43.0635 37.4682 46.1627 36.2135C45.1816 35.8164 44.1092 35.5975 42.9855 35.5986C38.3286 35.6031 34.5263 39.4234 34.543 44.0803C34.5482 45.5187 34.913 46.8722 35.5519 48.056C35.7317 48.3892 35.7425 48.7879 35.5867 49.1328L35.0047 50.4211C34.7953 50.8845 34.8947 51.4292 35.2542 51.7888C35.6138 52.1484 36.1585 52.2478 36.6219 52.0384L37.9102 51.4563C38.2552 51.3004 38.6539 51.3114 38.987 51.4912C40.1708 52.1301 41.5244 52.4948 42.9628 52.5C44.093 52.504 45.1736 52.2826 46.1627 51.8791C43.0763 50.6201 40.8842 47.5841 40.881 44.0574Z" fill="#FFDA45"/>
<path d="M46.6892 45.3693V42.1123C46.6892 40.0704 45.0339 38.415 42.992 38.415C40.9501 38.415 39.2949 40.0703 39.2949 42.1123V45.3693C38.6142 45.3693 38.0625 45.9211 38.0625 46.6017C38.0625 47.2823 38.6142 47.8341 39.2949 47.8341H41.1435C41.1435 48.855 41.9711 49.6826 42.992 49.6826C44.013 49.6826 44.8406 48.855 44.8406 47.8341H46.6892C47.3698 47.8341 47.9216 47.2823 47.9216 46.6017C47.9216 45.9211 47.3698 45.3693 46.6892 45.3693Z" fill="#F5FAFC"/>
<path d="M41.7597 46.6017C41.7597 45.921 42.3114 45.3693 42.9921 45.3693V42.1123C42.9921 40.744 43.7359 39.5503 44.8407 38.9109C44.2967 38.5961 43.6657 38.415 42.9921 38.415C40.9502 38.415 39.2949 40.0703 39.2949 42.1123V45.3693C38.6142 45.3693 38.0625 45.921 38.0625 46.6017C38.0625 47.2823 38.6142 47.8341 39.2949 47.8341H41.1435C41.1435 48.855 41.9711 49.6826 42.992 49.6826C44.013 49.6826 44.8406 48.855 44.8406 47.8341H42.992C42.3115 47.8341 41.7597 47.2823 41.7597 46.6017Z" fill="#EAF7FE"/>
<path d="M36.6797 42.4336L36.0006 40.9306C35.8188 40.5281 35.8315 40.0629 36.0413 39.6742C36.7866 38.2931 37.2122 36.714 37.2182 35.0359C37.2377 29.6029 32.8018 25.1458 27.3686 25.1406C21.9162 25.1355 17.4949 29.5566 17.5 35.0092C17.5051 40.4423 21.9621 44.8784 27.3952 44.8589C29.0733 44.8529 30.6524 44.4273 32.0335 43.6819C32.4222 43.4722 32.8874 43.4594 33.2899 43.6413L34.7929 44.3204C35.3335 44.5647 35.969 44.4487 36.3885 44.0292C36.808 43.6097 36.924 42.9742 36.6797 42.4336Z" fill="#FF6F7D"/>
<path d="M23.1338 35.0092C23.1297 30.5415 26.0975 26.767 30.1692 25.5517C29.2807 25.2857 28.3408 25.1416 27.3688 25.1406C21.9162 25.1355 17.4949 29.5566 17.5 35.0092C17.5051 40.4423 21.9621 44.8784 27.3952 44.8589C28.3639 44.8554 29.2991 44.7114 30.1827 44.4476C26.1222 43.2312 23.1379 39.4542 23.1338 35.0092Z" fill="#FF5F6E"/>
<path d="M31.319 30.8294C29.1302 29.8566 27.3584 31.8368 27.3584 31.8368C27.3584 31.8368 25.5866 29.8566 23.3979 30.8294C21.2092 31.8021 21.2092 35.033 23.1547 37.187C24.5011 38.6776 25.9971 39.5858 26.7909 40.0039C27.1464 40.1912 27.5704 40.1912 27.9259 40.0039C28.7198 39.5858 30.2159 38.6776 31.5621 37.187C33.5077 35.0331 33.5077 31.8021 31.319 30.8294Z" fill="#F5FAFC"/>
<path d="M26.6932 35.3525C26.6932 34.1113 26.9291 32.9253 27.3586 31.8367C27.3586 31.8367 25.5866 29.8566 23.3979 30.8294C21.2092 31.8021 21.2092 35.0331 23.1547 37.1871C24.501 38.6776 25.9971 39.5859 26.7909 40.004C27.1387 40.1872 27.552 40.1906 27.9027 40.0153C27.1326 38.6351 26.6932 37.0453 26.6932 35.3525Z" fill="#EAF7FE"/>
<path d="M30.5804 37.2633L31.3564 35.5456C31.5643 35.0856 31.5497 34.554 31.31 34.1098C30.4583 32.5313 29.9718 30.7267 29.9649 28.8089C29.9426 22.5997 35.0123 17.5059 41.2215 17.5C47.453 17.4941 52.5059 22.5468 52.5001 28.7783C52.4943 34.9876 47.4005 40.0574 41.1913 40.0352C39.2734 40.0283 37.4687 39.5419 35.8902 38.69C35.446 38.4504 34.9145 38.4357 34.4545 38.6436L32.7368 39.4197C32.1189 39.6989 31.3927 39.5663 30.9132 39.0869C30.4337 38.6075 30.3012 37.8812 30.5804 37.2633Z" fill="#69A8FF"/>
<path d="M36.3029 28.7783C36.2981 23.6511 39.7182 19.3227 44.4015 17.9526C43.3928 17.6575 42.3258 17.499 41.2215 17.5C35.0123 17.5059 29.9426 22.5997 29.9649 28.8089C29.9718 30.7267 30.4582 32.5313 31.31 34.1098C31.5497 34.554 31.5643 35.0856 31.3564 35.5456L30.5804 37.2633C30.3012 37.8812 30.4337 38.6074 30.9131 39.0869C31.3926 39.5663 32.1188 39.6988 32.7367 39.4196L34.4544 38.6436C34.9144 38.4357 35.446 38.4503 35.8902 38.69C37.4687 39.5418 39.2733 40.0282 41.1912 40.0351C42.3049 40.039 43.3824 39.8785 44.4014 39.5776C39.7392 38.2013 36.3076 33.8739 36.3029 28.7783Z" fill="#549CFF"/>
<path d="M48.6867 27.6146C48.6867 26.302 47.6226 25.2378 46.3099 25.2378H43.9654L45.2649 23.3627C45.5698 22.9227 45.5524 22.322 45.1931 21.9252C44.7657 21.4533 44.0467 21.4246 43.584 21.8422C43.584 21.8422 40.7697 24.3818 39.3606 25.6533C38.8612 26.104 38.5762 26.7451 38.5762 27.4178V31.8481C38.5762 33.1607 39.6403 34.2249 40.953 34.2249H46.31C47.6226 34.2249 48.6868 33.1608 48.6868 31.8481V27.6146H48.6867Z" fill="#F5FAFC"/>
<path d="M43.9654 25.2387L45.2649 23.3636C45.5698 22.9236 45.5524 22.3229 45.1931 21.9262C44.7657 21.4543 44.0467 21.4256 43.584 21.8432C43.584 21.8432 40.7697 24.3827 39.3606 25.6543C38.8612 26.105 38.5762 26.7461 38.5762 27.4188V31.8491C38.5762 33.1617 39.6403 34.2259 40.953 34.2259H43.9654C42.6528 34.2258 41.5887 33.1617 41.5887 31.8491V27.6155C41.5886 26.3028 42.6527 25.2387 43.9654 25.2387Z" fill="#EAF7FE"/>
<path d="M36.0237 34.2258H37.9603C38.7382 34.2258 39.3688 33.5952 39.3688 32.8174V26.1272C39.3688 25.3494 38.7382 24.7188 37.9603 24.7188H36.0237C35.2458 24.7188 34.6152 25.3494 34.6152 26.1272V32.8174C34.6152 33.5952 35.2458 34.2258 36.0237 34.2258Z" fill="#F5FAFC"/>
</g>
<defs>
<clipPath id="clip0_522_11300">
<rect width="35" height="35" fill="white" transform="translate(17.5 17.5)"/>
</clipPath>
</defs>
</svg>
