<svg width="70" height="70" viewBox="0 0 70 70" fill="none" xmlns="http://www.w3.org/2000/svg">
<circle cx="35" cy="35" r="35" fill="#277DA1"/>
<g clip-path="url(#clip0_522_11479)">
<path fill-rule="evenodd" clip-rule="evenodd" d="M28.4522 43.9713C29.488 44.5859 30.6195 45.0594 31.8173 45.3644V46.7348C31.8173 47.388 32.3534 47.923 33.0082 47.923H34.9999C34.9999 35.9835 34.9999 29.9102 34.9999 17.9707H33.0082C32.3534 17.9707 31.8173 18.5056 31.8173 19.159V20.5294C30.6195 20.8344 29.4879 21.3079 28.4522 21.9225L27.4803 20.9527C27.0172 20.4884 26.2575 20.4884 25.7943 20.9527L22.979 23.7618C22.5159 24.2239 22.5159 24.9797 22.979 25.4417L23.9509 26.4137C23.3348 27.4472 22.8603 28.5763 22.5546 29.7714H21.1812C20.5264 29.7714 19.9902 30.3063 19.9902 30.9597V34.9342C19.9902 35.5875 20.5264 36.1225 21.1812 36.1225H22.5569C22.8626 37.3176 23.3348 38.4444 23.9509 39.4802L22.979 40.4499C22.5159 40.912 22.5159 41.6701 22.979 42.1322L25.7943 44.9412C26.2574 45.4034 27.0171 45.4034 27.4803 44.9412L28.4522 43.9713Z" fill="#A8A8A8"/>
<path fill-rule="evenodd" clip-rule="evenodd" d="M34.998 47.923C43.2887 47.923 50.0076 41.2169 50.0076 32.9469C50.0076 24.6746 43.2887 17.9707 34.998 17.9707V47.923Z" fill="#6BD9E7"/>
<path fill-rule="evenodd" clip-rule="evenodd" d="M34.998 17.9707C38.5115 17.9707 41.6165 20.5066 43.485 24.3855C44.5436 24.0304 45.5063 23.6137 46.3459 23.1426C43.5945 19.9739 39.5312 17.9707 34.998 17.9707Z" fill="#00C7DD"/>
<path fill-rule="evenodd" clip-rule="evenodd" d="M45.3412 32.9469H50.009C50.009 29.1977 48.6287 25.7695 46.3473 23.1426C45.5077 23.6137 44.5449 24.0304 43.4863 24.3855C44.6567 26.8121 45.3412 29.7623 45.3412 32.9469Z" fill="#00C7DD"/>
<path fill-rule="evenodd" clip-rule="evenodd" d="M43.4863 41.5087C44.5449 41.8615 45.5077 42.2804 46.3473 42.7493C48.6287 40.1223 50.009 36.6965 50.009 32.9473H45.3412C45.3412 36.1297 44.6567 39.0821 43.4863 41.5087Z" fill="#00C7DD"/>
<path fill-rule="evenodd" clip-rule="evenodd" d="M34.998 47.9236C39.5312 47.9236 43.5945 45.9181 46.3459 42.7494C45.5063 42.2805 44.5435 41.8616 43.4849 41.5088C41.6165 45.3854 38.5115 47.9236 34.998 47.9236Z" fill="#00C7DD"/>
<path fill-rule="evenodd" clip-rule="evenodd" d="M31.8165 26.3864C32.7792 25.922 33.8584 25.6602 34.9991 25.6602V17.9707H33.0073C32.3526 17.9707 31.8164 18.5056 31.8164 19.159V20.5294V26.3864H31.8165Z" fill="#868686"/>
<path fill-rule="evenodd" clip-rule="evenodd" d="M33.0073 47.9229H34.999V40.2333C33.8583 40.2333 32.7791 39.9715 31.8164 39.5049V45.3643V46.7346C31.8163 47.3879 32.3525 47.9229 33.0073 47.9229Z" fill="#868686"/>
<path fill-rule="evenodd" clip-rule="evenodd" d="M27.6953 32.9468C27.6953 36.9714 30.9646 40.2334 34.9982 40.2334V32.9468V25.6602C30.9646 25.6602 27.6953 28.9223 27.6953 32.9468Z" fill="#E8EAEA"/>
<path fill-rule="evenodd" clip-rule="evenodd" d="M27.6953 32.9468C27.6953 36.9714 30.9646 40.2334 34.9982 40.2334V32.9468V25.6602C30.9646 25.6602 27.6953 28.9223 27.6953 32.9468Z" fill="#E8EAEA"/>
<path fill-rule="evenodd" clip-rule="evenodd" d="M34.999 40.2334V32.9468V25.6602C33.8583 25.6602 32.7791 25.922 31.8164 26.3863V39.505C32.7792 39.9717 33.8583 40.2334 34.999 40.2334Z" fill="#D4D6D8"/>
<path d="M46.8615 22.8301C46.8245 22.769 46.7784 22.7166 46.7256 22.6738C43.862 19.4228 39.6664 17.3672 34.9981 17.3672C34.6648 17.3672 34.3945 17.6374 34.3945 17.9708V47.9231C34.3945 48.2565 34.6648 48.5267 34.9981 48.5267C37.0733 48.5267 38.9838 46.8434 40.3777 43.7867C40.6998 43.0804 40.9865 42.3179 41.2363 41.5102C43.0603 41.925 44.7052 42.5218 46.0509 43.2756C46.1442 43.3279 46.2455 43.3527 46.3454 43.3527C46.5567 43.3527 46.762 43.2415 46.8725 43.044C47.0355 42.7531 46.9318 42.3853 46.6409 42.2223C45.2134 41.4228 43.4785 40.7893 41.5619 40.3484C42.0863 38.2766 42.3838 35.9614 42.4265 33.5506H49.3897C49.2978 35.7282 48.7123 37.8669 47.6794 39.7705C47.5204 40.0635 47.629 40.4299 47.922 40.5889C48.0135 40.6386 48.1122 40.6621 48.2094 40.6621C48.4236 40.6621 48.6311 40.5478 48.7405 40.3462C49.9644 38.0907 50.6113 35.5321 50.6113 32.947C50.6113 29.0888 49.1979 25.5541 46.8615 22.8301ZM35.6016 26.2575C37.2455 26.226 38.8527 26.0664 40.3686 25.7906C40.8686 27.7466 41.1743 29.9818 41.2191 32.3433H35.6016V26.2575ZM41.5677 25.5438C43.2858 25.1479 44.8566 24.5967 46.191 23.91C48.0804 26.2345 49.2584 29.1563 49.3911 32.3434H42.4268C42.3841 29.8745 42.0792 27.5698 41.5677 25.5438ZM45.362 22.9755C44.16 23.5615 42.7638 24.0355 41.2418 24.3822C40.5256 22.0645 39.5223 20.1888 38.3282 18.9628C41.0524 19.6084 43.4791 21.0286 45.362 22.9755ZM40.0378 24.6257C38.6283 24.8751 37.1332 25.0198 35.6016 25.0502V18.6448C37.404 19.0669 39.0085 21.3513 40.0378 24.6257ZM35.6016 47.2491V40.8438C37.133 40.8741 38.628 41.0188 40.0378 41.2681C39.0086 44.5426 37.404 46.8271 35.6016 47.2491ZM40.3687 40.1031C38.8527 39.8275 37.2454 39.668 35.6017 39.6365V33.5506H41.2191C41.1743 35.912 40.8687 38.1472 40.3687 40.1031Z" fill="#E8EAEA"/>
<path fill-rule="evenodd" clip-rule="evenodd" d="M26.2612 43.9461C25.3897 41.5992 23.1196 39.917 20.4755 39.917C18.3652 39.917 16.4944 40.9892 15.3833 42.6145C14.2152 44.3195 16.0609 43.9917 16.3688 43.9917H20.0739C21.3675 43.9917 22.4375 45.0046 22.5219 46.2749C22.4375 47.5474 21.3675 48.5604 20.0739 48.5604H16.3688C16.0609 48.5604 14.2152 48.2303 15.3833 49.9353C16.4944 51.5606 18.3651 52.6328 20.4755 52.6328C23.1196 52.6328 25.3897 50.9505 26.2612 48.6059H43.737C44.6108 50.9506 46.8785 52.6328 49.5227 52.6328C51.633 52.6328 53.5038 51.5606 54.6171 49.9353C55.7852 48.2303 53.9373 48.5604 53.6292 48.5604H49.9265C48.6306 48.5604 47.5629 47.5474 47.4763 46.2749C47.563 45.0046 48.6306 43.9917 49.9265 43.9917H53.6292C53.9372 43.9917 55.7852 44.3195 54.6171 42.6145C53.5038 40.9892 51.633 39.917 49.5227 39.917C46.8785 39.917 44.6107 41.5993 43.737 43.9461H26.2612Z" fill="#C1EAF4"/>
<path fill-rule="evenodd" clip-rule="evenodd" d="M51.2039 49.799C48.7878 49.799 46.6843 49.0933 45.676 47.1812C45.2585 46.3912 45.1216 46.6098 44.0995 46.6098H26.2746C25.6496 46.6098 25.4967 46.4937 25.2525 47.0058C24.2807 49.05 22.1247 49.799 19.6357 49.799C18.2349 49.799 16.9413 49.3278 15.9032 48.5356C15.31 48.5242 14.5161 48.6699 15.3831 49.9355C16.4942 51.5608 18.3649 52.633 20.4753 52.633C23.1194 52.633 25.3895 50.9508 26.261 48.6062H43.7368C44.6106 50.9509 46.8783 52.633 49.5225 52.633C51.6328 52.633 53.5036 51.5608 54.6169 49.9355C55.1417 49.1684 55.0572 48.8133 54.7766 48.654C53.7659 49.3733 52.5316 49.799 51.2039 49.799Z" fill="#99CFE0"/>
</g>
<defs>
<clipPath id="clip0_522_11479">
<rect width="40" height="40" fill="white" transform="translate(15 15)"/>
</clipPath>
</defs>
</svg>
