<svg width="100" height="100" viewBox="0 0 100 100" fill="none" xmlns="http://www.w3.org/2000/svg">
<circle cx="50" cy="50" r="50" fill="#739B54"/>
<path d="M39.0625 59.375H32.8125C31.9496 59.375 31.25 60.0746 31.25 60.9375V70.3125C31.25 71.1754 31.9496 71.875 32.8125 71.875H39.0625C39.9254 71.875 40.625 71.1754 40.625 70.3125V60.9375C40.625 60.0746 39.9254 59.375 39.0625 59.375Z" fill="#094365"/>
<path d="M66.4062 58.5938C66.0984 58.5934 65.7936 58.6539 65.5092 58.7718C65.2249 58.8896 64.9666 59.0625 64.7492 59.2805L58.4039 65.625H57.0312C57.6529 65.625 58.249 65.3781 58.6885 64.9385C59.1281 64.499 59.375 63.9029 59.375 63.2812C59.375 62.6596 59.1281 62.0635 58.6885 61.624C58.249 61.1844 57.6529 60.9375 57.0312 60.9375H53.125L51.8305 59.643C51.2501 59.0626 50.5611 58.6023 49.8028 58.2882C49.0445 57.9741 48.2317 57.8125 47.4109 57.8125H46.3391C45.5183 57.8125 44.7055 57.9741 43.9472 58.2882C43.1889 58.6023 42.4999 59.0626 41.9195 59.643L40.625 60.9375V70.3125H59.375C59.6829 70.3129 59.9879 70.2525 60.2725 70.1346C60.557 70.0168 60.8154 69.8438 61.0328 69.6258L68.0641 62.5945C68.3918 62.2667 68.6149 61.8491 68.7053 61.3944C68.7957 60.9398 68.7492 60.4685 68.5718 60.0403C68.3943 59.6121 68.0939 59.2461 67.7084 58.9886C67.3229 58.7311 66.8698 58.5937 66.4062 58.5938Z" fill="#F0C8A0"/>
<path d="M50 65.6258V66.407H57.0312C57.5264 66.4059 58.0084 66.2474 58.4076 65.9545C58.8068 65.6615 59.1026 65.2493 59.2523 64.7773L58.4039 65.6258H50Z" fill="#D2AA82"/>
<path d="M35.9375 69.5312C36.8004 69.5312 37.5 68.8317 37.5 67.9688C37.5 67.1058 36.8004 66.4062 35.9375 66.4062C35.0746 66.4062 34.375 67.1058 34.375 67.9688C34.375 68.8317 35.0746 69.5312 35.9375 69.5312Z" fill="#F0F0F0"/>
<path d="M64.0625 53.125H35.9375C35.0746 53.125 34.375 53.8246 34.375 54.6875C34.375 55.5504 35.0746 56.25 35.9375 56.25H64.0625C64.9254 56.25 65.625 55.5504 65.625 54.6875C65.625 53.8246 64.9254 53.125 64.0625 53.125Z" fill="#094365"/>
<path d="M37.5 51.5625H62.5C62.9144 51.5625 63.3118 51.7271 63.6049 52.0201C63.8979 52.3132 64.0625 52.7106 64.0625 53.125H35.9375C35.9375 52.7106 36.1021 52.3132 36.3951 52.0201C36.6882 51.7271 37.0856 51.5625 37.5 51.5625Z" fill="#0A5078"/>
<path d="M62.5 48.4375H37.5C36.6371 48.4375 35.9375 49.1371 35.9375 50C35.9375 50.8629 36.6371 51.5625 37.5 51.5625H62.5C63.3629 51.5625 64.0625 50.8629 64.0625 50C64.0625 49.1371 63.3629 48.4375 62.5 48.4375Z" fill="#FAB400"/>
<path d="M46.875 35.9375H53.125C55.6114 35.9375 57.996 36.9252 59.7541 38.6834C61.5123 40.4415 62.5 42.8261 62.5 45.3125V48.4375H37.5V45.3125C37.5 42.8261 38.4877 40.4415 40.2459 38.6834C42.004 36.9252 44.3886 35.9375 46.875 35.9375Z" fill="#FAB400"/>
<path d="M51.5625 32.8125H48.4375C47.5746 32.8125 46.875 33.5121 46.875 34.375C46.875 35.2379 47.5746 35.9375 48.4375 35.9375H51.5625C52.4254 35.9375 53.125 35.2379 53.125 34.375C53.125 33.5121 52.4254 32.8125 51.5625 32.8125Z" fill="#FAB400"/>
<path d="M52.9157 35.9375H47.0845C47.2216 36.175 47.4188 36.3723 47.6564 36.5094C47.8939 36.6465 48.1633 36.7187 48.4376 36.7188H51.5626C51.8369 36.7187 52.1063 36.6465 52.3438 36.5094C52.5813 36.3723 52.7786 36.175 52.9157 35.9375Z" fill="#DC9600"/>
<path d="M48.4375 29.6875H51.5625V32.8125H48.4375V29.6875Z" fill="#C80A50"/>
<path d="M53.9062 28.125H46.0938C45.6623 28.125 45.3125 28.4748 45.3125 28.9062C45.3125 29.3377 45.6623 29.6875 46.0938 29.6875H53.9062C54.3377 29.6875 54.6875 29.3377 54.6875 28.9062C54.6875 28.4748 54.3377 28.125 53.9062 28.125Z" fill="#C80A50"/>
<path d="M37.5 47.6562H62.5V48.4375H37.5V47.6562Z" fill="#DC9600"/>
<path d="M36.147 52.3438H63.8532C63.7161 52.1062 63.5188 51.909 63.2813 51.7718C63.0438 51.6347 62.7744 51.5625 62.5001 51.5625H37.5001C37.2258 51.5625 36.9564 51.6347 36.7189 51.7718C36.4813 51.909 36.2841 52.1062 36.147 52.3438Z" fill="#00325A"/>
<path d="M48.4375 29.6875H51.5625V30.4688H48.4375V29.6875Z" fill="#A00028"/>
</svg>
