<svg width="48" height="40" viewBox="0 0 48 40" fill="none" xmlns="http://www.w3.org/2000/svg">
<path d="M25.4548 16.3636V5.45454C25.4548 3.93939 25.9851 2.65151 27.0457 1.59091C28.1063 0.5303 29.3942 0 30.9093 0H41.8184C43.3336 0 44.6214 0.5303 45.682 1.59091C46.7426 2.65151 47.2729 3.93939 47.2729 5.45454L47.2729 25.4545C47.2729 27.4242 46.8894 29.304 46.1224 31.0938C45.3553 32.8835 44.3184 34.4318 43.0116 35.7386C41.7048 37.0455 40.1565 38.0824 38.3667 38.8494C36.5769 39.6165 34.6972 40 32.7275 40H30.9093C30.4169 40 29.9908 39.8201 29.6309 39.4602C29.2711 39.1004 29.0911 38.6742 29.0911 38.1818V34.5455C29.0911 34.053 29.2711 33.6269 29.6309 33.267C29.9908 32.9072 30.4169 32.7273 30.9093 32.7273H32.7275C34.7351 32.7273 36.4491 32.017 37.8695 30.5966C39.29 29.1761 40.0002 27.4621 40.0002 25.4545V24.5455C40.0002 23.7879 39.7351 23.1439 39.2048 22.6136C38.6745 22.0833 38.0305 21.8182 37.2729 21.8182L30.9093 21.8182C29.3942 21.8182 28.1063 21.2879 27.0457 20.2273C25.9851 19.1667 25.4548 17.8788 25.4548 16.3636ZM0.000225067 16.3636L0.000225067 5.45454C0.000225067 3.93939 0.530525 2.65151 1.59113 1.59091C2.65174 0.5303 3.93962 0 5.45477 0H16.3639C17.879 0 19.1669 0.5303 20.2275 1.59091C21.2881 2.65151 21.8184 3.93939 21.8184 5.45454V25.4545C21.8184 27.4242 21.4349 29.304 20.6678 31.0937C19.9008 32.8835 18.8639 34.4318 17.557 35.7386C16.2502 37.0455 14.7019 38.0824 12.9122 38.8494C11.1224 39.6165 9.24265 40 7.27295 40H5.45477C4.96235 40 4.53621 39.8201 4.17636 39.4602C3.81651 39.1004 3.63659 38.6742 3.63659 38.1818V34.5455C3.63659 34.053 3.81651 33.6269 4.17636 33.267C4.53621 32.9072 4.96235 32.7273 5.45477 32.7273H7.27295C9.28053 32.7273 10.9945 32.017 12.415 30.5966C13.8354 29.1761 14.5457 27.4621 14.5457 25.4545V24.5455C14.5457 23.7879 14.2805 23.1439 13.7502 22.6136C13.2199 22.0833 12.576 21.8182 11.8184 21.8182H5.45477C3.93962 21.8182 2.65174 21.2879 1.59113 20.2273C0.530525 19.1667 0.000225067 17.8788 0.000225067 16.3636Z" fill="#FA6900"/>
</svg>
