<svg width="70" height="70" viewBox="0 0 70 70" fill="none" xmlns="http://www.w3.org/2000/svg">
<circle cx="35" cy="35" r="35" fill="#84AF63"/>
<g clip-path="url(#clip0_522_11514)">
<path d="M23.2289 41.1733L28.7148 46.6592L43.8159 31.5581L38.33 26.0722L23.2289 41.1733Z" fill="#334A5E"/>
<path d="M54.4901 21.2537L49.9018 25.8421L44.0621 20.0024L48.6504 15.414C45.6472 14.4964 42.2268 15.1638 39.8075 17.583C36.3871 21.0034 36.3871 26.5928 39.8075 30.0966C43.2278 33.517 48.8172 33.517 52.321 30.0966C54.6569 27.6773 55.4078 24.257 54.4901 21.2537Z" fill="#40596B"/>
<path d="M28.2942 41.6089C25.291 38.6056 20.369 38.6056 17.3657 41.6089C14.3625 44.6122 14.3625 49.5341 17.3657 52.5374C20.369 55.5407 25.291 55.5407 28.2942 52.5374C31.2975 49.5341 31.2975 44.6122 28.2942 41.6089ZM23.8727 51.0358L19.9518 49.9513L18.8673 46.0304L21.7037 43.194L25.6246 44.2785L26.7092 48.1994L23.8727 51.0358Z" fill="#40596B"/>
<path d="M18.7838 17.249L17.1152 18.9175L19.5346 22.5881L21.0362 23.6726L37.2204 39.8569L39.7231 37.2708L23.5389 21.1699L22.4544 19.6683L18.7838 17.249Z" fill="#CDD6E0"/>
<path d="M53.5715 53.7058C51.8196 55.4577 48.9831 55.4577 47.3147 53.7058L36.3027 42.7773L42.5595 36.5205L53.5715 47.5325C55.3234 49.2009 55.3234 51.9539 53.5715 53.7058Z" fill="#FFD15C"/>
<path d="M44.229 36.9371L36.8043 44.3618C36.2203 44.9458 35.2192 44.9458 34.6353 44.3618C34.0513 43.7778 34.0513 42.7767 34.6353 42.1928L42.06 34.7681C42.644 34.1841 43.645 34.1841 44.229 34.7681C44.813 35.352 44.813 36.3531 44.229 36.9371Z" fill="#FF7058"/>
<path d="M52.2642 48.9283L44.3008 40.9648L43.298 41.9676L51.2615 49.9311L52.2642 48.9283Z" fill="#F8B64C"/>
<path d="M49.7545 51.3473L41.791 43.3838L40.7882 44.3866L48.7517 52.3501L49.7545 51.3473Z" fill="#F8B64C"/>
</g>
<defs>
<clipPath id="clip0_522_11514">
<rect width="40" height="40" fill="white" transform="translate(15 15.0195)"/>
</clipPath>
</defs>
</svg>
