<svg width="100" height="100" viewBox="0 0 100 100" fill="none" xmlns="http://www.w3.org/2000/svg">
<circle cx="50" cy="50" r="50" fill="#F9C74F"/>
<g clip-path="url(#clip0_194_248)">
<path d="M30.5466 36.6521L27.5711 63.9283C27.2267 67.0858 29.6997 69.843 32.8755 69.843H58.6483C61.8244 69.843 64.2971 67.0858 63.9526 63.9283L60.9772 36.6521C60.8563 35.5451 59.9217 34.707 58.8085 34.707H32.7156C31.6021 34.707 30.6675 35.5451 30.5466 36.6521Z" fill="#5EAC24"/>
<path d="M63.9528 63.9283L60.9774 36.6521C60.8564 35.5451 59.9218 34.707 58.8087 34.707H56.2803C57.3935 34.707 58.3281 35.5451 58.449 36.6521L61.4244 63.9283C61.7689 67.0858 59.2962 69.843 56.1201 69.843H58.6485C61.8246 69.843 64.2973 67.0858 63.9528 63.9283Z" fill="#458118"/>
<path d="M27.54 64.5527C27.5599 67.4401 29.9109 69.8426 32.8753 69.8426H58.6481C61.6125 69.8426 63.9635 67.4401 63.9837 64.5527H27.54Z" fill="#A3DD78"/>
<path d="M61.4557 64.5527C61.4355 67.4401 59.0845 69.8426 56.1201 69.8426H58.6485H58.6515C58.7465 69.8426 58.8408 69.8395 58.9346 69.8349C58.9666 69.833 58.9983 69.83 59.03 69.8277C59.0925 69.8231 59.1547 69.8189 59.2165 69.8124C59.2543 69.8082 59.2913 69.8029 59.3287 69.7979C59.384 69.7911 59.4393 69.7842 59.4938 69.7754C59.5335 69.7693 59.5724 69.7617 59.6117 69.7545C59.6636 69.7449 59.7151 69.7358 59.7662 69.7247C59.8063 69.7163 59.8463 69.7068 59.886 69.6972C59.9356 69.6854 59.9848 69.6736 60.0336 69.6606C60.0737 69.6499 60.1133 69.6381 60.153 69.6263C60.2007 69.6125 60.248 69.5984 60.2949 69.5832C60.335 69.5702 60.3746 69.5565 60.4143 69.5427C60.4597 69.5267 60.5051 69.5103 60.5501 69.4931C60.5898 69.4779 60.6291 69.4622 60.6684 69.4462C60.7122 69.4283 60.7557 69.41 60.7988 69.3909C60.8381 69.3734 60.877 69.3562 60.9156 69.3379C60.9579 69.318 60.9995 69.2975 61.0411 69.2765C61.0796 69.257 61.1181 69.2376 61.1563 69.2173C61.1963 69.196 61.236 69.1735 61.2757 69.151C61.3134 69.1296 61.3516 69.1082 61.389 69.0857C61.4271 69.0625 61.4649 69.0388 61.5023 69.0148C61.5397 68.9911 61.5774 68.9675 61.6144 68.9427C61.6499 68.919 61.6846 68.8939 61.7197 68.8691C61.7575 68.8427 61.7952 68.8168 61.8319 68.7893C61.8639 68.7653 61.8944 68.7405 61.9261 68.7157C61.9646 68.686 62.0031 68.6566 62.0405 68.6257C62.0611 68.6085 62.081 68.5906 62.1012 68.573C62.2034 68.4861 62.303 68.396 62.3983 68.3014C62.4056 68.2942 62.4136 68.2873 62.4212 68.2797C62.4632 68.2377 62.5036 68.1939 62.5441 68.1504C62.5635 68.1302 62.583 68.1103 62.6017 68.0893C62.6398 68.0474 62.6764 68.0043 62.7131 67.9612C62.7329 67.9375 62.7535 67.9146 62.7729 67.891C62.8084 67.8475 62.8424 67.8032 62.8767 67.759C62.8958 67.7342 62.9152 67.7094 62.9339 67.6846C62.9671 67.6396 62.9992 67.5938 63.0312 67.548C63.0491 67.5221 63.0671 67.4965 63.0846 67.4702C63.1159 67.4237 63.146 67.3764 63.1758 67.3287C63.1922 67.3024 63.2086 67.276 63.2246 67.2493C63.254 67.2009 63.2822 67.1513 63.3101 67.1017C63.3245 67.0754 63.3394 67.0487 63.3535 67.022C63.381 66.9713 63.4073 66.9198 63.4333 66.8679C63.4462 66.8419 63.4588 66.8152 63.4714 66.7889C63.4966 66.7355 63.5214 66.6817 63.5447 66.6275C63.5557 66.6024 63.5664 66.5764 63.5771 66.5509C63.6003 66.4948 63.6232 66.4383 63.6446 66.3811C63.6538 66.3575 63.6621 66.3334 63.6705 66.3094C63.6923 66.2495 63.7133 66.1896 63.7323 66.129C63.7392 66.1084 63.7449 66.087 63.7514 66.066C63.7712 66.0016 63.7903 65.9371 63.8079 65.8715C63.8117 65.8566 63.8151 65.8417 63.8189 65.8265C63.8372 65.7544 63.8548 65.6823 63.87 65.6094C63.87 65.609 63.8704 65.609 63.8704 65.6086C63.9421 65.2668 63.9811 64.9136 63.9837 64.5527H61.4557Z" fill="#ED5176"/>
<path d="M72.4371 60.0838L72.0907 51.5374C72.0415 50.3277 71.0722 49.3584 69.8625 49.3092L61.3161 48.9629C60.6676 48.9365 60.0374 49.1826 59.5785 49.6415L47.1407 62.0793C46.1523 63.0677 46.1523 64.6706 47.1407 65.659L55.7405 74.2588C56.7293 75.2476 58.3319 75.2476 59.3203 74.2588L71.7584 61.821C72.2174 61.3621 72.4634 60.7323 72.4371 60.0838ZM66.2451 55.1549C65.6233 54.5331 65.6233 53.5252 66.2451 52.9034C66.8665 52.282 67.8743 52.282 68.4961 52.9034C69.1179 53.5252 69.1179 54.5331 68.4961 55.1549C67.8743 55.7767 66.8665 55.7767 66.2451 55.1549Z" fill="#ED1C24"/>
<path d="M72.437 60.0834L72.0906 51.537C72.0567 50.6977 71.5787 49.9745 70.8856 49.5938C71.0206 49.8665 71.0908 50.182 71.079 50.5253L70.8009 58.4473C70.7799 59.0485 70.5068 59.6516 70.0479 60.1105L57.6101 72.5483C56.6217 73.5367 55.1313 73.6496 54.2817 72.7997L55.7409 74.2588C56.7292 75.2472 58.3318 75.2472 59.3206 74.2588L71.7584 61.821C72.2173 61.3617 72.4633 60.7319 72.437 60.0834Z" fill="#D80027"/>
<path d="M52.8986 38.665C52.5 38.665 52.1769 38.3419 52.1769 37.9433V32.8583C52.1769 29.3213 49.2991 26.4439 45.7621 26.4439C42.2251 26.4439 39.3473 29.3213 39.3473 32.8583V37.9433C39.3473 38.3419 39.0242 38.665 38.6255 38.665C38.2269 38.665 37.9038 38.3419 37.9038 37.9433V32.8583C37.9038 28.5252 41.429 25 45.7621 25C50.0952 25 53.6203 28.5252 53.6203 32.8583V37.9433C53.6203 38.3419 53.2972 38.665 52.8986 38.665Z" fill="#252D4C"/>
<path d="M57.1123 60.9239C55.6998 60.9239 54.5508 59.7749 54.5508 58.3623C54.5508 56.9501 55.6998 55.8008 57.1123 55.8008C58.5245 55.8008 59.6739 56.9501 59.6739 58.3623C59.6739 59.7749 58.5249 60.9239 57.1123 60.9239ZM57.1123 57.2446C56.4959 57.2446 55.9943 57.7459 55.9943 58.3623C55.9943 58.9788 56.4959 59.4804 57.1123 59.4804C57.7288 59.4804 58.2301 58.9788 58.2301 58.3623C58.2301 57.7459 57.7288 57.2446 57.1123 57.2446Z" fill="white"/>
<path d="M61.726 68.1583C60.3134 68.1583 59.1641 67.0093 59.1641 65.5967C59.1641 64.1845 60.3134 63.0352 61.726 63.0352C63.1382 63.0352 64.2876 64.1845 64.2876 65.5967C64.2876 67.0093 63.1382 68.1583 61.726 68.1583ZM61.726 64.479C61.1096 64.479 60.6079 64.9807 60.6079 65.5971C60.6079 66.2132 61.1096 66.7148 61.726 66.7148C62.3425 66.7148 62.8437 66.2132 62.8437 65.5971C62.8437 64.9803 62.3425 64.479 61.726 64.479Z" fill="white"/>
<path d="M55.6271 66.4944C55.4425 66.4944 55.2575 66.4238 55.1167 66.2826C54.8348 66.0011 54.8348 65.5437 55.1167 65.2618L62.7003 57.6782C62.9822 57.3963 63.4392 57.3963 63.7211 57.6782C64.003 57.9601 64.003 58.4171 63.7211 58.699L56.1375 66.2826C55.9968 66.4238 55.8117 66.4944 55.6271 66.4944Z" fill="white"/>
</g>
<defs>
<clipPath id="clip0_194_248">
<rect width="50" height="50" fill="white" transform="translate(25 25)"/>
</clipPath>
</defs>
</svg>
