<svg width="70" height="70" viewBox="0 0 70 70" fill="none" xmlns="http://www.w3.org/2000/svg">
<circle cx="35" cy="35" r="35" fill="#FF9C55"/>
<g clip-path="url(#clip0_522_11258)">
<path d="M44.0332 32.7422V33.1949C44.0332 33.7497 44.1227 34.3008 44.298 34.827L45.3235 37.9034H47.259V30.8066H45.9687C44.8998 30.8067 44.0332 31.6732 44.0332 32.7422Z" fill="#5A4146"/>
<path d="M52.8656 34.0819L51.7739 37.903L46.6126 33.3869C45.8999 33.3869 45.3223 32.8092 45.3223 32.0966C45.3223 31.0277 46.1888 30.1611 47.2577 30.1611H51.7738C52.4865 30.1611 53.0641 30.7389 53.0641 31.4514V32.6641C53.0642 33.1436 52.9973 33.6207 52.8656 34.0819Z" fill="#694B4B"/>
<path d="M50.4842 39.8389H46.6133V42.6943H50.4842V39.8389Z" fill="#FFD4AA"/>
<path d="M46.6133 41.0239C47.2116 41.2671 47.8641 41.4039 48.5488 41.4039C49.2334 41.4039 49.8859 41.2671 50.4842 41.0239V39.8389H46.6133V41.0239Z" fill="#FFC493"/>
<path d="M53.597 42.2926L50.4845 41.4034L48.5492 42.6877L46.6137 41.4033L43.5014 42.2926C42.6705 42.53 42.0977 43.2895 42.0977 44.1536V48.8705C42.0977 49.2268 42.3865 49.5157 42.7428 49.5157H54.3557C54.712 49.5157 55.0009 49.2268 55.0009 48.8705V44.1536C55.0009 43.2894 54.428 42.53 53.597 42.2926Z" fill="#E3EBFF"/>
<path d="M49.1927 49.5163H47.9023L48.2249 42.6943H48.8701L49.1927 49.5163Z" fill="#AFB9D2"/>
<path d="M48.5487 40.4834C46.4108 40.4834 44.6777 38.7503 44.6777 36.6125V35.8566C44.6777 35.5144 44.8137 35.1862 45.0556 34.9442L46.2255 33.7743C46.4733 33.5265 46.812 33.3841 47.1622 33.3951C49.2245 33.4602 51.05 33.902 52.0479 34.8766C52.2922 35.1152 52.4197 35.449 52.4197 35.7904V36.6125C52.4197 38.7504 50.6866 40.4834 48.5487 40.4834Z" fill="#FAD6AB"/>
<path d="M46.6132 36.0167C46.6132 35.2725 47.2382 34.6809 47.9809 34.7283C49.2834 34.8114 51.216 35.029 52.4017 35.5993C52.363 35.3272 52.2461 35.0702 52.0479 34.8766C51.05 33.902 49.2245 33.4602 47.1622 33.3951L47.1621 33.3952C46.812 33.3842 46.4732 33.5266 46.2255 33.7743L45.0557 34.9441C44.8137 35.1861 44.6777 35.5143 44.6777 35.8565V36.6124C44.6777 38.3777 45.8606 39.864 47.4762 40.3295C46.9384 39.6661 46.6133 38.8239 46.6133 37.9027L46.6132 36.0167Z" fill="#FFD4AA"/>
<path d="M52.4199 46.0762C52.4199 45.5628 52.6238 45.0705 52.9868 44.7076L54.6475 43.0469C54.8695 43.3641 55.0005 43.7461 55.0005 44.1538V48.8707C55.0005 49.227 54.7117 49.5159 54.3554 49.5159H52.4199V46.0762Z" fill="#ACB6CE"/>
<path d="M48.8701 43.9846H48.2249C48.0468 43.9846 47.9023 43.8402 47.9023 43.6621V42.6943H49.1927V43.6621C49.1927 43.8402 49.0483 43.9846 48.8701 43.9846Z" fill="#959CB5"/>
<path d="M48.5474 42.6884L47.4539 43.5236C47.2655 43.6675 46.9932 43.6098 46.8794 43.4019L45.8984 41.6105L46.2933 41.0082C46.3809 40.8746 46.5675 40.8519 46.6846 40.9605L48.5474 42.6884Z" fill="#ACB6CE"/>
<path d="M48.5469 42.6883L49.6404 43.5236C49.8287 43.6675 50.1011 43.6098 50.2149 43.4019L51.1959 41.6105L50.801 41.0082C50.7134 40.8746 50.5268 40.8519 50.4097 40.9605L48.5469 42.6883Z" fill="#ACB6CE"/>
<path d="M26.548 40.2144C25.9966 38.7536 25.5594 36.2425 25.4649 34.935C25.2852 32.4471 23.4103 30.4189 20.8758 30.4189C18.3412 30.4189 16.4663 32.4471 16.2866 34.935C16.1922 36.2424 15.7549 38.7536 15.2036 40.2144C15.0821 40.5364 15.2223 40.8915 15.5394 41.0353C16.1302 41.303 17.3898 41.8275 18.909 42.0318H22.8425C24.3545 41.8271 25.6229 41.3022 26.212 41.0353C26.5292 40.8915 26.6694 40.5364 26.548 40.2144Z" fill="#5A4146"/>
<path d="M26.2131 41.0353C26.5302 40.8915 26.6705 40.5364 26.5489 40.2144C25.9977 38.7536 25.5603 36.2425 25.4659 34.935C25.2863 32.4471 23.4113 30.4189 20.8769 30.4189C20.8705 30.4189 20.8641 30.4189 20.8577 30.419C18.913 30.4269 18.2257 33.0792 19.8998 34.0688C20.0004 34.1282 20.0648 34.1568 20.0648 34.1568L21.5312 42.0318H22.8436C24.3556 41.8269 25.6241 41.3021 26.2131 41.0353Z" fill="#694B4B"/>
<path d="M25.543 43.327L23.4552 42.2831C23.018 42.0645 22.7418 41.6177 22.7419 41.1289L22.742 39.1934H18.8709V41.129C18.8709 41.6177 18.5948 42.0645 18.1577 42.283L16.0698 43.327C15.4141 43.6548 15 44.3249 15 45.058V48.8706C15 49.2269 15.2888 49.5158 15.6452 49.5158H25.9677C26.3241 49.5158 26.6129 49.2269 26.6129 48.8706V45.058C26.6129 44.3249 26.1987 43.6548 25.543 43.327Z" fill="#FFD4AA"/>
<path d="M20.8063 41.774C21.501 41.774 22.1664 41.6308 22.7764 41.3759C22.7604 41.2945 22.7417 41.2137 22.7417 41.1289L22.7419 39.1934H18.8708V41.129C18.8708 41.2142 18.8521 41.2955 18.8359 41.3771C19.4463 41.6307 20.1114 41.774 20.8063 41.774Z" fill="#FFC493"/>
<path d="M25.543 43.3268L24.0556 42.5831C23.3659 43.6481 22.1698 44.3544 20.8065 44.3544C19.4432 44.3544 18.247 43.6481 17.5573 42.583L16.0699 43.3268C15.4142 43.6546 15 44.3247 15 45.0578V48.8704C15 49.2268 15.2888 49.5156 15.6452 49.5156H25.9677C26.3241 49.5156 26.6129 49.2268 26.6129 48.8704V45.0579C26.6129 44.3247 26.1987 43.6546 25.543 43.3268Z" fill="#E3EBFF"/>
<path d="M20.8074 40.4835C18.8393 40.4835 17.2143 39.0147 16.9686 37.1136C16.933 36.8381 17.0654 36.568 17.3134 36.4429C17.6104 36.2931 18.0421 36.0404 18.4553 35.6717C18.9156 35.261 19.1856 34.828 19.3381 34.5101C19.4694 34.2364 19.7713 34.0815 20.0655 34.1566C22.3371 34.736 23.8835 35.9178 24.4446 36.4003C24.5953 36.5298 24.6821 36.7208 24.6666 36.9189C24.5103 38.9135 22.8422 40.4835 20.8074 40.4835Z" fill="#FAD6AB"/>
<path d="M24.4445 36.4003C23.8835 35.9178 22.337 34.736 20.0654 34.1566C19.7712 34.0815 19.4693 34.2364 19.338 34.5101C19.2225 34.7509 19.0316 35.0576 18.7484 35.3707C18.7484 35.3715 18.7481 35.3721 18.7481 35.3729C18.6602 35.4725 18.5666 35.5724 18.4553 35.6718C18.042 36.0406 17.6104 36.2932 17.3134 36.443C17.0654 36.5681 16.9331 36.8382 16.9686 37.1137C17.1893 38.8211 18.5254 40.1802 20.2206 40.4394C19.4481 39.9139 18.872 39.1913 18.872 37.903V36.983C19.0185 36.8748 19.1661 36.7669 19.3144 36.6346C19.673 36.3146 19.986 35.9445 20.237 35.5461C21.9748 36.0883 23.1529 36.9915 23.5995 37.3756C23.7218 37.4828 24.0252 37.7625 24.3802 38.0955C24.533 37.7279 24.634 37.3335 24.6664 36.9191C24.682 36.7209 24.5952 36.5299 24.4445 36.4003Z" fill="#FFD4AA"/>
<path d="M15.3933 43.8955C15.1448 44.2254 15 44.63 15 45.0585V48.8711C15 49.2275 15.2888 49.5163 15.6452 49.5163H17.5806V46.2655C17.5806 45.8736 17.4024 45.5028 17.0963 45.2579L15.3933 43.8955Z" fill="#ACB6CE"/>
<path d="M44.2699 42.4464L38.8719 40.4834L35.0009 41.7738L31.13 40.4835L25.732 42.4464C24.7121 42.8173 24.0332 43.7865 24.0332 44.8717V48.8706C24.0332 49.2268 24.322 49.5157 24.6784 49.5157H45.3235C45.6798 49.5157 45.9687 49.2268 45.9687 48.8706V44.8717C45.9687 43.7864 45.2898 42.8172 44.2699 42.4464Z" fill="#FF507D"/>
<path d="M34.3234 43.0645L33.709 49.5159H36.2896L35.6752 43.0645H34.3234Z" fill="#707487"/>
<path d="M35.6774 43.9511H34.3227C34.0733 43.9511 33.8711 43.7489 33.8711 43.4995V41.7744H36.129V43.4995C36.1291 43.7489 35.9269 43.9511 35.6774 43.9511Z" fill="#5B5D6E"/>
<path d="M45.2741 43.1133C45.7098 43.5809 45.9686 44.2036 45.9686 44.8716V48.8705C45.9686 49.2268 45.6798 49.5156 45.3234 49.5156H42.0977V47.3587C42.0977 46.6743 42.3695 46.0179 42.8535 45.534L45.2741 43.1133Z" fill="#D23C69"/>
<path d="M42.0959 27.1784V21.7737C42.0959 21.0611 41.5182 20.4834 40.8056 20.4834H33.0637C30.2132 20.4834 27.9023 22.7942 27.9023 25.6447V27.1784C27.9023 27.8718 28.0141 28.5607 28.2334 29.2186L28.4482 29.8629C28.514 30.0602 28.5475 30.2668 28.5475 30.4749V30.806H41.4507V30.4749C41.4507 30.2668 41.4842 30.0602 41.55 29.8629L41.7648 29.2186C41.9841 28.5607 42.0959 27.8718 42.0959 27.1784Z" fill="#5A4146"/>
<path d="M31.1289 23.1043C31.1289 24.5518 32.3023 25.7253 33.7498 25.7253H34.1127L34.2879 30.8059H41.4514V30.4748C41.4514 30.2668 41.4849 30.0601 41.5507 29.8628L41.7655 29.2185C41.9848 28.5607 42.0966 27.8718 42.0966 27.1783V21.7737C42.0966 21.0611 41.5188 20.4834 40.8062 20.4834H33.7498C32.3023 20.4834 31.1289 21.6568 31.1289 23.1043Z" fill="#694B4B"/>
<path d="M38.8711 35.9678H31.1289V41.774H38.8711V35.9678Z" fill="#FFD4AA"/>
<path d="M31.129 38.1493C32.2687 38.8096 33.5881 39.1936 34.9999 39.1936C36.4117 39.1936 37.7313 38.8096 38.8709 38.1493V35.9678H31.1289L31.129 38.1493Z" fill="#FFC493"/>
<path d="M34.9991 41.7737L32.9415 43.8314C32.6649 44.1079 32.2078 44.0768 31.9714 43.7652L29.8379 40.9539L30.3959 39.7779C30.5606 39.4309 30.9902 39.3037 31.3172 39.5053L34.9991 41.7737Z" fill="#D23C69"/>
<path d="M35 41.7737L37.0577 43.8314C37.3342 44.1079 37.7913 44.0768 38.0277 43.7652L40.1613 40.9539L39.6032 39.7779C39.4385 39.4309 39.009 39.3037 38.682 39.5053L35 41.7737Z" fill="#D23C69"/>
<path d="M35.0005 37.9036C31.4373 37.9036 28.5488 35.0151 28.5488 31.452V30.6961C28.5488 30.3539 28.6848 30.0257 28.9267 29.7837L29.4612 29.2492C29.7031 29.0073 29.8391 28.6791 29.8391 28.3368V26.7903C29.8391 26.4915 30.0397 26.232 30.3304 26.1633C31.8563 25.8029 36.6045 24.9492 39.8358 27.3258C40.0456 27.4801 40.1616 27.7336 40.1616 27.9941V28.3368C40.1616 28.679 40.2976 29.0072 40.5395 29.2492L41.074 29.7837C41.3159 30.0257 41.4519 30.3539 41.4519 30.6961V31.452C41.4521 35.0151 38.5636 37.9036 35.0005 37.9036Z" fill="#FAD6AB"/>
<path d="M39.8359 27.3257C37.5632 25.6542 34.5444 25.5819 32.4198 25.8107C31.5237 25.9072 30.7832 26.0563 30.3305 26.1632C30.0398 26.2319 29.8392 26.4914 29.8392 26.7902V28.3366C29.8392 28.6789 29.7033 29.0071 29.4613 29.2491L28.9268 29.7836C28.6848 30.0256 28.5488 30.3538 28.5488 30.6961V31.4519C28.5488 34.7506 31.0262 37.4663 34.2209 37.8519C33.1077 36.6926 32.4198 35.1216 32.4198 33.3873V28.6716C32.4198 28.0178 32.9059 27.4714 33.5546 27.3901C35.1029 27.1959 37.9387 27.0792 40.1616 28.3368V27.994C40.1618 27.7335 40.0455 27.4799 39.8359 27.3257Z" fill="#FFD4AA"/>
<path d="M24.7277 43.1133C24.292 43.5809 24.0332 44.2036 24.0332 44.8716V48.8705C24.0332 49.2268 24.322 49.5156 24.6784 49.5156H27.9041V47.3587C27.9041 46.6743 27.6323 46.0179 27.1483 45.534L24.7277 43.1133Z" fill="#D23C69"/>
</g>
<defs>
<clipPath id="clip0_522_11258">
<rect width="40" height="40" fill="white" transform="translate(15 15)"/>
</clipPath>
</defs>
</svg>
