<svg width="70" height="70" viewBox="0 0 70 70" fill="none" xmlns="http://www.w3.org/2000/svg">
<circle cx="35" cy="35" r="35" fill="#FF8ED7"/>
<g clip-path="url(#clip0_522_11340)">
<mask id="mask0_522_11340" style="mask-type:luminance" maskUnits="userSpaceOnUse" x="17" y="21" width="36" height="35">
<path d="M17.5 21H52.5V56H17.5V21Z" fill="white"/>
</mask>
<g mask="url(#mask0_522_11340)">
<path d="M17.7598 26.513C17.7598 23.441 20.2722 20.9558 23.3544 21.0002C26.34 21.0431 28.7677 23.4916 28.7866 26.4774C28.7971 28.1495 28.0631 29.6503 26.8967 30.6682C26.7736 30.7756 26.7914 30.9717 26.932 31.0548L27.9709 31.6695C28.1388 31.7689 28.0684 32.0264 27.8732 32.0264L23.1688 32.0252C20.172 31.9695 17.7598 29.5231 17.7598 26.513Z" fill="#55A3A1"/>
<path d="M27.9716 31.6695L26.9327 31.0548C26.7928 30.9721 26.7734 30.7763 26.8958 30.6696C28.0755 29.6408 28.8134 28.1183 28.7867 26.4239C28.7403 23.4931 26.3683 21.0874 23.4384 21.002C23.0228 20.9899 22.6174 21.0239 22.2266 21.0991C24.7591 21.5845 26.6891 23.8168 26.7059 26.4774C26.7141 27.7659 26.2801 28.9527 25.5468 29.8951C25.1041 30.4643 25.248 31.2895 25.8685 31.6567L25.8903 31.6695C26.0564 31.7678 25.989 32.0204 25.7987 32.0258L27.8739 32.0264C28.069 32.0264 28.1395 31.7689 27.9716 31.6695Z" fill="#4D908E"/>
<path d="M44.6248 41.0127H32.1174C28.9935 41.0127 27.284 37.3721 29.2793 34.9684L29.3902 34.8347C30.2692 33.7757 30.7503 32.4428 30.7503 31.0665V28.6546C30.7503 24.4271 34.1773 21.0001 38.4047 21.0001C42.6322 21.0001 46.0592 24.4271 46.0592 28.6546V31.148C46.0592 32.5386 46.5504 33.8846 47.4462 34.9483C49.4663 37.3471 47.761 41.0127 44.6248 41.0127Z" fill="#785757"/>
<path d="M51.1995 47.2107V55.4795H25.543V47.2729C25.543 45.4149 26.6565 43.7381 28.3683 43.0176L32.5102 41.217L33.9046 40.6106C34.9628 40.1506 35.6471 39.1067 35.6471 37.9528V37.4176H41.0947V37.9255C41.0947 39.0842 41.7858 40.1321 42.8515 40.5888L48.4535 42.9902C50.1229 43.7299 51.1995 45.3842 51.1995 47.2107Z" fill="white"/>
<path d="M32.5088 43.189C33.9225 43.6114 36.0031 44.0618 38.5393 44.0175C40.919 43.9759 42.8724 43.5132 44.2316 43.0791L44.907 41.4708L42.8503 40.5893C41.7848 40.1327 41.094 39.0849 41.094 37.9258V37.4183H35.6464V37.9534C35.6464 39.1071 34.9621 40.1509 33.904 40.6109L32.2383 41.3352L32.5088 43.189Z" fill="#FFCEBF"/>
<path d="M48.4531 42.99L44.2332 41.1813L44.2324 41.1814V55.4795H51.1995V47.2109C51.1995 45.3846 50.1228 43.7299 48.4531 42.99Z" fill="#328AAE"/>
<path d="M32.5102 41.217V55.4795H25.543V47.273C25.543 45.4149 26.6565 43.7381 28.3683 43.0176L32.5102 41.217Z" fill="#328AAE"/>
<path d="M40.2584 40.4082C40.8851 40.4082 41.4823 40.2824 42.0267 40.0553C41.4428 39.5162 41.0939 38.7493 41.0939 37.9257V37.4182H35.6463V37.9533C35.6463 38.3701 35.5566 38.7724 35.3926 39.1382C36.2175 39.9245 37.3334 40.4082 38.563 40.4082H40.2584Z" fill="#FFB09E"/>
<path d="M43.8151 29.2236V33.7302C43.8151 36.269 41.757 38.3271 39.2181 38.3271H37.5227C34.9839 38.3271 32.9258 36.269 32.9258 33.7302V29.2236C32.9258 27.572 34.2647 26.233 35.9163 26.233H40.8245C42.4761 26.233 43.8151 27.572 43.8151 29.2236Z" fill="#FFCEBF"/>
<path d="M43.8144 31.5678C43.8124 31.574 43.8099 31.58 43.808 31.5864C43.6418 32.1602 43.2058 33.2443 42.1518 34.057C41.661 34.4354 41.1013 34.709 40.488 34.8699C40.21 34.9428 40.0439 35.2273 40.1168 35.5052C40.1781 35.7389 40.389 35.8936 40.6197 35.8936C40.6634 35.8936 40.7079 35.888 40.7521 35.8764C41.5008 35.6799 42.1855 35.345 42.7873 34.8811C43.2028 34.5607 43.5392 34.2067 43.8114 33.8508C43.8125 33.8104 43.8144 33.7703 43.8144 33.7297V31.5678Z" fill="#7A6D79"/>
<path d="M39.9176 36.3086H38.6983C38.1433 36.3086 37.6934 35.8587 37.6934 35.3036C37.6934 34.7487 38.1433 34.2988 38.6983 34.2988H39.9176C40.4726 34.2988 40.9226 34.7487 40.9226 35.3036C40.9226 35.8587 40.4726 36.3086 39.9176 36.3086Z" fill="#685E68"/>
<path d="M39.457 25.0395C39.5738 23.567 40.9835 22.5898 42.3326 22.0837C44.5646 23.4211 46.0588 25.863 46.0588 28.6541V29.1804C45.9354 29.2063 45.8126 29.229 45.6912 29.247C44.9479 29.358 44.3149 29.31 43.8825 29.247C41.0961 28.8758 39.316 26.8179 39.457 25.0395Z" fill="#694B4B"/>
<path d="M38.4045 20.9997C40.1331 20.9997 41.7278 21.573 43.0092 22.5395C42.37 23.6518 40.9022 25.8509 38.1498 27.479C36.1066 28.6876 34.1799 29.0937 32.9934 29.2471H30.75V28.6542C30.75 24.4267 34.177 20.9997 38.4045 20.9997Z" fill="#785757"/>
<path d="M46.9616 55.4795H30.3054L29.3868 46.8132C29.3216 46.1985 29.8035 45.6628 30.4216 45.6628H46.8454C47.4635 45.6628 47.9454 46.1985 47.8802 46.8132L46.9616 55.4795Z" fill="#EFEDEF"/>
<path d="M46.8449 45.6628H44.7637C45.3818 45.6628 45.8637 46.1985 45.7985 46.8132L44.8798 55.4795H46.9611L47.8798 46.8132C47.9449 46.1985 47.463 45.6628 46.8449 45.6628Z" fill="#E5E1E5"/>
<path d="M51.9873 56H18.0127C17.7295 56 17.5 55.7704 17.5 55.4873C17.5 55.2042 17.7295 54.9746 18.0127 54.9746H51.9873C52.2705 54.9746 52.5 55.2042 52.5 55.4873C52.5 55.7704 52.2705 56 51.9873 56Z" fill="#9D9D9D"/>
<path d="M40.0895 50.5714C40.0895 51.3761 39.4372 52.0283 38.6327 52.0283C37.8281 52.0283 37.1758 51.3761 37.1758 50.5714C37.1758 49.7668 37.8281 49.1146 38.6327 49.1146C39.4372 49.1146 40.0895 49.7668 40.0895 50.5714Z" fill="#C9BFC8"/>
<path d="M21.7125 26.5129C21.7125 26.8003 21.4796 27.0332 21.1922 27.0332C20.9048 27.0332 20.6719 26.8003 20.6719 26.5129C20.6719 26.2255 20.9048 25.9926 21.1922 25.9926C21.4796 25.9926 21.7125 26.2255 21.7125 26.5129Z" fill="white"/>
<path d="M23.7945 26.5129C23.7945 26.8003 23.5616 27.0332 23.2743 27.0332C22.9869 27.0332 22.7539 26.8003 22.7539 26.5129C22.7539 26.2255 22.9869 25.9926 23.2743 25.9926C23.5616 25.9926 23.7945 26.2255 23.7945 26.5129Z" fill="white"/>
<path d="M25.8747 26.5129C25.8747 26.8003 25.6417 27.0332 25.3543 27.0332C25.067 27.0332 24.834 26.8003 24.834 26.5129C24.834 26.2255 25.067 25.9926 25.3543 25.9926C25.6417 25.9926 25.8747 26.2255 25.8747 26.5129Z" fill="white"/>
</g>
</g>
<defs>
<clipPath id="clip0_522_11340">
<rect width="35" height="35" fill="white" transform="translate(17.5 21)"/>
</clipPath>
</defs>
</svg>
