<svg width="60" height="60" viewBox="0 0 60 60" fill="none" xmlns="http://www.w3.org/2000/svg">
<rect width="60" height="60" rx="10" fill="#90BE6D" fill-opacity="0.3"/>
<g clip-path="url(#clip0_206_241)">
<path d="M38 30C35.6004 30 33.4532 31.0612 31.9872 32.7344L26.9092 29.6091C27.1692 28.8955 27.3336 28.1363 27.3336 27.3331C27.3336 26.8084 27.2584 26.3035 27.1436 25.8123L33.8936 22.6976C34.8712 23.8904 36.3372 24.6664 38.0004 24.6664C40.9444 24.6664 43.3336 22.2784 43.3336 19.3332C43.3336 16.388 40.944 14 38 14C35.0536 14 32.6668 16.388 32.6668 19.3332C32.6668 19.6584 32.7072 19.9724 32.7616 20.2824L26.0195 23.3945C24.8048 21.7472 22.8684 20.6664 20.6668 20.6664C16.9844 20.6668 14 23.6508 14 27.3332C14 31.0156 16.9844 34 20.6668 34C22.5832 34 24.2996 33.1796 25.5156 31.8828L30.586 35.0028C30.2108 35.9296 30 36.9388 30 38C30 42.4192 33.5808 46 38 46C42.4168 46 46 42.4192 46 38C46 33.5808 42.4168 30 38 30Z" fill="#90BE6D"/>
</g>
<defs>
<clipPath id="clip0_206_241">
<rect width="32" height="32" fill="white" transform="translate(14 14)"/>
</clipPath>
</defs>
</svg>
