<svg width="60" height="60" viewBox="0 0 60 60" fill="none" xmlns="http://www.w3.org/2000/svg">
<rect width="60" height="60" rx="10" fill="#85016B" fill-opacity="0.2"/>
<path fill-rule="evenodd" clip-rule="evenodd" d="M35.6665 39.9883V41.6656C35.6665 42.2176 35.2185 42.6656 34.6665 42.6656C34.1145 42.6656 33.6665 42.2176 33.6665 41.6656V39.9989H35.3332C35.4452 39.9989 35.5558 39.9949 35.6665 39.9883Z" fill="#85016B"/>
<path fill-rule="evenodd" clip-rule="evenodd" d="M33.6665 40H24.6665C21.9052 40 19.6665 37.7613 19.6665 35V30.8906L27.2852 35.1C28.9358 36.012 31.0638 36.012 32.7145 35.1L33.6665 34.5746V40ZM35.6665 33.4693L40.3332 30.8906V35C40.3332 37.6493 38.2732 39.8173 35.6665 39.9893V33.4693Z" fill="#85016B"/>
<path fill-rule="evenodd" clip-rule="evenodd" d="M33.6665 33.0503L32.0692 33.9329C30.8105 34.6289 29.1892 34.6289 27.9305 33.9329L16.8452 27.8076C16.0905 27.3903 15.6665 26.6596 15.6665 25.8956C15.6665 25.1303 16.0905 24.3996 16.8452 23.9836L27.9305 17.8569C29.1892 17.1623 30.8105 17.1623 32.0692 17.8569L43.1545 23.9836C43.9092 24.3996 44.3332 25.1303 44.3332 25.8956C44.3332 26.6596 43.9092 27.3903 43.1545 27.8076L35.6665 31.9449V30.9996C35.6665 30.7343 35.5612 30.4796 35.3732 30.2929L30.7065 25.6263C30.3172 25.2356 29.6825 25.2356 29.2932 25.6263C28.9025 26.0156 28.9025 26.6503 29.2932 27.0396L33.6665 31.4143V33.0503Z" fill="#85016B"/>
</svg>
