<svg width="70" height="70" viewBox="0 0 70 70" fill="none" xmlns="http://www.w3.org/2000/svg">
<circle cx="35" cy="35" r="35" fill="#52CAF0"/>
<g clip-path="url(#clip0_522_11429)">
<path d="M35 17.5L17.5 27.1551V52.5H20.5172V30.7759H49.4828V52.5H52.5V27.7586L35 17.5Z" fill="#51575B"/>
<path d="M49.4824 52.5H52.4997V32.9121C51.5058 33.6121 50.5004 34.282 49.4824 34.9216V52.5Z" fill="#2E3439"/>
<path d="M17.5 52.4996H20.5172V46.8936C19.4793 47.147 18.4734 47.3763 17.5 47.5815V52.4996Z" fill="#2E3439"/>
<path d="M49.4831 30.7754H20.5176V35.603H49.4831V30.7754Z" fill="#E5E5E5"/>
<path d="M49.4831 32.5859H20.5176V33.7928H49.4831V32.5859Z" fill="#CFCFCF"/>
<path d="M38.0169 25.9482H31.9824V28.362H38.0169V25.9482Z" fill="#E5E5E5"/>
<path d="M47.0695 38.0176H39.8281V45.259H47.0695V38.0176Z" fill="#FCC255"/>
<path d="M44.656 38.0176H42.2422V40.4313H44.656V38.0176Z" fill="#FF6C17"/>
<path d="M39.8281 45.2588H47.0695V40.377C44.9876 42.1239 42.496 43.3139 39.8281 43.8347V45.2588Z" fill="#F9AF53"/>
<path d="M47.0695 45.2588H39.8281V52.5002H47.0695V45.2588Z" fill="#FCC255"/>
<path d="M44.656 45.2588H42.2422V47.6726H44.656V45.2588Z" fill="#FF6C17"/>
<path d="M39.8281 52.5H47.0695V47.6182C44.9876 49.3652 42.496 50.5552 39.8281 51.0759V52.5Z" fill="#F9AF53"/>
<path d="M39.8273 45.2588H32.5859V52.5002H39.8273V45.2588Z" fill="#FCC255"/>
<path d="M37.4138 45.2588H35V47.6726H37.4138V45.2588Z" fill="#FF6C17"/>
<path d="M32.5859 52.5H39.8273V47.6182C37.7454 49.3652 35.2538 50.5552 32.5859 51.0759V52.5Z" fill="#F9AF53"/>
<path d="M38.0169 28.3623H31.9824V29.5692H38.0169V28.3623Z" fill="#2E3439"/>
</g>
<defs>
<clipPath id="clip0_522_11429">
<rect width="35" height="35" fill="white" transform="translate(17.5 17.5)"/>
</clipPath>
</defs>
</svg>
