<svg width="163" height="36" viewBox="0 0 163 36" fill="none" xmlns="http://www.w3.org/2000/svg">
<g clip-path="url(#clip0_157_180)">
<mask id="mask0_157_180" style="mask-type:luminance" maskUnits="userSpaceOnUse" x="0" y="0" width="163" height="36">
<path d="M162.905 0H0V36H162.905V0Z" fill="white"/>
</mask>
<g mask="url(#mask0_157_180)">
<path fill-rule="evenodd" clip-rule="evenodd" d="M152.762 6.57617C155.265 6.57617 157.246 7.06334 158.704 8.03763C160.162 9.01187 161.126 10.3924 161.593 12.1793L158.368 12.8182C157.515 10.3602 155.645 9.13111 152.762 9.13111C151.266 9.13111 150.143 9.37688 149.391 9.86825C148.64 10.3597 148.265 10.9313 148.265 11.583C148.265 12.2726 148.605 12.7884 149.286 13.1305C149.967 13.4726 151.596 13.9431 154.174 14.5422C157.266 15.2479 159.401 16.0332 160.579 16.8981C161.757 17.763 162.346 18.9847 162.346 20.5633C162.346 21.2616 162.186 21.9236 161.866 22.5494C161.546 23.1751 161.052 23.7539 160.383 24.2856C159.715 24.8172 158.805 25.2382 157.655 25.5485C156.504 25.8589 155.181 26.014 153.687 26.014C152.149 26.014 150.784 25.838 149.594 25.486C148.404 25.1341 147.424 24.6328 146.655 23.9822C145.887 23.3316 145.291 22.6011 144.866 21.7904C144.442 20.9798 144.18 19.9741 144.08 18.7734L147.603 18.394C147.858 20.2032 148.469 21.4886 149.436 22.25C150.402 23.0115 151.82 23.3923 153.687 23.3923C155.493 23.3923 156.812 23.1313 157.645 22.6095C158.477 22.0876 158.894 21.4165 158.894 20.5962C158.894 19.9922 158.74 19.508 158.434 19.1435C158.128 18.7789 157.535 18.4307 156.658 18.0987C155.781 17.7668 154.431 17.4016 152.609 17.0032C149.75 16.3775 147.735 15.6663 146.566 14.8695C145.397 14.0727 144.812 12.9772 144.812 11.583C144.812 10.212 145.527 9.03472 146.956 8.05132C148.385 7.06787 150.32 6.57617 152.762 6.57617Z" fill="white" stroke="white" stroke-width="1.3" stroke-miterlimit="10" stroke-linejoin="round"/>
<path fill-rule="evenodd" clip-rule="evenodd" d="M121.692 0.478516H125.628C125.837 0.478516 126.007 0.647843 126.007 0.856728V7.75846L127.482 6.93509C128.676 6.41655 129.988 6.12978 131.364 6.12978C136.872 6.12978 141.337 10.7181 141.337 16.3781C141.337 22.0381 136.872 26.6264 131.364 26.6264C129.988 26.6264 128.676 26.3397 127.482 25.8211L126.007 24.9978V25.992C126.007 26.2009 125.837 26.3702 125.628 26.3702H121.692C121.483 26.3702 121.313 26.2009 121.313 25.992V0.856728C121.313 0.647843 121.483 0.478516 121.692 0.478516ZM131.638 10.7516C128.614 10.7516 126.163 13.2707 126.163 16.3781C126.163 19.4856 128.614 22.0047 131.638 22.0047C134.662 22.0047 137.114 19.4856 137.114 16.3781C137.114 13.2707 134.662 10.7516 131.638 10.7516Z" fill="white"/>
<path fill-rule="evenodd" clip-rule="evenodd" d="M108.799 6.125C114.299 6.125 118.757 10.7147 118.757 16.3765C118.757 22.0382 114.299 26.628 108.799 26.628C103.299 26.628 98.8403 22.0382 98.8403 16.3765C98.8403 10.7147 103.299 6.125 108.799 6.125ZM108.836 10.7482C105.816 10.7482 103.368 13.2681 103.368 16.3765C103.368 19.4849 105.816 22.0047 108.836 22.0047C111.855 22.0047 114.303 19.4849 114.303 16.3765C114.303 13.2681 111.855 10.7482 108.836 10.7482Z" fill="white"/>
<path fill-rule="evenodd" clip-rule="evenodd" d="M92.1403 6.39062H96.0657C96.2745 6.39062 96.4438 6.55912 96.4438 6.76697V25.8948L96.4028 25.9938L96.2404 27.6863C95.8058 29.744 94.6891 31.6167 93.0414 32.9761C90.8106 34.8172 87.8565 35.5098 85.0474 34.8507L86.0986 30.3049C87.5035 30.642 88.9818 30.2889 90.0932 29.3511C91.17 28.4421 91.783 27.084 91.759 25.6596L91.7628 25.6596V6.76697C91.7628 6.55912 91.9321 6.39062 92.1403 6.39062Z" fill="white"/>
<path fill-rule="evenodd" clip-rule="evenodd" d="M79.0826 6.125C84.5827 6.125 89.0412 10.7147 89.0412 16.3765C89.0412 22.0382 84.5827 26.628 79.0826 26.628C73.5825 26.628 69.124 22.0382 69.124 16.3765C69.124 10.7147 73.5825 6.125 79.0826 6.125ZM79.1193 10.7482C76.0998 10.7482 73.6517 13.2681 73.6517 16.3765C73.6517 19.4849 76.0998 22.0047 79.1193 22.0047C82.1389 22.0047 84.5865 19.4849 84.5865 16.3765C84.5865 13.2681 82.1389 10.7482 79.1193 10.7482Z" fill="white"/>
<path fill-rule="evenodd" clip-rule="evenodd" d="M56.2988 10.7424C53.2793 10.7424 50.8312 13.2622 50.8312 16.3706C50.8312 19.479 53.2793 21.9989 56.2988 21.9989C59.3184 21.9989 61.7665 19.479 61.7665 16.3706C61.7665 13.2622 59.3184 10.7424 56.2988 10.7424ZM56.5992 6.11914C57.9742 6.11914 59.2843 6.40597 60.4756 6.92472L62.0301 7.7933V6.86358C62.0301 6.65461 62.1994 6.48526 62.4082 6.48526H66.3378C66.5471 6.48526 66.7165 6.65467 66.7165 6.86358V25.9875L66.7069 26.0107L66.7133 26.1135C66.611 29.6441 64.5208 32.8395 61.3229 34.3253L60.5182 34.6211L60.5347 34.6613C56.432 36.3205 51.7983 34.7837 49.3353 31.194L48.6446 29.9403L52.9188 27.9692L52.938 27.9867L53.0205 28.1374L53.0072 28.1429L53.2074 28.5083C54.1325 29.8675 55.6566 30.6519 57.2148 30.6151L58.6841 30.3116L60.0006 29.6971C61.2137 28.8656 61.979 27.4821 62.0237 25.976L61.972 25.1576H61.7372V25.1116L60.4756 25.8165C59.2838 26.3353 57.9742 26.6221 56.5992 26.6221C51.0991 26.6221 46.6406 22.0324 46.6406 16.3706C46.6406 10.7089 51.0991 6.11914 56.5992 6.11914Z" fill="white"/>
<path fill-rule="evenodd" clip-rule="evenodd" d="M12.4539 9.48595C15.867 9.32666 21.428 10.7539 23.3638 12.6617L23.3723 12.7145L24.2297 13.8423C25.004 15.1247 25.6628 16.9049 26.1016 18.7117L26.2891 19.6435L26.4227 19.7242L26.3274 19.8337L26.4632 20.5098C26.837 22.8727 26.7577 25.0034 25.9759 25.785C24.1898 27.5715 15.164 25.8821 12.5828 23.3383L12.5742 23.2855L11.717 22.1577C9.65226 18.7381 8.40765 11.7782 9.97062 10.2151C10.4172 9.76841 11.3162 9.53904 12.4539 9.48595ZM5.99123 0H29.9556C33.2643 0 35.9467 2.68637 35.9467 6.00012V29.9999C35.9467 30.4141 35.9047 30.8185 35.8248 31.2091L35.6224 31.8629L29.8832 28.3969L30.968 27.0408C32.6572 24.46 33.644 21.3489 33.644 18C33.644 9.0696 26.6283 1.83009 17.9734 1.83009C9.31867 1.83009 2.30267 9.0696 2.30267 18C2.30267 26.9304 9.31867 34.17 17.9734 34.17C20.1371 34.17 22.1986 33.7175 24.0731 32.8993L26.6544 31.4536L30.2954 35.9657L29.9556 36H5.99123C2.68237 36 0 33.3137 0 29.9999V6.00012C0 2.68637 2.68237 0 5.99123 0Z" fill="#FF6600"/>
</g>
</g>
<defs>
<clipPath id="clip0_157_180">
<rect width="162.905" height="36" fill="white"/>
</clipPath>
</defs>
</svg>
