<svg version="1.1" id="Layer_1" xmlns="http://www.w3.org/2000/svg" xmlns:xlink="http://www.w3.org/1999/xlink" x="0px" y="0px"
	 width="100%" viewBox="0 0 3059 676" enable-background="new 0 0 3059 676" xml:space="preserve">
<path fill="#000000" opacity="1.000000" stroke="none" 
	d="
M3060.000000,405.999969 
	C3060.000000,496.320404 3060.000000,586.640808 3060.000000,677.000000 
	C2229.631836,677.000000 1399.263550,677.000000 568.446533,676.617981 
	C567.804504,675.452332 567.828552,674.506958 567.384521,673.909729 
	C562.322205,667.101440 557.339355,660.225647 552.040466,653.603760 
	C542.821106,642.082520 533.347229,630.765503 524.072693,619.287964 
	C518.113037,611.912842 512.378479,604.355774 506.426086,596.974670 
	C503.430206,593.259705 500.079163,591.721863 495.362030,594.835266 
	C490.622559,597.963379 485.383484,600.327820 480.406647,603.104492 
	C471.016113,608.343628 462.117371,614.842773 452.182159,618.643005 
	C434.943146,625.237061 417.305115,631.134766 399.390930,635.507812 
	C384.860352,639.054749 369.725891,641.086426 354.774170,641.693298 
	C338.133057,642.368835 321.378265,640.953125 304.705078,639.926208 
	C288.210846,638.910400 272.245514,634.928589 256.440918,630.187073 
	C234.365234,623.564270 213.286530,614.743286 193.496445,602.874084 
	C175.203415,591.902710 157.755402,579.738647 142.484375,564.814087 
	C132.431473,554.989258 122.342308,544.991882 113.777534,533.906555 
	C102.743584,519.625427 92.354317,504.682556 83.267685,489.103027 
	C72.610199,470.830170 64.646317,451.173157 58.350460,430.871979 
	C51.161312,407.690369 46.535465,383.954742 45.275101,359.849731 
	C44.128574,337.921906 43.711491,315.767120 48.063145,294.007355 
	C51.311531,277.764313 54.519638,261.456451 58.998444,245.529724 
	C65.498688,222.414764 75.645576,200.737930 87.984749,180.122803 
	C98.253952,162.965973 109.916885,146.771194 123.520027,132.149323 
	C136.577927,118.113541 150.084976,104.347656 166.078232,93.602943 
	C180.793320,83.716919 195.622208,73.785454 211.304886,65.607452 
	C232.083740,54.771976 254.205307,46.730179 277.342834,42.484772 
	C293.402740,39.538002 309.693451,37.005352 325.967804,36.306026 
	C342.603760,35.591164 359.452393,36.404236 376.008209,38.296089 
	C389.989471,39.893742 403.808136,43.520306 417.480225,47.086613 
	C442.836029,53.700554 466.764404,64.019135 488.655487,78.395950 
	C502.276703,87.341553 515.527710,97.066612 527.855652,107.704102 
	C539.855408,118.058441 551.304138,129.322235 561.453735,141.473907 
	C571.648193,153.679443 580.450562,167.152512 588.945618,180.647598 
	C600.871521,199.592972 609.997253,220.038330 616.793030,241.330399 
	C621.275574,255.374664 624.657349,269.840271 627.480652,284.322205 
	C629.793030,296.183472 631.375977,308.318939 631.792969,320.384369 
	C632.319458,335.619812 631.757935,350.932465 630.859985,366.164307 
	C630.206543,377.248230 629.210693,388.484497 626.649048,399.243683 
	C622.633850,416.108459 617.655457,432.789612 612.190918,449.251709 
	C605.652588,468.948944 596.202087,487.412750 584.662476,504.633911 
	C577.776489,514.910156 569.643250,524.350525 561.891724,534.398682 
	C597.771973,556.080750 633.571167,577.713806 669.682739,599.535645 
	C673.696960,590.206055 675.956055,581.393677 675.959473,572.189209 
	C676.016113,419.857910 676.010742,267.526642 675.958069,115.195351 
	C675.956116,109.432617 675.599854,103.641006 674.962097,97.912575 
	C672.364136,74.577560 662.396912,54.472626 646.706604,37.370346 
	C630.128662,19.300465 609.704041,7.538176 585.405884,2.897436 
	C584.837158,2.788811 584.464233,1.655412 584.000000,1.000004 
	C1409.218384,1.000000 2234.436768,1.000000 3060.000000,1.000000 
	C3060.000000,122.368027 3060.000000,243.736389 3059.682129,365.397644 
	C3058.636719,364.059235 3057.618408,362.494751 3057.225830,360.786530 
	C3051.908936,337.645325 3038.422119,320.279602 3019.138428,307.125702 
	C2997.096924,292.090637 2972.252686,283.194336 2946.872803,276.151581 
	C2913.337646,266.845703 2879.377441,259.080170 2845.772949,250.011292 
	C2832.805664,246.511810 2819.965332,242.036026 2807.696777,236.587463 
	C2794.417969,230.690094 2792.333252,215.320175 2801.968994,204.424942 
	C2809.573242,195.826569 2819.214111,191.028931 2829.984375,188.005203 
	C2848.362305,182.845627 2867.176025,182.957230 2885.914307,184.286316 
	C2899.592041,185.256470 2912.812256,188.965027 2924.966553,195.661407 
	C2943.500244,205.872574 2955.190430,221.834320 2962.869385,241.123077 
	C2967.198975,251.997726 2970.475098,253.787613 2981.955566,251.503006 
	C2999.433594,248.024841 3016.903320,244.507324 3034.379883,241.022247 
	C3044.844971,238.935349 3048.449707,233.393829 3044.861328,223.416824 
	C3041.210449,213.265305 3037.370850,203.101990 3032.588623,193.452026 
	C3019.078613,166.192520 2997.593750,146.734283 2970.607666,133.424271 
	C2945.134521,120.860397 2917.669189,115.338379 2889.524170,114.208611 
	C2868.108643,113.348969 2846.629639,113.379501 2825.263916,116.849678 
	C2789.821289,122.606133 2757.728271,135.062317 2732.730957,161.870560 
	C2709.066895,187.249039 2703.568359,216.854187 2714.842773,249.322784 
	C2722.461426,271.264221 2738.854004,285.700012 2758.815186,296.368866 
	C2782.784180,309.179779 2808.560547,317.187439 2834.740723,323.862823 
	C2859.433838,330.159088 2884.345215,335.597961 2909.045654,341.866974 
	C2925.523438,346.049011 2941.442139,351.796936 2956.856445,359.241394 
	C2977.599365,369.259216 2977.868652,397.084198 2964.230469,409.426880 
	C2954.989258,417.790131 2944.133545,422.259949 2932.328613,425.009552 
	C2914.996826,429.046387 2897.363037,429.295074 2879.690674,429.008759 
	C2863.934570,428.753418 2848.533691,426.528107 2833.681152,421.056641 
	C2814.824463,414.110107 2801.104492,401.458374 2793.967529,382.769012 
	C2789.606445,371.348907 2786.873779,359.257874 2784.049316,347.316864 
	C2782.098389,339.069794 2779.100342,335.758362 2770.470215,336.081360 
	C2763.009521,336.360657 2755.564209,337.243652 2748.130371,338.029846 
	C2734.249023,339.497925 2720.347900,340.849945 2706.519043,342.721863 
	C2698.577393,343.796936 2695.686035,347.355804 2696.065186,355.190613 
	C2697.067139,375.884918 2701.633789,395.868896 2711.247559,414.230835 
	C2731.887695,453.652283 2764.912842,477.817200 2807.196777,490.035767 
	C2835.123535,498.105621 2863.673340,500.419830 2892.656006,500.138397 
	C2918.793213,499.884644 2944.443604,496.862183 2969.579834,489.820831 
	C2991.517822,483.675415 3011.761719,474.061340 3028.305908,458.044312 
	C3041.379395,445.387482 3051.760498,430.845825 3056.628174,412.903534 
	C3057.286865,410.476105 3058.853760,408.295105 3060.000000,405.999969 
M2584.000000,458.998779 
	C2584.000000,458.998779 2584.003662,459.006836 2584.559814,458.648895 
	C2586.709717,456.767578 2588.859863,454.886261 2591.000000,453.000000 
	C2591.000000,453.000000 2591.005859,453.008331 2591.666992,452.835602 
	C2595.782715,448.558929 2599.898193,444.282227 2604.571533,439.643890 
	C2617.293701,427.521942 2626.373535,412.744263 2634.221191,397.306183 
	C2651.727539,362.868317 2657.861328,326.241608 2654.167969,287.815582 
	C2651.924316,264.475494 2645.491699,242.368912 2635.136963,221.466324 
	C2624.181885,199.352036 2609.606445,179.920013 2591.047363,163.419968 
	C2570.548096,145.194672 2547.361328,131.970444 2521.228516,123.828400 
	C2497.377197,116.397339 2473.016602,114.282959 2448.202148,116.933060 
	C2425.431885,119.364868 2403.739990,125.161598 2383.872803,136.964203 
	C2378.720947,140.024841 2373.278809,142.597244 2367.000000,145.904861 
	C2367.000000,142.491531 2367.000000,140.524124 2367.000000,138.556717 
	C2367.000000,98.902527 2367.004395,59.248337 2366.996338,19.594147 
	C2366.994629,11.565980 2365.460938,10.047648 2357.292480,10.008419 
	C2349.961670,9.973212 2342.630371,9.999110 2335.299316,10.000213 
	C2319.304443,10.002617 2303.309082,9.957801 2287.314697,10.035482 
	C2281.572021,10.063372 2279.429688,12.023639 2279.053223,17.144609 
	C2278.943604,18.636858 2279.001465,20.142273 2279.001465,21.641651 
	C2278.999756,176.259659 2279.000244,330.877686 2279.001465,485.495697 
	C2279.001465,486.828522 2279.018066,488.161316 2279.028809,489.494141 
	C2279.057129,492.962738 2280.767090,495.234924 2284.118652,495.957397 
	C2286.701416,496.514160 2289.369873,496.934967 2292.003174,496.952698 
	C2306.164795,497.048035 2320.327393,497.001465 2334.489502,496.997528 
	C2342.153564,496.995392 2349.821777,497.131500 2357.480713,496.927368 
	C2364.558105,496.738770 2366.960693,494.085571 2366.995117,487.069244 
	C2367.019043,482.142914 2366.999512,477.216370 2366.999512,471.064575 
	C2370.839355,473.047760 2373.576660,474.473602 2376.324951,475.878662 
	C2385.208984,480.420959 2393.819336,485.646210 2403.038574,489.356567 
	C2425.572754,498.425385 2449.159912,501.698486 2473.453125,501.101959 
	C2493.331299,500.613892 2512.425781,496.817810 2531.718506,489.831360 
	C2544.819580,483.100098 2557.984863,476.489105 2570.973389,469.547058 
	C2573.963623,467.948975 2576.347168,465.215637 2579.000000,463.000000 
	C2579.000000,463.000000 2579.005371,463.008392 2579.646729,462.845490 
	C2581.101074,461.565247 2582.555420,460.285004 2584.000000,458.998779 
M1343.000000,185.000610 
	C1343.000000,185.000610 1342.995117,184.993027 1342.432861,185.357712 
	C1338.950317,190.236954 1335.467773,195.116196 1331.444946,200.389099 
	C1327.843750,206.166946 1323.813721,211.724319 1320.711060,217.758453 
	C1300.967896,256.155182 1294.674072,296.871765 1301.121338,339.427490 
	C1307.128540,379.079132 1324.177246,413.672516 1351.561523,442.887756 
	C1368.442505,460.897400 1388.376953,474.880981 1411.006958,485.103394 
	C1447.316406,501.505005 1485.127808,505.685272 1523.734253,497.331451 
	C1581.605957,484.808960 1623.945312,450.873566 1651.440674,398.805634 
	C1671.514893,360.791321 1677.331421,319.988464 1670.876465,277.617645 
	C1664.647339,236.728500 1646.845703,201.289993 1618.017944,171.650589 
	C1601.516357,154.684586 1582.303345,141.404068 1560.574097,131.716614 
	C1522.882446,114.912636 1483.939453,111.528687 1443.912842,120.598015 
	C1411.673828,127.902802 1383.770752,143.654297 1359.596191,166.036774 
	C1355.362061,169.956985 1351.843872,174.650497 1347.439575,179.349060 
	C1345.956787,181.231247 1344.473877,183.113434 1343.000000,185.000610 
M1936.331421,151.165390 
	C1931.550049,155.108521 1926.768555,159.051651 1921.383057,163.297089 
	C1920.033325,164.257523 1918.537720,165.066223 1917.355835,166.201370 
	C1901.613892,181.320984 1888.589478,198.554749 1878.610352,217.927917 
	C1858.839478,256.310364 1852.657227,297.071564 1859.147827,339.615356 
	C1865.195068,379.253479 1882.268799,413.834076 1909.687988,443.020325 
	C1926.590088,461.011688 1946.535767,474.975891 1969.170898,485.176666 
	C2005.491089,501.544586 2043.303955,505.695496 2081.902588,497.291626 
	C2140.145020,484.610840 2182.582275,450.339600 2209.965088,397.767792 
	C2229.742432,359.797302 2235.315430,319.126129 2228.794189,276.965973 
	C2222.693848,237.526764 2205.660889,203.092743 2178.365479,174.034378 
	C2161.465820,156.042953 2141.532471,142.061584 2118.899902,131.853439 
	C2085.583496,116.826561 2050.946289,112.744614 2014.186279,118.083023 
	C2006.454346,120.051613 1998.722534,122.020203 1990.229004,124.057198 
	C1987.151489,125.045418 1984.073975,126.033638 1980.281006,127.169121 
	C1972.851685,130.447906 1965.149780,133.232986 1958.068237,137.141846 
	C1950.730347,141.192230 1943.993530,146.331894 1937.000000,151.000000 
	C1937.000000,151.000000 1936.995117,150.991592 1936.331421,151.165390 
M894.523071,226.503113 
	C893.695557,228.129471 892.612793,229.676849 892.081055,231.394745 
	C888.000977,244.576523 884.028015,257.791412 879.940369,271.809998 
	C877.226868,285.890289 875.814453,300.099030 877.039062,314.405304 
	C878.114746,326.971344 878.804260,339.700317 881.434204,351.978210 
	C888.329895,384.171570 903.015076,412.585327 924.758728,437.488281 
	C944.440002,460.029144 968.109558,476.745697 995.659363,487.996246 
	C1023.953430,499.550690 1053.426636,503.320953 1083.796509,500.049652 
	C1104.841797,497.782806 1125.076294,492.774536 1143.654663,482.192749 
	C1148.139038,479.638458 1152.686035,477.185852 1157.280396,474.835144 
	C1161.676514,472.585754 1164.620239,474.085175 1164.913208,478.843323 
	C1166.828979,509.966522 1156.225098,535.852539 1131.474487,555.074219 
	C1124.895264,560.183716 1116.862427,563.783020 1109.010742,566.817627 
	C1092.304810,573.274353 1075.110596,577.677795 1056.926270,573.908020 
	C1030.587402,568.447632 1010.874390,553.740295 997.564636,530.573120 
	C995.333130,526.688965 993.774475,526.147400 989.900635,527.956604 
	C966.517395,538.877197 943.048828,549.616394 919.552002,560.291382 
	C915.671509,562.054382 914.647522,564.286133 916.559875,568.139343 
	C927.059875,589.295776 941.084290,607.806641 959.396606,622.673218 
	C995.985291,652.377319 1037.507446,667.084717 1085.182739,664.254761 
	C1110.926636,662.726624 1134.545288,654.622070 1157.148071,643.642029 
	C1187.147705,629.068726 1210.855225,606.913025 1228.170288,578.221924 
	C1245.067627,550.222656 1253.996948,519.932983 1253.998169,487.131775 
	C1254.002563,369.470398 1254.001221,251.809006 1253.998047,134.147629 
	C1253.997803,124.383911 1251.677002,122.021851 1241.943970,122.010033 
	C1220.944946,121.984520 1199.945801,121.993965 1178.946777,122.004890 
	C1167.722412,122.010727 1165.030151,124.686714 1165.002197,135.796371 
	C1164.994263,138.946335 1165.000977,142.096313 1165.000977,146.280807 
	C1162.304565,144.870682 1161.145020,144.282867 1160.002319,143.663712 
	C1151.366211,138.983627 1142.997803,133.702606 1134.050049,129.723923 
	C1106.488037,117.468170 1077.295532,113.907455 1047.532104,116.245705 
	C1019.224304,118.469597 992.689636,127.238655 968.612488,142.446167 
	C959.956665,147.913376 952.175720,154.765701 943.334473,161.161545 
	C935.846802,168.658295 927.608704,175.560059 921.069397,183.808609 
	C913.587341,193.246429 907.614868,203.881042 900.525269,214.496613 
	C898.679688,218.328445 896.834045,222.160278 894.523071,226.503113 
M178.011993,289.275635 
	C179.030502,295.222931 179.614716,301.284698 181.146851,307.096588 
	C186.275253,326.550232 191.090469,346.124756 197.257370,365.255920 
	C203.854782,385.722656 212.126663,405.670441 225.125015,423.079681 
	C232.487686,432.940826 239.289597,443.221741 250.192612,450.222046 
	C268.309753,461.854340 287.739594,470.451355 307.938019,477.372589 
	C341.528900,488.882935 376.139709,496.354248 411.521393,498.683624 
	C431.336121,499.988159 451.570953,500.942810 471.090790,494.951416 
	C480.065247,492.196808 488.321686,488.544312 493.324371,479.494385 
	C498.762451,469.656830 501.156769,459.020538 501.760864,448.224976 
	C502.453339,435.850922 501.488678,423.369415 500.970703,410.945984 
	C500.331512,395.615082 497.317413,380.657867 494.221100,365.638489 
	C490.207153,346.167633 485.028229,327.129425 478.229492,308.467346 
	C471.355438,289.598511 463.987335,270.929718 451.824188,254.782394 
	C444.427826,244.963242 437.646973,234.659225 426.666840,227.714325 
	C405.688751,214.445755 383.101807,205.286484 359.607941,197.736374 
	C329.030640,187.909851 297.722076,181.525772 265.820435,179.340454 
	C245.847122,177.972244 225.449554,177.075195 205.750702,183.044159 
	C197.703644,185.482498 189.782272,188.617508 185.060516,196.111496 
	C177.998550,207.319687 175.592300,220.025558 175.076599,233.008057 
	C174.340851,251.531082 175.219406,270.015717 178.011993,289.275635 
M1777.394897,589.881409 
	C1783.270996,580.222473 1789.729004,570.864319 1794.908325,560.845154 
	C1807.660400,536.177307 1811.742920,509.264191 1811.834106,482.003845 
	C1812.223877,365.537079 1812.000122,249.068253 1811.999146,132.600174 
	C1811.999146,131.267273 1812.038330,129.931473 1811.967041,128.601974 
	C1811.688721,123.416420 1809.707153,121.101295 1804.642334,121.079643 
	C1780.149780,120.974930 1755.656494,121.005905 1731.163696,121.064041 
	C1726.521606,121.075066 1724.167847,123.686012 1724.040161,128.296066 
	C1723.989502,130.127670 1724.001343,131.961304 1724.001343,133.794006 
	C1723.999756,245.596695 1724.019531,357.399384 1723.958984,469.202026 
	C1723.954712,477.174133 1723.841431,485.198822 1722.964111,493.108734 
	C1718.924316,529.533142 1699.195068,554.136230 1665.321045,567.253357 
	C1651.255249,572.700134 1636.410400,573.442017 1621.537598,570.568054 
	C1618.544189,569.989563 1617.174316,570.879395 1616.567993,573.721558 
	C1615.630005,578.117676 1614.552124,582.483948 1613.538818,586.864075 
	C1608.659790,607.954590 1603.865845,629.065369 1598.834473,650.119385 
	C1597.828003,654.330688 1598.840942,656.161133 1603.155762,657.014099 
	C1622.623047,660.862000 1642.268555,661.524048 1661.775024,658.621765 
	C1709.294189,651.551514 1747.632568,628.493713 1777.394897,589.881409 
z"/>
<path fill="#FF6600" opacity="1.000000" stroke="none" 
	d="
M583.531372,1.000004 
	C584.464233,1.655412 584.837158,2.788811 585.405884,2.897436 
	C609.704041,7.538176 630.128662,19.300465 646.706604,37.370346 
	C662.396912,54.472626 672.364136,74.577560 674.962097,97.912575 
	C675.599854,103.641006 675.956116,109.432617 675.958069,115.195351 
	C676.010742,267.526642 676.016113,419.857910 675.959473,572.189209 
	C675.956055,581.393677 673.696960,590.206055 669.682739,599.535645 
	C633.571167,577.713806 597.771973,556.080750 561.891724,534.398682 
	C569.643250,524.350525 577.776489,514.910156 584.662476,504.633911 
	C596.202087,487.412750 605.652588,468.948944 612.190918,449.251709 
	C617.655457,432.789612 622.633850,416.108459 626.649048,399.243683 
	C629.210693,388.484497 630.206543,377.248230 630.859985,366.164307 
	C631.757935,350.932465 632.319458,335.619812 631.792969,320.384369 
	C631.375977,308.318939 629.793030,296.183472 627.480652,284.322205 
	C624.657349,269.840271 621.275574,255.374664 616.793030,241.330399 
	C609.997253,220.038330 600.871521,199.592972 588.945618,180.647598 
	C580.450562,167.152512 571.648193,153.679443 561.453735,141.473907 
	C551.304138,129.322235 539.855408,118.058441 527.855652,107.704102 
	C515.527710,97.066612 502.276703,87.341553 488.655487,78.395950 
	C466.764404,64.019135 442.836029,53.700554 417.480225,47.086613 
	C403.808136,43.520306 389.989471,39.893742 376.008209,38.296089 
	C359.452393,36.404236 342.603760,35.591164 325.967804,36.306026 
	C309.693451,37.005352 293.402740,39.538002 277.342834,42.484772 
	C254.205307,46.730179 232.083740,54.771976 211.304886,65.607452 
	C195.622208,73.785454 180.793320,83.716919 166.078232,93.602943 
	C150.084976,104.347656 136.577927,118.113541 123.520027,132.149323 
	C109.916885,146.771194 98.253952,162.965973 87.984749,180.122803 
	C75.645576,200.737930 65.498688,222.414764 58.998444,245.529724 
	C54.519638,261.456451 51.311531,277.764313 48.063145,294.007355 
	C43.711491,315.767120 44.128574,337.921906 45.275101,359.849731 
	C46.535465,383.954742 51.161312,407.690369 58.350460,430.871979 
	C64.646317,451.173157 72.610199,470.830170 83.267685,489.103027 
	C92.354317,504.682556 102.743584,519.625427 113.777534,533.906555 
	C122.342308,544.991882 132.431473,554.989258 142.484375,564.814087 
	C157.755402,579.738647 175.203415,591.902710 193.496445,602.874084 
	C213.286530,614.743286 234.365234,623.564270 256.440918,630.187073 
	C272.245514,634.928589 288.210846,638.910400 304.705078,639.926208 
	C321.378265,640.953125 338.133057,642.368835 354.774170,641.693298 
	C369.725891,641.086426 384.860352,639.054749 399.390930,635.507812 
	C417.305115,631.134766 434.943146,625.237061 452.182159,618.643005 
	C462.117371,614.842773 471.016113,608.343628 480.406647,603.104492 
	C485.383484,600.327820 490.622559,597.963379 495.362030,594.835266 
	C500.079163,591.721863 503.430206,593.259705 506.426086,596.974670 
	C512.378479,604.355774 518.113037,611.912842 524.072693,619.287964 
	C533.347229,630.765503 542.821106,642.082520 552.040466,653.603760 
	C557.339355,660.225647 562.322205,667.101440 567.384521,673.909729 
	C567.828552,674.506958 567.804504,675.452332 567.998901,676.617981 
	C409.979095,677.000000 251.958206,677.000000 93.804550,676.683960 
	C93.011879,675.926270 92.402893,675.218994 91.684708,675.081360 
	C63.498745,669.678284 40.860191,655.033264 23.469305,632.640930 
	C12.939022,619.082214 5.851624,603.555420 2.894282,586.393921 
	C2.798311,585.837036 1.655054,585.460571 1.000000,585.000000 
	C1.000000,421.312439 1.000000,257.624878 1.303713,93.808311 
	C2.068833,92.861580 2.784863,92.093193 2.954309,91.218887 
	C6.919858,70.757309 16.196545,52.868195 30.089922,37.561722 
	C46.676914,19.287668 67.204521,7.561661 91.604462,2.896440 
	C92.169838,2.788342 92.539200,1.655080 93.000000,1.000000 
	C256.354218,1.000000 419.708466,1.000000 583.531372,1.000004 
z"/>
<path fill="#0D0D0D" opacity="1.000000" stroke="none" 
	d="
M3060.000000,405.531311 
	C3058.853760,408.295105 3057.286865,410.476105 3056.628174,412.903534 
	C3051.760498,430.845825 3041.379395,445.387482 3028.305908,458.044312 
	C3011.761719,474.061340 2991.517822,483.675415 2969.579834,489.820831 
	C2944.443604,496.862183 2918.793213,499.884644 2892.656006,500.138397 
	C2863.673340,500.419830 2835.123535,498.105621 2807.196777,490.035767 
	C2764.912842,477.817200 2731.887695,453.652283 2711.247559,414.230835 
	C2701.633789,395.868896 2697.067139,375.884918 2696.065186,355.190613 
	C2695.686035,347.355804 2698.577393,343.796936 2706.519043,342.721863 
	C2720.347900,340.849945 2734.249023,339.497925 2748.130371,338.029846 
	C2755.564209,337.243652 2763.009521,336.360657 2770.470215,336.081360 
	C2779.100342,335.758362 2782.098389,339.069794 2784.049316,347.316864 
	C2786.873779,359.257874 2789.606445,371.348907 2793.967529,382.769012 
	C2801.104492,401.458374 2814.824463,414.110107 2833.681152,421.056641 
	C2848.533691,426.528107 2863.934570,428.753418 2879.690674,429.008759 
	C2897.363037,429.295074 2914.996826,429.046387 2932.328613,425.009552 
	C2944.133545,422.259949 2954.989258,417.790131 2964.230469,409.426880 
	C2977.868652,397.084198 2977.599365,369.259216 2956.856445,359.241394 
	C2941.442139,351.796936 2925.523438,346.049011 2909.045654,341.866974 
	C2884.345215,335.597961 2859.433838,330.159088 2834.740723,323.862823 
	C2808.560547,317.187439 2782.784180,309.179779 2758.815186,296.368866 
	C2738.854004,285.700012 2722.461426,271.264221 2714.842773,249.322784 
	C2703.568359,216.854187 2709.066895,187.249039 2732.730957,161.870560 
	C2757.728271,135.062317 2789.821289,122.606133 2825.263916,116.849678 
	C2846.629639,113.379501 2868.108643,113.348969 2889.524170,114.208611 
	C2917.669189,115.338379 2945.134521,120.860397 2970.607666,133.424271 
	C2997.593750,146.734283 3019.078613,166.192520 3032.588623,193.452026 
	C3037.370850,203.101990 3041.210449,213.265305 3044.861328,223.416824 
	C3048.449707,233.393829 3044.844971,238.935349 3034.379883,241.022247 
	C3016.903320,244.507324 2999.433594,248.024841 2981.955566,251.503006 
	C2970.475098,253.787613 2967.198975,251.997726 2962.869385,241.123077 
	C2955.190430,221.834320 2943.500244,205.872574 2924.966553,195.661407 
	C2912.812256,188.965027 2899.592041,185.256470 2885.914307,184.286316 
	C2867.176025,182.957230 2848.362305,182.845627 2829.984375,188.005203 
	C2819.214111,191.028931 2809.573242,195.826569 2801.968994,204.424942 
	C2792.333252,215.320175 2794.417969,230.690094 2807.696777,236.587463 
	C2819.965332,242.036026 2832.805664,246.511810 2845.772949,250.011292 
	C2879.377441,259.080170 2913.337646,266.845703 2946.872803,276.151581 
	C2972.252686,283.194336 2997.096924,292.090637 3019.138428,307.125702 
	C3038.422119,320.279602 3051.908936,337.645325 3057.225830,360.786530 
	C3057.618408,362.494751 3058.636719,364.059235 3059.682129,365.845276 
	C3060.000000,379.020905 3060.000000,392.041779 3060.000000,405.531311 
z"/>
<path fill="#000000" opacity="1.000000" stroke="none" 
	d="
M92.531342,1.000000 
	C92.539200,1.655080 92.169838,2.788342 91.604462,2.896440 
	C67.204521,7.561661 46.676914,19.287668 30.089922,37.561722 
	C16.196545,52.868195 6.919858,70.757309 2.954309,91.218887 
	C2.784863,92.093193 2.068833,92.861580 1.303713,93.339653 
	C1.000000,62.406414 1.000000,31.812828 1.000000,1.000000 
	C31.353876,1.000000 61.708279,1.000000 92.531342,1.000000 
z"/>
<path fill="#000000" opacity="1.000000" stroke="none" 
	d="
M1.000000,585.468628 
	C1.655054,585.460571 2.798311,585.837036 2.894282,586.393921 
	C5.851624,603.555420 12.939022,619.082214 23.469305,632.640930 
	C40.860191,655.033264 63.498745,669.678284 91.684708,675.081360 
	C92.402893,675.218994 93.011879,675.926270 93.335892,676.683960 
	C62.406414,677.000000 31.812832,677.000000 1.000000,677.000000 
	C1.000000,646.646118 1.000000,616.291748 1.000000,585.468628 
z"/>
<path fill="#0D0D0D" opacity="1.000000" stroke="none" 
	d="
M943.995605,160.985916 
	C952.175720,154.765701 959.956665,147.913376 968.612488,142.446167 
	C992.689636,127.238655 1019.224304,118.469597 1047.532104,116.245705 
	C1077.295532,113.907455 1106.488037,117.468170 1134.050049,129.723923 
	C1142.997803,133.702606 1151.366211,138.983627 1160.002319,143.663712 
	C1161.145020,144.282867 1162.304565,144.870682 1165.000977,146.280807 
	C1165.000977,142.096313 1164.994263,138.946335 1165.002197,135.796371 
	C1165.030151,124.686714 1167.722412,122.010727 1178.946777,122.004890 
	C1199.945801,121.993965 1220.944946,121.984520 1241.943970,122.010033 
	C1251.677002,122.021851 1253.997803,124.383911 1253.998047,134.147629 
	C1254.001221,251.809006 1254.002563,369.470398 1253.998169,487.131775 
	C1253.996948,519.932983 1245.067627,550.222656 1228.170288,578.221924 
	C1210.855225,606.913025 1187.147705,629.068726 1157.148071,643.642029 
	C1134.545288,654.622070 1110.926636,662.726624 1085.182739,664.254761 
	C1037.507446,667.084717 995.985291,652.377319 959.396606,622.673218 
	C941.084290,607.806641 927.059875,589.295776 916.559875,568.139343 
	C914.647522,564.286133 915.671509,562.054382 919.552002,560.291382 
	C943.048828,549.616394 966.517395,538.877197 989.900635,527.956604 
	C993.774475,526.147400 995.333130,526.688965 997.564636,530.573120 
	C1010.874390,553.740295 1030.587402,568.447632 1056.926270,573.908020 
	C1075.110596,577.677795 1092.304810,573.274353 1109.010742,566.817627 
	C1116.862427,563.783020 1124.895264,560.183716 1131.474487,555.074219 
	C1156.225098,535.852539 1166.828979,509.966522 1164.913208,478.843323 
	C1164.620239,474.085175 1161.676514,472.585754 1157.280396,474.835144 
	C1152.686035,477.185852 1148.139038,479.638458 1143.654663,482.192749 
	C1125.076294,492.774536 1104.841797,497.782806 1083.796509,500.049652 
	C1053.426636,503.320953 1023.953430,499.550690 995.659363,487.996246 
	C968.109558,476.745697 944.440002,460.029144 924.758728,437.488281 
	C903.015076,412.585327 888.329895,384.171570 881.434204,351.978210 
	C878.804260,339.700317 878.114746,326.971344 877.039062,314.405304 
	C875.814453,300.099030 877.226868,285.890289 880.282471,271.264740 
	C881.571228,269.011505 882.807190,267.400452 883.417236,265.579712 
	C887.250488,254.138901 890.992920,242.666763 894.628418,231.161713 
	C895.134460,229.560486 894.887085,227.721191 894.988464,225.992096 
	C896.834045,222.160278 898.679688,218.328445 901.094238,214.156570 
	C903.557800,211.210205 905.606934,208.701279 907.321045,205.981277 
	C916.409729,191.559174 927.172302,178.542892 939.571533,166.844742 
	C941.326599,165.188965 942.534424,162.953232 943.995605,160.985916 
M1160.000000,316.364807 
	C1160.000000,312.866608 1160.039307,309.367920 1159.993774,305.870331 
	C1159.552856,272.003876 1145.562500,244.658447 1119.148682,223.972397 
	C1095.272583,205.273727 1067.929321,199.235367 1038.198364,205.283493 
	C1015.254211,209.951019 996.232422,221.395737 981.038086,239.368591 
	C961.704468,262.237732 953.817383,288.835815 956.344055,318.197327 
	C958.748230,346.134949 970.717102,369.851776 992.013550,388.516724 
	C1015.615356,409.202240 1043.109619,417.213562 1073.952271,412.380981 
	C1100.024414,408.295898 1121.351074,395.350800 1137.736694,374.626495 
	C1151.001099,357.849945 1158.421509,338.694702 1160.000000,316.364807 
z"/>
<path fill="#0D0D0D" opacity="1.000000" stroke="none" 
	d="
M2531.003906,489.978271 
	C2512.425781,496.817810 2493.331299,500.613892 2473.453125,501.101959 
	C2449.159912,501.698486 2425.572754,498.425385 2403.038574,489.356567 
	C2393.819336,485.646210 2385.208984,480.420959 2376.324951,475.878662 
	C2373.576660,474.473602 2370.839355,473.047760 2366.999512,471.064575 
	C2366.999512,477.216370 2367.019043,482.142914 2366.995117,487.069244 
	C2366.960693,494.085571 2364.558105,496.738770 2357.480713,496.927368 
	C2349.821777,497.131500 2342.153564,496.995392 2334.489502,496.997528 
	C2320.327393,497.001465 2306.164795,497.048035 2292.003174,496.952698 
	C2289.369873,496.934967 2286.701416,496.514160 2284.118652,495.957397 
	C2280.767090,495.234924 2279.057129,492.962738 2279.028809,489.494141 
	C2279.018066,488.161316 2279.001465,486.828522 2279.001465,485.495697 
	C2279.000244,330.877686 2278.999756,176.259659 2279.001465,21.641651 
	C2279.001465,20.142273 2278.943604,18.636858 2279.053223,17.144609 
	C2279.429688,12.023639 2281.572021,10.063372 2287.314697,10.035482 
	C2303.309082,9.957801 2319.304443,10.002617 2335.299316,10.000213 
	C2342.630371,9.999110 2349.961670,9.973212 2357.292480,10.008419 
	C2365.460938,10.047648 2366.994629,11.565980 2366.996338,19.594147 
	C2367.004395,59.248337 2367.000000,98.902527 2367.000000,138.556717 
	C2367.000000,140.524124 2367.000000,142.491531 2367.000000,145.904861 
	C2373.278809,142.597244 2378.720947,140.024841 2383.872803,136.964203 
	C2403.739990,125.161598 2425.431885,119.364868 2448.202148,116.933060 
	C2473.016602,114.282959 2497.377197,116.397339 2521.228516,123.828400 
	C2547.361328,131.970444 2570.548096,145.194672 2591.047363,163.419968 
	C2609.606445,179.920013 2624.181885,199.352036 2635.136963,221.466324 
	C2645.491699,242.368912 2651.924316,264.475494 2654.167969,287.815582 
	C2657.861328,326.241608 2651.727539,362.868317 2634.221191,397.306183 
	C2626.373535,412.744263 2617.293701,427.521942 2603.933350,439.855072 
	C2597.712158,442.968750 2593.078125,446.772278 2591.005859,453.008331 
	C2591.005859,453.008331 2591.000000,453.000000 2590.624512,453.011658 
	C2586.455322,453.230713 2584.349121,455.199829 2584.003662,459.006836 
	C2584.003662,459.006836 2584.000000,458.998779 2583.638184,459.031677 
	C2581.852539,460.379150 2580.428955,461.693726 2579.005371,463.008362 
	C2579.005371,463.008392 2579.000000,463.000000 2578.632812,463.032410 
	C2575.770264,464.270874 2573.200195,465.345337 2570.792236,466.706299 
	C2561.497314,471.959534 2552.232910,477.268097 2543.001221,482.631958 
	C2538.947510,484.987030 2534.999756,487.523926 2531.003906,489.978271 
M2550.501221,240.000412 
	C2548.558350,237.724991 2546.803711,235.250671 2544.643555,233.204895 
	C2522.127441,211.883850 2495.820801,201.244263 2464.381104,203.818069 
	C2441.873291,205.660706 2422.056152,213.986389 2405.826904,229.026108 
	C2374.305176,258.237366 2363.893311,294.692108 2374.211426,336.246063 
	C2386.388428,385.286163 2433.397217,419.161499 2483.447021,413.098114 
	C2518.978760,408.793549 2545.418213,390.585022 2562.508789,359.615936 
	C2583.495605,321.586456 2578.459961,274.378326 2550.501221,240.000412 
z"/>
<path fill="#FF6600" opacity="1.000000" stroke="none" 
	d="
M178.007111,288.825867 
	C175.219406,270.015717 174.340851,251.531082 175.076599,233.008057 
	C175.592300,220.025558 177.998550,207.319687 185.060516,196.111496 
	C189.782272,188.617508 197.703644,185.482498 205.750702,183.044159 
	C225.449554,177.075195 245.847122,177.972244 265.820435,179.340454 
	C297.722076,181.525772 329.030640,187.909851 359.607941,197.736374 
	C383.101807,205.286484 405.688751,214.445755 426.666840,227.714325 
	C437.646973,234.659225 444.427826,244.963242 451.824188,254.782394 
	C463.987335,270.929718 471.355438,289.598511 478.229492,308.467346 
	C485.028229,327.129425 490.207153,346.167633 494.221100,365.638489 
	C497.317413,380.657867 500.331512,395.615082 500.970703,410.945984 
	C501.488678,423.369415 502.453339,435.850922 501.760864,448.224976 
	C501.156769,459.020538 498.762451,469.656830 493.324371,479.494385 
	C488.321686,488.544312 480.065247,492.196808 471.090790,494.951416 
	C451.570953,500.942810 431.336121,499.988159 411.521393,498.683624 
	C376.139709,496.354248 341.528900,488.882935 307.938019,477.372589 
	C287.739594,470.451355 268.309753,461.854340 250.192612,450.222046 
	C239.289597,443.221741 232.487686,432.940826 225.125015,423.079681 
	C212.126663,405.670441 203.854782,385.722656 197.257370,365.255920 
	C191.090469,346.124756 186.275253,326.550232 181.146851,307.096588 
	C179.614716,301.284698 179.030502,295.222931 178.007111,288.825867 
z"/>
<path fill="#0D0D0D" opacity="1.000000" stroke="none" 
	d="
M1347.995117,178.986877 
	C1351.843872,174.650497 1355.362061,169.956985 1359.596191,166.036774 
	C1383.770752,143.654297 1411.673828,127.902802 1443.912842,120.598015 
	C1483.939453,111.528687 1522.882446,114.912636 1560.574097,131.716614 
	C1582.303345,141.404068 1601.516357,154.684586 1618.017944,171.650589 
	C1646.845703,201.289993 1664.647339,236.728500 1670.876465,277.617645 
	C1677.331421,319.988464 1671.514893,360.791321 1651.440674,398.805634 
	C1623.945312,450.873566 1581.605957,484.808960 1523.734253,497.331451 
	C1485.127808,505.685272 1447.316406,501.505005 1411.006958,485.103394 
	C1388.376953,474.880981 1368.442505,460.897400 1351.561523,442.887756 
	C1324.177246,413.672516 1307.128540,379.079132 1301.121338,339.427490 
	C1294.674072,296.871765 1300.967896,256.155182 1320.711060,217.758453 
	C1323.813721,211.724319 1327.843750,206.166946 1332.048340,200.106140 
	C1336.099487,194.879807 1339.547363,189.936417 1342.995117,184.993027 
	C1342.995117,184.993027 1343.000000,185.000610 1343.331299,184.910950 
	C1345.106812,182.876480 1346.550903,180.931671 1347.995117,178.986877 
M1564.963623,240.574661 
	C1563.239868,238.766891 1561.497559,236.976364 1559.795166,235.148666 
	C1540.511108,214.446823 1516.473022,203.992249 1488.444946,203.121918 
	C1470.465210,202.563599 1453.386719,207.072876 1437.810791,216.166565 
	C1416.233276,228.764282 1399.906250,246.094482 1391.404419,270.023224 
	C1386.064697,285.051819 1383.513794,300.389343 1384.862427,316.495758 
	C1387.497681,347.965668 1400.832031,373.638458 1425.684082,392.933075 
	C1449.473633,411.402771 1476.578613,417.489990 1506.149902,411.854553 
	C1525.647583,408.138824 1542.286621,398.941406 1556.574951,385.105896 
	C1577.239990,365.096283 1587.925415,340.672943 1588.897949,312.175934 
	C1589.799805,285.756561 1581.674683,262.023132 1564.963623,240.574661 
z"/>
<path fill="#0D0D0D" opacity="1.000000" stroke="none" 
	d="
M1980.996460,127.021881 
	C1984.073975,126.033638 1987.151489,125.045418 1990.928955,124.216599 
	C1997.613525,123.306641 2003.636108,122.406044 2009.561279,121.071671 
	C2011.503052,120.634346 2013.191284,119.070770 2014.995483,118.022247 
	C2050.946289,112.744614 2085.583496,116.826561 2118.899902,131.853439 
	C2141.532471,142.061584 2161.465820,156.042953 2178.365479,174.034378 
	C2205.660889,203.092743 2222.693848,237.526764 2228.794189,276.965973 
	C2235.315430,319.126129 2229.742432,359.797302 2209.965088,397.767792 
	C2182.582275,450.339600 2140.145020,484.610840 2081.902588,497.291626 
	C2043.303955,505.695496 2005.491089,501.544586 1969.170898,485.176666 
	C1946.535767,474.975891 1926.590088,461.011688 1909.687988,443.020325 
	C1882.268799,413.834076 1865.195068,379.253479 1859.147827,339.615356 
	C1852.657227,297.071564 1858.839478,256.310364 1878.610352,217.927917 
	C1888.589478,198.554749 1901.613892,181.320984 1917.355835,166.201370 
	C1918.537720,165.066223 1920.033325,164.257523 1922.063599,163.137146 
	C1929.007935,160.781525 1933.796631,156.831985 1936.995117,150.991592 
	C1936.995117,150.991592 1937.000000,151.000000 1937.378174,150.988251 
	C1939.585205,150.265213 1941.517700,149.743637 1943.225586,148.811081 
	C1952.563965,143.712219 1961.879761,138.569351 1971.132690,133.317368 
	C1974.520386,131.394516 1977.714233,129.130371 1980.996460,127.021881 
M2042.611450,203.001694 
	C2039.805908,203.315079 2037.005249,203.680740 2034.194214,203.933563 
	C2012.500854,205.884613 1993.553833,214.595276 1977.687988,229.053131 
	C1950.337769,253.976151 1938.820679,285.560883 1943.299438,322.115814 
	C1950.053101,377.237274 1998.408691,419.262085 2054.912354,413.149567 
	C2083.572021,410.049225 2106.394531,396.815521 2124.051025,374.697174 
	C2142.346924,351.778198 2149.139648,325.433990 2146.162354,296.134491 
	C2140.855957,243.917953 2096.208984,203.069427 2042.611450,203.001694 
z"/>
<path fill="#0D0D0D" opacity="1.000000" stroke="none" 
	d="
M1777.176514,590.163635 
	C1747.632568,628.493713 1709.294189,651.551514 1661.775024,658.621765 
	C1642.268555,661.524048 1622.623047,660.862000 1603.155762,657.014099 
	C1598.840942,656.161133 1597.828003,654.330688 1598.834473,650.119385 
	C1603.865845,629.065369 1608.659790,607.954590 1613.538818,586.864075 
	C1614.552124,582.483948 1615.630005,578.117676 1616.567993,573.721558 
	C1617.174316,570.879395 1618.544189,569.989563 1621.537598,570.568054 
	C1636.410400,573.442017 1651.255249,572.700134 1665.321045,567.253357 
	C1699.195068,554.136230 1718.924316,529.533142 1722.964111,493.108734 
	C1723.841431,485.198822 1723.954712,477.174133 1723.958984,469.202026 
	C1724.019531,357.399384 1723.999756,245.596695 1724.001343,133.794006 
	C1724.001343,131.961304 1723.989502,130.127670 1724.040161,128.296066 
	C1724.167847,123.686012 1726.521606,121.075066 1731.163696,121.064041 
	C1755.656494,121.005905 1780.149780,120.974930 1804.642334,121.079643 
	C1809.707153,121.101295 1811.688721,123.416420 1811.967041,128.601974 
	C1812.038330,129.931473 1811.999146,131.267273 1811.999146,132.600174 
	C1812.000122,249.068253 1812.223877,365.537079 1811.834106,482.003845 
	C1811.742920,509.264191 1807.660400,536.177307 1794.908325,560.845154 
	C1789.729004,570.864319 1783.270996,580.222473 1777.176514,590.163635 
z"/>
<path fill="#0D0D0D" opacity="1.000000" stroke="none" 
	d="
M943.665039,161.073746 
	C942.534424,162.953232 941.326599,165.188965 939.571533,166.844742 
	C927.172302,178.542892 916.409729,191.559174 907.321045,205.981277 
	C905.606934,208.701279 903.557800,211.210205 901.324890,213.906097 
	C907.614868,203.881042 913.587341,193.246429 921.069397,183.808609 
	C927.608704,175.560059 935.846802,168.658295 943.665039,161.073746 
z"/>
<path fill="#0D0D0D" opacity="1.000000" stroke="none" 
	d="
M2531.361328,489.904816 
	C2534.999756,487.523926 2538.947510,484.987030 2543.001221,482.631958 
	C2552.232910,477.268097 2561.497314,471.959534 2570.792236,466.706299 
	C2573.200195,465.345337 2575.770264,464.270874 2578.637695,463.034760 
	C2576.347168,465.215637 2573.963623,467.948975 2570.973389,469.547058 
	C2557.984863,476.489105 2544.819580,483.100098 2531.361328,489.904816 
z"/>
<path fill="#0D0D0D" opacity="1.000000" stroke="none" 
	d="
M1980.638672,127.095520 
	C1977.714233,129.130371 1974.520386,131.394516 1971.132690,133.317368 
	C1961.879761,138.569351 1952.563965,143.712219 1943.225586,148.811081 
	C1941.517700,149.743637 1939.585205,150.265213 1937.375122,150.985794 
	C1943.993530,146.331894 1950.730347,141.192230 1958.068237,137.141846 
	C1965.149780,133.232986 1972.851685,130.447906 1980.638672,127.095520 
z"/>
<path fill="#0D0D0D" opacity="1.000000" stroke="none" 
	d="
M894.755737,226.247604 
	C894.887085,227.721191 895.134460,229.560486 894.628418,231.161713 
	C890.992920,242.666763 887.250488,254.138901 883.417236,265.579712 
	C882.807190,267.400452 881.571228,269.011505 880.323242,270.857758 
	C884.028015,257.791412 888.000977,244.576523 892.081055,231.394745 
	C892.612793,229.676849 893.695557,228.129471 894.755737,226.247604 
z"/>
<path fill="#0D0D0D" opacity="1.000000" stroke="none" 
	d="
M2014.590820,118.052628 
	C2013.191284,119.070770 2011.503052,120.634346 2009.561279,121.071671 
	C2003.636108,122.406044 1997.613525,123.306641 1991.309692,124.182396 
	C1998.722534,122.020203 2006.454346,120.051613 2014.590820,118.052628 
z"/>
<path fill="#0D0D0D" opacity="1.000000" stroke="none" 
	d="
M2591.336426,452.921967 
	C2593.078125,446.772278 2597.712158,442.968750 2603.654297,440.035889 
	C2599.898193,444.282227 2595.782715,448.558929 2591.336426,452.921967 
z"/>
<path fill="#0D0D0D" opacity="1.000000" stroke="none" 
	d="
M1936.663330,151.078491 
	C1933.796631,156.831985 1929.007935,160.781525 1922.365723,162.985992 
	C1926.768555,159.051651 1931.550049,155.108521 1936.663330,151.078491 
z"/>
<path fill="#0D0D0D" opacity="1.000000" stroke="none" 
	d="
M1342.713989,185.175369 
	C1339.547363,189.936417 1336.099487,194.879807 1332.318604,199.909302 
	C1335.467773,195.116196 1338.950317,190.236954 1342.713989,185.175369 
z"/>
<path fill="#0D0D0D" opacity="1.000000" stroke="none" 
	d="
M2584.281738,458.827881 
	C2584.349121,455.199829 2586.455322,453.230713 2590.629395,453.014160 
	C2588.859863,454.886261 2586.709717,456.767578 2584.281738,458.827881 
z"/>
<path fill="#0D0D0D" opacity="1.000000" stroke="none" 
	d="
M1347.717285,179.167969 
	C1346.550903,180.931671 1345.106812,182.876480 1343.326782,184.908447 
	C1344.473877,183.113434 1345.956787,181.231247 1347.717285,179.167969 
z"/>
<path fill="#0D0D0D" opacity="1.000000" stroke="none" 
	d="
M2579.326172,462.926910 
	C2580.428955,461.693726 2581.852539,460.379150 2583.643066,459.034668 
	C2582.555420,460.285004 2581.101074,461.565247 2579.326172,462.926910 
z"/>
<path fill="#000000" opacity="1.000000" stroke="none" 
	d="
M1159.999390,316.844177 
	C1158.421509,338.694702 1151.001099,357.849945 1137.736694,374.626495 
	C1121.351074,395.350800 1100.024414,408.295898 1073.952271,412.380981 
	C1043.109619,417.213562 1015.615356,409.202240 992.013550,388.516724 
	C970.717102,369.851776 958.748230,346.134949 956.344055,318.197327 
	C953.817383,288.835815 961.704468,262.237732 981.038086,239.368591 
	C996.232422,221.395737 1015.254211,209.951019 1038.198364,205.283493 
	C1067.929321,199.235367 1095.272583,205.273727 1119.148682,223.972397 
	C1145.562500,244.658447 1159.552856,272.003876 1159.993774,305.870331 
	C1160.039307,309.367920 1160.000000,312.866608 1159.999390,316.844177 
z"/>
<path fill="#000000" opacity="1.000000" stroke="none" 
	d="
M2550.750244,240.257034 
	C2578.459961,274.378326 2583.495605,321.586456 2562.508789,359.615936 
	C2545.418213,390.585022 2518.978760,408.793549 2483.447021,413.098114 
	C2433.397217,419.161499 2386.388428,385.286163 2374.211426,336.246063 
	C2363.893311,294.692108 2374.305176,258.237366 2405.826904,229.026108 
	C2422.056152,213.986389 2441.873291,205.660706 2464.381104,203.818069 
	C2495.820801,201.244263 2522.127441,211.883850 2544.643555,233.204895 
	C2546.803711,235.250671 2548.558350,237.724991 2550.750244,240.257034 
z"/>
<path fill="#000000" opacity="1.000000" stroke="none" 
	d="
M1565.183350,240.853790 
	C1581.674683,262.023132 1589.799805,285.756561 1588.897949,312.175934 
	C1587.925415,340.672943 1577.239990,365.096283 1556.574951,385.105896 
	C1542.286621,398.941406 1525.647583,408.138824 1506.149902,411.854553 
	C1476.578613,417.489990 1449.473633,411.402771 1425.684082,392.933075 
	C1400.832031,373.638458 1387.497681,347.965668 1384.862427,316.495758 
	C1383.513794,300.389343 1386.064697,285.051819 1391.404419,270.023224 
	C1399.906250,246.094482 1416.233276,228.764282 1437.810791,216.166565 
	C1453.386719,207.072876 1470.465210,202.563599 1488.444946,203.121918 
	C1516.473022,203.992249 1540.511108,214.446823 1559.795166,235.148666 
	C1561.497559,236.976364 1563.239868,238.766891 1565.183350,240.853790 
z"/>
<path fill="#000000" opacity="1.000000" stroke="none" 
	d="
M2043.084229,203.001038 
	C2096.208984,203.069427 2140.855957,243.917953 2146.162354,296.134491 
	C2149.139648,325.433990 2142.346924,351.778198 2124.051025,374.697174 
	C2106.394531,396.815521 2083.572021,410.049225 2054.912354,413.149567 
	C1998.408691,419.262085 1950.053101,377.237274 1943.299438,322.115814 
	C1938.820679,285.560883 1950.337769,253.976151 1977.687988,229.053131 
	C1993.553833,214.595276 2012.500854,205.884613 2034.194214,203.933563 
	C2037.005249,203.680740 2039.805908,203.315079 2043.084229,203.001038 
z"/>
</svg>