<svg width="122" height="48" viewBox="0 0 122 48" fill="none" xmlns="http://www.w3.org/2000/svg">
<path d="M50.688 31.448H58.048V35H46.208V12.664H50.688V31.448ZM68.7675 35.288C67.0608 35.288 65.5248 34.9147 64.1595 34.168C62.7942 33.4 61.7168 32.3227 60.9275 30.936C60.1595 29.5493 59.7755 27.9493 59.7755 26.136C59.7755 24.3227 60.1702 22.7227 60.9595 21.336C61.7702 19.9493 62.8688 18.8827 64.2555 18.136C65.6422 17.368 67.1888 16.984 68.8955 16.984C70.6022 16.984 72.1488 17.368 73.5355 18.136C74.9222 18.8827 76.0102 19.9493 76.7995 21.336C77.6102 22.7227 78.0155 24.3227 78.0155 26.136C78.0155 27.9493 77.5995 29.5493 76.7675 30.936C75.9568 32.3227 74.8475 33.4 73.4395 34.168C72.0528 34.9147 70.4955 35.288 68.7675 35.288ZM68.7675 31.384C69.5782 31.384 70.3355 31.192 71.0395 30.808C71.7648 30.4027 72.3408 29.8053 72.7675 29.016C73.1942 28.2267 73.4075 27.2667 73.4075 26.136C73.4075 24.4507 72.9595 23.16 72.0635 22.264C71.1888 21.3467 70.1115 20.888 68.8315 20.888C67.5515 20.888 66.4742 21.3467 65.5995 22.264C64.7462 23.16 64.3195 24.4507 64.3195 26.136C64.3195 27.8213 64.7355 29.1227 65.5675 30.04C66.4208 30.936 67.4875 31.384 68.7675 31.384ZM88.2458 16.984C89.5684 16.984 90.7311 17.2507 91.7338 17.784C92.7364 18.296 93.5258 18.968 94.1018 19.8V17.272H98.6138V35.128C98.6138 36.7707 98.2831 38.232 97.6218 39.512C96.9604 40.8133 95.9684 41.8373 94.6458 42.584C93.3231 43.352 91.7231 43.736 89.8458 43.736C87.3284 43.736 85.2591 43.1493 83.6378 41.976C82.0378 40.8027 81.1311 39.2027 80.9178 37.176H85.3658C85.6004 37.9867 86.1018 38.6267 86.8698 39.096C87.6591 39.5867 88.6084 39.832 89.7178 39.832C91.0191 39.832 92.0751 39.4373 92.8858 38.648C93.6964 37.88 94.1018 36.7067 94.1018 35.128V32.376C93.5258 33.208 92.7258 33.9013 91.7018 34.456C90.6991 35.0107 89.5471 35.288 88.2458 35.288C86.7524 35.288 85.3871 34.904 84.1498 34.136C82.9124 33.368 81.9311 32.2907 81.2057 30.904C80.5017 29.496 80.1497 27.8853 80.1497 26.072C80.1497 24.28 80.5017 22.6907 81.2057 21.304C81.9311 19.9173 82.9018 18.8507 84.1178 18.104C85.3551 17.3573 86.7311 16.984 88.2458 16.984ZM94.1018 26.136C94.1018 25.048 93.8884 24.12 93.4618 23.352C93.0351 22.5627 92.4591 21.9653 91.7338 21.56C91.0084 21.1333 90.2298 20.92 89.3978 20.92C88.5658 20.92 87.7978 21.1227 87.0938 21.528C86.3898 21.9333 85.8138 22.5307 85.3658 23.32C84.9391 24.088 84.7258 25.0053 84.7258 26.072C84.7258 27.1387 84.9391 28.0773 85.3658 28.888C85.8138 29.6773 86.3898 30.2853 87.0938 30.712C87.8191 31.1387 88.5871 31.352 89.3978 31.352C90.2298 31.352 91.0084 31.1493 91.7338 30.744C92.4591 30.3173 93.0351 29.72 93.4618 28.952C93.8884 28.1627 94.1018 27.224 94.1018 26.136ZM110.861 35.288C109.155 35.288 107.619 34.9147 106.253 34.168C104.888 33.4 103.811 32.3227 103.021 30.936C102.253 29.5493 101.869 27.9493 101.869 26.136C101.869 24.3227 102.264 22.7227 103.053 21.336C103.864 19.9493 104.963 18.8827 106.349 18.136C107.736 17.368 109.283 16.984 110.989 16.984C112.696 16.984 114.243 17.368 115.629 18.136C117.016 18.8827 118.104 19.9493 118.893 21.336C119.704 22.7227 120.109 24.3227 120.109 26.136C120.109 27.9493 119.693 29.5493 118.861 30.936C118.051 32.3227 116.941 33.4 115.533 34.168C114.147 34.9147 112.589 35.288 110.861 35.288ZM110.861 31.384C111.672 31.384 112.429 31.192 113.133 30.808C113.859 30.4027 114.435 29.8053 114.861 29.016C115.288 28.2267 115.501 27.2667 115.501 26.136C115.501 24.4507 115.053 23.16 114.157 22.264C113.283 21.3467 112.205 20.888 110.925 20.888C109.645 20.888 108.568 21.3467 107.693 22.264C106.84 23.16 106.413 24.4507 106.413 26.136C106.413 27.8213 106.829 29.1227 107.661 30.04C108.515 30.936 109.581 31.384 110.861 31.384Z" fill="white"/>
<rect y="9" width="30" height="30" rx="10" fill="#D9D9D9"/>
</svg>
